<mxfile host="app.diagrams.net" agent="Mozilla/5.0 (Macintosh; Intel Mac OS X 10_15_7) AppleWebKit/537.36 (KHTML, like Gecko) Chrome/138.0.0.0 Safari/537.36" version="28.1.1">
  <diagram name="Data Catalog Management System" id="te5dgtUjARfmi0fyvOMb">
    <mxGraphModel dx="2377" dy="1333" grid="1" gridSize="10" guides="1" tooltips="1" connect="1" arrows="1" fold="1" page="1" pageScale="1" pageWidth="1600" pageHeight="900" math="0" shadow="0">
      <root>
        <mxCell id="0" />
        <mxCell id="1" parent="0" />
        <mxCell id="PyQvktIJ5xe1rFf7hKC--1" value="" style="rounded=0;whiteSpace=wrap;html=1;fillColor=none;fontColor=#ffffff;strokeColor=#A50040;dashed=1;dashPattern=8 8;" parent="1" vertex="1">
          <mxGeometry x="132" y="460" width="228" height="240" as="geometry" />
        </mxCell>
        <mxCell id="PyQvktIJ5xe1rFf7hKC--2" value="" style="rounded=0;whiteSpace=wrap;html=1;fillColor=none;dashed=1;dashPattern=12 12;strokeColor=light-dark(#040011,#EDEDED);" parent="1" vertex="1">
          <mxGeometry x="120" y="150" width="530" height="420" as="geometry" />
        </mxCell>
        <mxCell id="PyQvktIJ5xe1rFf7hKC--3" value="&lt;u style=&quot;&quot;&gt;Data Catalog Management System Architecture&lt;/u&gt;" style="text;html=1;strokeColor=none;fillColor=none;align=center;verticalAlign=middle;whiteSpace=wrap;rounded=0;fontSize=20;fontStyle=1;" parent="1" vertex="1">
          <mxGeometry x="740" y="1330" width="454" height="30" as="geometry" />
        </mxCell>
        <mxCell id="PyQvktIJ5xe1rFf7hKC--4" value="Data Sources" style="text;html=1;strokeColor=none;fillColor=#E1D5E7;align=center;verticalAlign=middle;whiteSpace=wrap;rounded=1;fontSize=14;fontStyle=1;strokeWidth=1;" parent="1" vertex="1">
          <mxGeometry x="187.5" y="100" width="120" height="30" as="geometry" />
        </mxCell>
        <mxCell id="PyQvktIJ5xe1rFf7hKC--5" value="SDP Platform&lt;br&gt;(Hadoop Hive Metastore)" style="rounded=1;whiteSpace=wrap;html=1;fillColor=#dae8fc;strokeColor=#6c8ebf;" parent="1" vertex="1">
          <mxGeometry x="190" y="200" width="140" height="60" as="geometry" />
        </mxCell>
        <mxCell id="PyQvktIJ5xe1rFf7hKC--6" value="EPIC Center&lt;br&gt;(Business Metadata)" style="rounded=1;whiteSpace=wrap;html=1;fillColor=#d5e8d4;strokeColor=#82b366;" parent="1" vertex="1">
          <mxGeometry x="190" y="280" width="140" height="60" as="geometry" />
        </mxCell>
        <mxCell id="PyQvktIJ5xe1rFf7hKC--7" value="Hive DNT Database&lt;br&gt;(AD Groups and Access Frequency)" style="rounded=1;whiteSpace=wrap;html=1;fillColor=#fff2cc;strokeColor=#d6b656;" parent="1" vertex="1">
          <mxGeometry x="190" y="380" width="140" height="60" as="geometry" />
        </mxCell>
        <mxCell id="PyQvktIJ5xe1rFf7hKC--8" value="" style="rounded=1;whiteSpace=wrap;html=1;fillColor=#f8cecc;strokeColor=#b85450;" parent="1" vertex="1">
          <mxGeometry x="200" y="1100" width="95" height="240" as="geometry" />
        </mxCell>
        <mxCell id="PyQvktIJ5xe1rFf7hKC--9" value="APP HQ APIs&lt;br&gt;(AIT Details)" style="rounded=1;whiteSpace=wrap;html=1;fillColor=#e1d5e7;strokeColor=#9673a6;" parent="1" vertex="1">
          <mxGeometry x="187.5" y="760" width="140" height="60" as="geometry" />
        </mxCell>
        <mxCell id="PyQvktIJ5xe1rFf7hKC--10" value="SharePoint Site&lt;br&gt;(AIF Details)" style="rounded=1;whiteSpace=wrap;html=1;fillColor=#fce5cd;strokeColor=#d79b00;" parent="1" vertex="1">
          <mxGeometry x="187.5" y="840" width="140" height="60" as="geometry" />
        </mxCell>
        <mxCell id="PyQvktIJ5xe1rFf7hKC--11" value="Processing Layer" style="text;html=1;strokeColor=none;fillColor=#FFE6CC;align=center;verticalAlign=middle;whiteSpace=wrap;rounded=1;fontSize=14;fontStyle=1;" parent="1" vertex="1">
          <mxGeometry x="450" y="100" width="120" height="30" as="geometry" />
        </mxCell>
        <mxCell id="PyQvktIJ5xe1rFf7hKC--12" value="ITC Hadoop&lt;br&gt;Hive Database" style="rounded=1;whiteSpace=wrap;html=1;fillColor=#dae8fc;strokeColor=#6c8ebf;" parent="1" vertex="1">
          <mxGeometry x="440" y="200" width="120" height="60" as="geometry" />
        </mxCell>
        <mxCell id="PyQvktIJ5xe1rFf7hKC--13" value="NDM Process&lt;br&gt;(Hadoop Edgenode)" style="rounded=1;whiteSpace=wrap;html=1;fillColor=#d5e8d4;strokeColor=#82b366;" parent="1" vertex="1">
          <mxGeometry x="440" y="280" width="120" height="60" as="geometry" />
        </mxCell>
        <mxCell id="PyQvktIJ5xe1rFf7hKC--14" value="Core Storage" style="text;html=1;strokeColor=none;fillColor=#F0F0F0;align=center;verticalAlign=middle;whiteSpace=wrap;rounded=1;fontSize=14;fontStyle=1;" parent="1" vertex="1">
          <mxGeometry x="910" y="100" width="120" height="30" as="geometry" />
        </mxCell>
        <mxCell id="PyQvktIJ5xe1rFf7hKC--15" value="Search and Indexing" style="text;html=1;strokeColor=none;fillColor=#CCFFCC;align=center;verticalAlign=middle;whiteSpace=wrap;rounded=1;fontSize=14;fontStyle=1;" parent="1" vertex="1">
          <mxGeometry x="1230.39" y="960" width="120" height="30" as="geometry" />
        </mxCell>
        <mxCell id="PyQvktIJ5xe1rFf7hKC--17" value="Web Interface" style="text;html=1;strokeColor=none;fillColor=#FFE6E6;align=center;verticalAlign=middle;whiteSpace=wrap;rounded=1;fontSize=14;fontStyle=1;" parent="1" vertex="1">
          <mxGeometry x="1220" y="100" width="120" height="30" as="geometry" />
        </mxCell>
        <mxCell id="PyQvktIJ5xe1rFf7hKC--18" value="Load Balancer" style="rounded=1;whiteSpace=wrap;html=1;fillColor=#ffe6e6;strokeColor=#cc0000;" parent="1" vertex="1">
          <mxGeometry x="1230" y="220" width="120" height="40" as="geometry" />
        </mxCell>
        <mxCell id="PyQvktIJ5xe1rFf7hKC--19" value="Web UI Server 1" style="rounded=1;whiteSpace=wrap;html=1;fillColor=#ffcccc;strokeColor=#cc6666;" parent="1" vertex="1">
          <mxGeometry x="1180" y="290" width="100" height="40" as="geometry" />
        </mxCell>
        <mxCell id="PyQvktIJ5xe1rFf7hKC--20" value="Web UI Server 2" style="rounded=1;whiteSpace=wrap;html=1;fillColor=#ffcccc;strokeColor=#cc6666;" parent="1" vertex="1">
          <mxGeometry x="1300" y="290" width="100" height="40" as="geometry" />
        </mxCell>
        <mxCell id="PyQvktIJ5xe1rFf7hKC--21" value="Web UI Server N" style="rounded=1;whiteSpace=wrap;html=1;fillColor=#ffcccc;strokeColor=#cc6666;" parent="1" vertex="1">
          <mxGeometry x="1240" y="350" width="100" height="40" as="geometry" />
        </mxCell>
        <mxCell id="PyQvktIJ5xe1rFf7hKC--22" style="edgeStyle=orthogonalEdgeStyle;rounded=0;orthogonalLoop=1;jettySize=auto;html=1;exitX=1;exitY=0.5;exitDx=0;exitDy=0;entryX=0;entryY=0.5;entryDx=0;entryDy=0;" parent="1" source="PyQvktIJ5xe1rFf7hKC--5" target="PyQvktIJ5xe1rFf7hKC--12" edge="1">
          <mxGeometry relative="1" as="geometry" />
        </mxCell>
        <mxCell id="PyQvktIJ5xe1rFf7hKC--23" style="edgeStyle=orthogonalEdgeStyle;rounded=0;orthogonalLoop=1;jettySize=auto;html=1;exitX=1;exitY=0.5;exitDx=0;exitDy=0;entryX=0;entryY=0.5;entryDx=0;entryDy=0;" parent="1" source="PyQvktIJ5xe1rFf7hKC--6" target="PyQvktIJ5xe1rFf7hKC--13" edge="1">
          <mxGeometry relative="1" as="geometry" />
        </mxCell>
        <mxCell id="PyQvktIJ5xe1rFf7hKC--24" style="edgeStyle=orthogonalEdgeStyle;rounded=0;orthogonalLoop=1;jettySize=auto;html=1;exitX=0.952;exitY=0.625;exitDx=0;exitDy=0;entryX=0;entryY=0.5;entryDx=0;entryDy=0;exitPerimeter=0;entryPerimeter=0;" parent="1" source="PyQvktIJ5xe1rFf7hKC--46" target="PyQvktIJ5xe1rFf7hKC--62" edge="1">
          <mxGeometry relative="1" as="geometry">
            <mxPoint x="122.5" y="950" as="sourcePoint" />
            <mxPoint x="450" y="982.0000000000005" as="targetPoint" />
            <Array as="points">
              <mxPoint x="291" y="994" />
            </Array>
          </mxGeometry>
        </mxCell>
        <mxCell id="PyQvktIJ5xe1rFf7hKC--25" style="edgeStyle=orthogonalEdgeStyle;rounded=0;orthogonalLoop=1;jettySize=auto;html=1;exitX=1;exitY=0.5;exitDx=0;exitDy=0;" parent="1" source="PyQvktIJ5xe1rFf7hKC--12" edge="1">
          <mxGeometry relative="1" as="geometry">
            <Array as="points">
              <mxPoint x="750" y="230" />
            </Array>
            <mxPoint x="750" y="750" as="targetPoint" />
          </mxGeometry>
        </mxCell>
        <mxCell id="PyQvktIJ5xe1rFf7hKC--26" style="edgeStyle=orthogonalEdgeStyle;rounded=0;orthogonalLoop=1;jettySize=auto;html=1;exitX=1;exitY=0.5;exitDx=0;exitDy=0;entryX=0.321;entryY=0.013;entryDx=0;entryDy=0;entryPerimeter=0;" parent="1" source="PyQvktIJ5xe1rFf7hKC--13" edge="1">
          <mxGeometry relative="1" as="geometry">
            <mxPoint x="724.94" y="755.3399999999999" as="targetPoint" />
            <Array as="points">
              <mxPoint x="725" y="310" />
            </Array>
            <mxPoint x="580" y="339.3" as="sourcePoint" />
          </mxGeometry>
        </mxCell>
        <mxCell id="PyQvktIJ5xe1rFf7hKC--27" style="edgeStyle=orthogonalEdgeStyle;rounded=0;orthogonalLoop=1;jettySize=auto;html=1;exitX=1;exitY=0.5;exitDx=0;exitDy=0;entryX=0.408;entryY=-0.059;entryDx=0;entryDy=0;entryPerimeter=0;" parent="1" source="PyQvktIJ5xe1rFf7hKC--7" target="PyQvktIJ5xe1rFf7hKC--72" edge="1">
          <mxGeometry relative="1" as="geometry">
            <mxPoint x="700" y="750" as="targetPoint" />
            <Array as="points">
              <mxPoint x="700" y="410" />
              <mxPoint x="700" y="750" />
            </Array>
          </mxGeometry>
        </mxCell>
        <mxCell id="PyQvktIJ5xe1rFf7hKC--28" style="edgeStyle=orthogonalEdgeStyle;rounded=0;orthogonalLoop=1;jettySize=auto;html=1;exitX=1;exitY=0.5;exitDx=0;exitDy=0;entryX=0;entryY=0.5;entryDx=0;entryDy=0;" parent="1" source="PyQvktIJ5xe1rFf7hKC--9" target="PyQvktIJ5xe1rFf7hKC--72" edge="1">
          <mxGeometry relative="1" as="geometry">
            <Array as="points">
              <mxPoint x="328" y="799" />
              <mxPoint x="640" y="799" />
            </Array>
            <mxPoint x="664.4569575701553" y="799.0449376635379" as="targetPoint" />
          </mxGeometry>
        </mxCell>
        <mxCell id="PyQvktIJ5xe1rFf7hKC--29" style="edgeStyle=orthogonalEdgeStyle;rounded=0;orthogonalLoop=1;jettySize=auto;html=1;exitX=1;exitY=0.5;exitDx=0;exitDy=0;entryX=0.25;entryY=1;entryDx=0;entryDy=0;" parent="1" source="PyQvktIJ5xe1rFf7hKC--10" target="PyQvktIJ5xe1rFf7hKC--72" edge="1">
          <mxGeometry relative="1" as="geometry">
            <mxPoint x="680" y="870" as="targetPoint" />
          </mxGeometry>
        </mxCell>
        <mxCell id="PyQvktIJ5xe1rFf7hKC--30" style="edgeStyle=orthogonalEdgeStyle;rounded=0;orthogonalLoop=1;jettySize=auto;html=1;exitX=1;exitY=0.5;exitDx=0;exitDy=0;entryX=0.408;entryY=1.024;entryDx=0;entryDy=0;entryPerimeter=0;exitPerimeter=0;" parent="1" target="PyQvktIJ5xe1rFf7hKC--72" edge="1">
          <mxGeometry relative="1" as="geometry">
            <mxPoint x="561" y="986" as="sourcePoint" />
            <mxPoint x="699.5" y="823.9200000000001" as="targetPoint" />
            <Array as="points">
              <mxPoint x="561" y="998" />
              <mxPoint x="700" y="998" />
              <mxPoint x="700" y="842" />
            </Array>
          </mxGeometry>
        </mxCell>
        <mxCell id="PyQvktIJ5xe1rFf7hKC--31" style="edgeStyle=orthogonalEdgeStyle;rounded=0;orthogonalLoop=1;jettySize=auto;html=1;entryX=0;entryY=0.5;entryDx=0;entryDy=0;" parent="1" source="PyQvktIJ5xe1rFf7hKC--48" target="PyQvktIJ5xe1rFf7hKC--64" edge="1">
          <mxGeometry relative="1" as="geometry">
            <mxPoint x="350" y="650" as="sourcePoint" />
            <mxPoint x="660" y="490" as="targetPoint" />
            <Array as="points">
              <mxPoint x="440" y="625" />
            </Array>
          </mxGeometry>
        </mxCell>
        <mxCell id="PyQvktIJ5xe1rFf7hKC--32" style="edgeStyle=orthogonalEdgeStyle;rounded=0;orthogonalLoop=1;jettySize=auto;html=1;exitX=1;exitY=0.5;exitDx=0;exitDy=0;entryX=0;entryY=0.5;entryDx=0;entryDy=0;strokeWidth=3;strokeColor=#FF6600;" parent="1" target="PyQvktIJ5xe1rFf7hKC--70" edge="1">
          <mxGeometry relative="1" as="geometry">
            <mxPoint x="900" y="780" as="targetPoint" />
            <mxPoint x="800" y="785" as="sourcePoint" />
            <Array as="points">
              <mxPoint x="800" y="775" />
            </Array>
          </mxGeometry>
        </mxCell>
        <mxCell id="PyQvktIJ5xe1rFf7hKC--33" style="edgeStyle=orthogonalEdgeStyle;rounded=0;orthogonalLoop=1;jettySize=auto;html=1;entryX=0;entryY=0.5;entryDx=0;entryDy=0;strokeWidth=2;strokeColor=#009900;" parent="1" source="PyQvktIJ5xe1rFf7hKC--70" target="PyQvktIJ5xe1rFf7hKC--66" edge="1">
          <mxGeometry relative="1" as="geometry">
            <mxPoint x="1090" y="780" as="sourcePoint" />
            <mxPoint x="1199.9999999999854" y="780" as="targetPoint" />
            <Array as="points">
              <mxPoint x="1110" y="780" />
              <mxPoint x="1110" y="780" />
            </Array>
          </mxGeometry>
        </mxCell>
        <mxCell id="PyQvktIJ5xe1rFf7hKC--34" style="edgeStyle=orthogonalEdgeStyle;rounded=0;orthogonalLoop=1;jettySize=auto;html=1;exitX=0.5;exitY=0;exitDx=0;exitDy=0;entryX=0.5;entryY=1;entryDx=0;entryDy=0;strokeWidth=2;strokeColor=#0066CC;" parent="1" source="PyQvktIJ5xe1rFf7hKC--57" edge="1">
          <mxGeometry relative="1" as="geometry">
            <mxPoint x="1290" y="604" as="targetPoint" />
            <Array as="points" />
          </mxGeometry>
        </mxCell>
        <mxCell id="PyQvktIJ5xe1rFf7hKC--35" style="edgeStyle=orthogonalEdgeStyle;rounded=0;orthogonalLoop=1;jettySize=auto;html=1;exitX=0.25;exitY=1;exitDx=0;exitDy=0;entryX=0.5;entryY=0;entryDx=0;entryDy=0;" parent="1" source="PyQvktIJ5xe1rFf7hKC--18" target="PyQvktIJ5xe1rFf7hKC--19" edge="1">
          <mxGeometry relative="1" as="geometry" />
        </mxCell>
        <mxCell id="PyQvktIJ5xe1rFf7hKC--36" style="edgeStyle=orthogonalEdgeStyle;rounded=0;orthogonalLoop=1;jettySize=auto;html=1;exitX=0.75;exitY=1;exitDx=0;exitDy=0;entryX=0.5;entryY=0;entryDx=0;entryDy=0;" parent="1" source="PyQvktIJ5xe1rFf7hKC--18" target="PyQvktIJ5xe1rFf7hKC--20" edge="1">
          <mxGeometry relative="1" as="geometry" />
        </mxCell>
        <mxCell id="PyQvktIJ5xe1rFf7hKC--37" style="edgeStyle=orthogonalEdgeStyle;rounded=0;orthogonalLoop=1;jettySize=auto;html=1;exitX=0.5;exitY=1;exitDx=0;exitDy=0;entryX=0.5;entryY=0;entryDx=0;entryDy=0;" parent="1" source="PyQvktIJ5xe1rFf7hKC--18" target="PyQvktIJ5xe1rFf7hKC--21" edge="1">
          <mxGeometry relative="1" as="geometry" />
        </mxCell>
        <mxCell id="PyQvktIJ5xe1rFf7hKC--38" style="edgeStyle=orthogonalEdgeStyle;rounded=0;orthogonalLoop=1;jettySize=auto;html=1;exitX=0.5;exitY=1;exitDx=0;exitDy=0;" parent="1" source="PyQvktIJ5xe1rFf7hKC--21" edge="1">
          <mxGeometry relative="1" as="geometry">
            <mxPoint x="1290" y="500" as="targetPoint" />
          </mxGeometry>
        </mxCell>
        <mxCell id="PyQvktIJ5xe1rFf7hKC--39" value="Technical Metadata" style="text;html=1;strokeColor=none;fillColor=none;align=center;verticalAlign=middle;whiteSpace=wrap;rounded=0;fontSize=12;" parent="1" vertex="1">
          <mxGeometry x="350" y="200" width="80" height="20" as="geometry" />
        </mxCell>
        <mxCell id="PyQvktIJ5xe1rFf7hKC--40" value="Business Metadata" style="text;html=1;strokeColor=none;fillColor=none;align=center;verticalAlign=middle;whiteSpace=wrap;rounded=0;fontSize=12;" parent="1" vertex="1">
          <mxGeometry x="360" y="280" width="80" height="30" as="geometry" />
        </mxCell>
        <mxCell id="PyQvktIJ5xe1rFf7hKC--41" value="PySpark Processing" style="text;html=1;strokeColor=none;fillColor=none;align=center;verticalAlign=middle;whiteSpace=wrap;rounded=0;fontSize=12;fontStyle=1;color=#FF6600;" parent="1" vertex="1">
          <mxGeometry x="810" y="730" width="80" height="40" as="geometry" />
        </mxCell>
        <mxCell id="PyQvktIJ5xe1rFf7hKC--42" value="Indexing" style="text;html=1;strokeColor=none;fillColor=none;align=center;verticalAlign=middle;whiteSpace=wrap;rounded=0;fontSize=12;fontStyle=1;color=#009900;" parent="1" vertex="1">
          <mxGeometry x="1120" y="750" width="60" height="30" as="geometry" />
        </mxCell>
        <mxCell id="PyQvktIJ5xe1rFf7hKC--43" value="" style="image;sketch=0;aspect=fixed;html=1;points=[];align=center;fontSize=12;image=img/lib/mscae/SQL_Servers.svg;" parent="1" vertex="1">
          <mxGeometry x="230" y="1120" width="50" height="50" as="geometry" />
        </mxCell>
        <mxCell id="PyQvktIJ5xe1rFf7hKC--44" value="" style="sketch=0;outlineConnect=0;fontColor=#232F3E;gradientColor=none;fillColor=#C925D1;strokeColor=none;dashed=0;verticalLabelPosition=bottom;verticalAlign=top;align=center;html=1;fontSize=12;fontStyle=0;aspect=fixed;pointerEvents=1;shape=mxgraph.aws4.rds_oracle_instance;" parent="1" vertex="1">
          <mxGeometry x="230" y="1190" width="39" height="39" as="geometry" />
        </mxCell>
        <mxCell id="PyQvktIJ5xe1rFf7hKC--45" value="&lt;font style=&quot;font-size: 26px; color: rgb(255, 255, 255);&quot;&gt;&lt;b&gt;t&lt;/b&gt;&lt;/font&gt;" style="rounded=0;whiteSpace=wrap;html=1;fillColor=#FF9933;" parent="1" vertex="1">
          <mxGeometry x="232" y="1260" width="35" height="35" as="geometry" />
        </mxCell>
        <mxCell id="PyQvktIJ5xe1rFf7hKC--46" value="" style="points=[];aspect=fixed;html=1;align=center;shadow=0;dashed=0;fillColor=#FF6A00;strokeColor=none;shape=mxgraph.alibaba_cloud.kafka;" parent="1" vertex="1">
          <mxGeometry x="205" y="945.34" width="90" height="66.66" as="geometry" />
        </mxCell>
        <mxCell id="PyQvktIJ5xe1rFf7hKC--47" value="&lt;font style=&quot;font-size: 16px;&quot;&gt;Kafka&lt;/font&gt;&lt;div&gt;&lt;font style=&quot;font-size: 16px;&quot;&gt;Tier0 &amp;amp; Tier 1&lt;/font&gt;&lt;/div&gt;" style="text;html=1;align=center;verticalAlign=middle;whiteSpace=wrap;rounded=0;" parent="1" vertex="1">
          <mxGeometry x="196.5" y="1014" width="107" height="30" as="geometry" />
        </mxCell>
        <mxCell id="PyQvktIJ5xe1rFf7hKC--48" value="" style="sketch=0;pointerEvents=1;shadow=0;dashed=0;html=1;strokeColor=none;fillColor=#AFB586;labelPosition=center;verticalLabelPosition=bottom;verticalAlign=top;outlineConnect=0;align=center;shape=mxgraph.office.concepts.settings_office_365;" parent="1" vertex="1">
          <mxGeometry x="215" y="595" width="65" height="60" as="geometry" />
        </mxCell>
        <mxCell id="PyQvktIJ5xe1rFf7hKC--49" value="&lt;font style=&quot;font-size: 15px;&quot;&gt;&lt;span style=&quot;color: rgb(0, 0, 0); font-family: Helvetica; font-style: normal; font-variant-ligatures: normal; font-variant-caps: normal; font-weight: 400; letter-spacing: normal; orphans: 2; text-align: center; text-indent: 0px; text-transform: none; widows: 2; word-spacing: 0px; -webkit-text-stroke-width: 0px; white-space: normal; background-color: rgb(236, 236, 236); text-decoration-thickness: initial; text-decoration-style: initial; text-decoration-color: initial; float: none; display: inline !important;&quot;&gt;Autosys Job Details&lt;/span&gt;&lt;br style=&quot;forced-color-adjust: none; color: rgb(0, 0, 0); font-family: Helvetica; font-style: normal; font-variant-ligatures: normal; font-variant-caps: normal; font-weight: 400; letter-spacing: normal; orphans: 2; text-align: center; text-indent: 0px; text-transform: none; widows: 2; word-spacing: 0px; -webkit-text-stroke-width: 0px; white-space: normal; background-color: rgb(236, 236, 236); text-decoration-thickness: initial; text-decoration-style: initial; text-decoration-color: initial;&quot;&gt;&lt;span style=&quot;color: rgb(0, 0, 0); font-family: Helvetica; font-style: normal; font-variant-ligatures: normal; font-variant-caps: normal; font-weight: 400; letter-spacing: normal; orphans: 2; text-align: center; text-indent: 0px; text-transform: none; widows: 2; word-spacing: 0px; -webkit-text-stroke-width: 0px; white-space: normal; background-color: rgb(236, 236, 236); text-decoration-thickness: initial; text-decoration-style: initial; text-decoration-color: initial; float: none; display: inline !important;&quot;&gt;(SLA Metrics)&lt;/span&gt;&lt;/font&gt;" style="text;html=1;align=center;verticalAlign=middle;whiteSpace=wrap;rounded=0;" parent="1" vertex="1">
          <mxGeometry x="165" y="660" width="170" height="30" as="geometry" />
        </mxCell>
        <mxCell id="PyQvktIJ5xe1rFf7hKC--50" value="" style="edgeStyle=orthogonalEdgeStyle;rounded=0;orthogonalLoop=1;jettySize=auto;html=1;entryX=0.5;entryY=0;entryDx=0;entryDy=0;" parent="1" source="PyQvktIJ5xe1rFf7hKC--51" target="PyQvktIJ5xe1rFf7hKC--64" edge="1">
          <mxGeometry relative="1" as="geometry">
            <mxPoint x="680" y="610" as="targetPoint" />
          </mxGeometry>
        </mxCell>
        <mxCell id="PyQvktIJ5xe1rFf7hKC--51" value="Ingestion jobs Matrix" style="rounded=1;whiteSpace=wrap;html=1;fillColor=#AFB586;strokeColor=#36393d;" parent="1" vertex="1">
          <mxGeometry x="190" y="480" width="140" height="60" as="geometry" />
        </mxCell>
        <mxCell id="PyQvktIJ5xe1rFf7hKC--52" value="" style="edgeStyle=orthogonalEdgeStyle;rounded=0;orthogonalLoop=1;jettySize=auto;html=1;exitX=1;exitY=0.5;exitDx=0;exitDy=0;entryX=0.597;entryY=1.024;entryDx=0;entryDy=0;entryPerimeter=0;" parent="1" source="PyQvktIJ5xe1rFf7hKC--8" target="PyQvktIJ5xe1rFf7hKC--72" edge="1">
          <mxGeometry relative="1" as="geometry">
            <mxPoint x="295" y="1220" as="sourcePoint" />
            <mxPoint x="730" y="850" as="targetPoint" />
            <Array as="points">
              <mxPoint x="730" y="1220" />
            </Array>
          </mxGeometry>
        </mxCell>
        <mxCell id="PyQvktIJ5xe1rFf7hKC--53" value="&lt;font style=&quot;font-size: 15px;&quot;&gt;DCM Connectors&lt;/font&gt;" style="edgeLabel;html=1;align=center;verticalAlign=middle;resizable=0;points=[];" parent="PyQvktIJ5xe1rFf7hKC--52" vertex="1" connectable="0">
          <mxGeometry x="-0.5919" relative="1" as="geometry">
            <mxPoint as="offset" />
          </mxGeometry>
        </mxCell>
        <mxCell id="PyQvktIJ5xe1rFf7hKC--55" value="" style="rounded=0;whiteSpace=wrap;html=1;fillColor=none;fontColor=#ffffff;strokeColor=#3700CC;dashed=1;dashPattern=8 8;" parent="1" vertex="1">
          <mxGeometry x="132" y="740" width="251" height="190" as="geometry" />
        </mxCell>
        <mxCell id="PyQvktIJ5xe1rFf7hKC--56" value="" style="edgeStyle=orthogonalEdgeStyle;rounded=0;orthogonalLoop=1;jettySize=auto;html=1;entryX=0.5;entryY=1;entryDx=0;entryDy=0;strokeWidth=2;strokeColor=#0066CC;exitX=0.5;exitY=0;exitDx=0;exitDy=0;" parent="1" source="PyQvktIJ5xe1rFf7hKC--66" target="PyQvktIJ5xe1rFf7hKC--57" edge="1">
          <mxGeometry relative="1" as="geometry">
            <mxPoint x="1290" y="760" as="sourcePoint" />
            <mxPoint x="1290" y="640" as="targetPoint" />
            <Array as="points" />
          </mxGeometry>
        </mxCell>
        <mxCell id="PyQvktIJ5xe1rFf7hKC--57" value="Search and Query" style="text;html=1;strokeColor=none;fillColor=none;align=center;verticalAlign=middle;whiteSpace=wrap;rounded=0;fontSize=12;fontStyle=1;color=#0066CC;" parent="1" vertex="1">
          <mxGeometry x="1240" y="675" width="100" height="20" as="geometry" />
        </mxCell>
        <mxCell id="PyQvktIJ5xe1rFf7hKC--58" value="&lt;font style=&quot;font-size: 24px;&quot;&gt;SDP&lt;/font&gt;" style="text;html=1;align=center;verticalAlign=middle;whiteSpace=wrap;rounded=0;" parent="1" vertex="1">
          <mxGeometry x="397" y="530" width="60" height="30" as="geometry" />
        </mxCell>
        <object label="" id="PyQvktIJ5xe1rFf7hKC--59">
          <mxCell style="sketch=0;pointerEvents=1;shadow=0;dashed=0;html=1;strokeColor=none;fillColor=#434445;aspect=fixed;labelPosition=center;verticalLabelPosition=bottom;verticalAlign=top;align=center;outlineConnect=0;shape=mxgraph.vvd.laptop;fontColor=default;" parent="1" vertex="1">
            <mxGeometry x="1214" y="497" width="152.78" height="110" as="geometry" />
          </mxCell>
        </object>
        <mxCell id="PyQvktIJ5xe1rFf7hKC--60" value="&lt;font style=&quot;font-size: 16px;&quot;&gt;&lt;span style=&quot;color: rgb(0, 0, 0); font-family: Helvetica; font-style: normal; font-variant-ligatures: normal; font-variant-caps: normal; font-weight: 700; letter-spacing: normal; orphans: 2; text-align: center; text-indent: 0px; text-transform: none; widows: 2; word-spacing: 0px; -webkit-text-stroke-width: 0px; white-space: normal; background-color: rgb(236, 236, 236); text-decoration-thickness: initial; text-decoration-style: initial; text-decoration-color: initial; float: none; display: inline !important;&quot;&gt;Search Interface&lt;/span&gt;&lt;br style=&quot;forced-color-adjust: none; color: rgb(0, 0, 0); font-family: Helvetica; font-style: normal; font-variant-ligatures: normal; font-variant-caps: normal; font-weight: 700; letter-spacing: normal; orphans: 2; text-align: center; text-indent: 0px; text-transform: none; widows: 2; word-spacing: 0px; -webkit-text-stroke-width: 0px; white-space: normal; background-color: rgb(236, 236, 236); text-decoration-thickness: initial; text-decoration-style: initial; text-decoration-color: initial;&quot;&gt;&lt;span style=&quot;color: rgb(0, 0, 0); font-family: Helvetica; font-style: normal; font-variant-ligatures: normal; font-variant-caps: normal; font-weight: 700; letter-spacing: normal; orphans: 2; text-align: center; text-indent: 0px; text-transform: none; widows: 2; word-spacing: 0px; -webkit-text-stroke-width: 0px; white-space: normal; background-color: rgb(236, 236, 236); text-decoration-thickness: initial; text-decoration-style: initial; text-decoration-color: initial; float: none; display: inline !important;&quot;&gt;(Metadata Search)&lt;/span&gt;&lt;/font&gt;" style="text;html=1;align=center;verticalAlign=middle;whiteSpace=wrap;rounded=0;" parent="1" vertex="1">
          <mxGeometry x="1234" y="532" width="120" height="30" as="geometry" />
        </mxCell>
        <mxCell id="PyQvktIJ5xe1rFf7hKC--62" value="EEH MS SQL DB" style="strokeWidth=2;html=1;shape=mxgraph.flowchart.database;whiteSpace=wrap;fillColor=#ffcc99;strokeColor=#36393d;" parent="1" vertex="1">
          <mxGeometry x="470" y="930" width="90" height="110" as="geometry" />
        </mxCell>
        <mxCell id="PyQvktIJ5xe1rFf7hKC--63" style="edgeStyle=orthogonalEdgeStyle;rounded=0;orthogonalLoop=1;jettySize=auto;html=1;exitX=1;exitY=0.5;exitDx=0;exitDy=0;entryX=0;entryY=0;entryDx=0;entryDy=0;" parent="1" source="PyQvktIJ5xe1rFf7hKC--64" edge="1">
          <mxGeometry relative="1" as="geometry">
            <mxPoint x="680.5025253169415" y="756.7157287525379" as="targetPoint" />
          </mxGeometry>
        </mxCell>
        <mxCell id="PyQvktIJ5xe1rFf7hKC--64" value="Ingestion Job SLA Matrics" style="rounded=1;whiteSpace=wrap;html=1;fillColor=#AFB586;strokeColor=#82b366;" parent="1" vertex="1">
          <mxGeometry x="440" y="595" width="120" height="60" as="geometry" />
        </mxCell>
        <mxCell id="PyQvktIJ5xe1rFf7hKC--66" value="" style="shape=image;verticalLabelPosition=bottom;labelBackgroundColor=default;verticalAlign=top;aspect=fixed;imageAspect=0;image=data:image/png,iVBORw0KGgoAAAANSUhEUgAAAOEAAADhCAMAAAAJbSJIAAAAyVBMVEX///80N0EAv7P+xRQfIzDKy83+wwD+3oqF2tP+wQAAu67+xAAwMz4dIS/+13QnKzb/9uD//vkkKDSP3Nb+zkj+2Xz/89f/+erQ0dMYHSsnKjZSzMP3/f2s5eD/+vD/5Kb+0l7+yCP/8Mz+zD7/57H+35H/5KT+0FX+yS/+1WyjpKdQU1rAwMPd3d9DRU6ur7KbnJ9maG7o+ffP8O00xrxw1My86ub/68D+4Zru7u8AABqPkJXm5udeYGcJESN0dnuAgoba9PJh0Mc41tGxAAAGeUlEQVR4nO2baVPiTBCAheBADsKNRA45ArIeu4rh8HVXxf//o94EEBCUo3uS6aHm+UgVVXmqZ7p7epKzswjINcrjq2Sp2en3W5qmtVr9YtMuJSfuuNzIRfEAYdJo9+yOpjMf09RWmKYZ/KbrZv/XZJwV/ZhALtxSa+am7cQMRPu2K5nmhWu39rqt42tqzZ4sluVuRz/GbhVN3bTdhujH30e5q4H0lrFkxSvCktluX4fbLUPJrl2SOTbndvB6S0m7Ldpnk6x9VGbZC9P7PUqBHBd5he+LZIlKcu21dHP/A4Mcm2XRcv7265n8w7fE1IuCN2QuGaYfAccu1+zyo+O1qLV6FXb8Vo62iC5g3IrIL4CxSdR+2aIend/MsRXpUs3ZIdWHXeil6ATdKBLMNsyMKKteRL1AV0QTxomABbqEaaHvxmxHyAJdoYecVHsiAziHXYd45mhcCw7gjBBXajuqHmYfzA1HsCsshW4RSk7NFYkEcAZrchdsm8JTzBdYh3O+uaKzQheYrQuegjY5weDug+MUh0SR2IabYqNPU9DfjHwKY5ZYjlmHi2KZagBncFBsE8wx6zDsXmyTjmCAiSsa1CPoY2qY0j+mL+grdk46ggHsGipYlkPQV0zCBLPkk8wS2GSjoUlkCJoy9ul2MpvoPYgg0Wb7OxjowF+SSPAXRNCVJY1CBWl321+ACeYkSjI2RPCsKU0IdVit78kjCJsMZ2XJMib0OpHsVGYDpgFPhklZBIvAc6EsaxSYRH1EX4Aehgm/fZIjj7IieDjTkEGQmYjrQ5u+IWNdxOiJ/NzCZOYEdatWJN2QmowVkdfbhIeHJtNZ00XfGPYZTXTWavZ4vPB1UUqSozu5csdZwp+YKBQKhUKhUCgUCoVCoVAojuGcDJX75zAEK/8lyOCkY48397wNXzIxSliXTuyFr+StJVpqi4xze85P8NkR7fMdlvP4l5fheUK0zfdYzgMnwwda23CNxC2fzPqP3jb8xHIqPAxFa+zEucMLPqdFW+zk9Q/asEI00XzioMvGn7xohz042KrxcilaYQ9WDGn4RjeVLsi84QwJ9mybIBMq2Xq/hoUyfBX9+AeQx/RvNPvuDawMwvCedsFfkEfU/YoUhtZvuCHVs9MGDvzQf0e9pZmTeQEbkm/a5iCW6Y0chrE0+DB8Q70tXZAAHzEeJDGE1wu6U5qvwFONLDHMvJ+6ofXv5A3B5UIaw1uwoSSZxno8dcPTzzQZ8CH4RpIYJsCzGln6UvjUVJKzRQw+NJXlfAifmd7JccaHb0PyFzML8mBBSWZtl/AhxtlfGealsTTi/kmKiTDubkaGqT58SBMgQU+Tv8EISnC7hhl4B9C/IcVec79TX6boF06ot95p9LtfxNu29DtW8OyedEF0EM3MJ8+UY/iKqxMLRFv8TMbi8xrtI9FyYTlvnF5rpzmLshK/ub0HTTGZZpxbDq9dfkLt/GRdpvPvXN6cXZJIi/7KYkXwvcUDXz2fiugvZVaE9M2MQqFQKBQKhUKhUCgUCoWCFoNhihyFQr0+mtZ4KXoGVeIfhScehk9GnCy+ZrWOj2VVtMduAkmk4ZRwEOcY8QIukEPyiljHGn3DwBGzVusyKMYNbwBX9EQ//WEYI7DhQIog+opDsGJBFsUqOOFIsk59oJtRlnXqA+3k5MinAQa0bHzIo5gCKop+8MOBplSJtqLxAVOUZyuCFVOnr1iVSBG4F+Up/NCiURP93EdgwEr/QPRzH45RABlKMNNYAK77pGdvaxhVqKAsighBORQ9jKAUitgxMXlFxExqwVS0wm7wgsTrIg9Bv7vxyK5UPoJndNtwbveKNO8zDI+jIMUjMaaT+ZYn0UYbIGbeP0Er30BPE7shNNlAXMzsZCRabMk0HEF/pZIoG4g7mQMgcDMVzhZcMRCccAzwdczhCA2j8RHmCv1kKjCMIeXQLepxIY7hppiv1AQ0qkZkAZwT+VI1htEFcEGkS9XwQivyuyhE5Rj1Al1Ri8TRCLvGC3ZEv41I3NGPn2C/GaHlHPHxWzKqGvwlcW9ZcmeQ4htIw/gIv8U+Fo6B9MPHbRTKlUHB4yBpxFP0wrdi6qdWhKT/3yFlvTnTOmy5GobhFYQ0ZwBqo+FxoQzsUiMqpeFABvVh8JnRIXLBRz+S2S2Z1lNefP7p0rZY8KuXqksrt6Q2eBrVC6lh1Vu8Z+V51WGqUB89DcJ3+x99fj2nyd9qDAAAAABJRU5ErkJggg==;" parent="1" vertex="1">
          <mxGeometry x="1245.39" y="735" width="90" height="90" as="geometry" />
        </mxCell>
        <mxCell id="PyQvktIJ5xe1rFf7hKC--69" value="&lt;span style=&quot;font-weight: 700;&quot;&gt;Elasticsearch&lt;/span&gt;&lt;br style=&quot;font-weight: 700;&quot;&gt;&lt;span style=&quot;font-weight: 700;&quot;&gt;(Indexed Metadata)&lt;/span&gt;" style="text;html=1;align=center;verticalAlign=middle;whiteSpace=wrap;rounded=0;" parent="1" vertex="1">
          <mxGeometry x="1245" y="820" width="90" height="75" as="geometry" />
        </mxCell>
        <mxCell id="PyQvktIJ5xe1rFf7hKC--70" value="" style="shape=image;verticalLabelPosition=bottom;labelBackgroundColor=default;verticalAlign=top;aspect=fixed;imageAspect=0;image=data:image/jpeg,/9j/4AAQSkZJRgABAQAAAQABAAD/2wBDAAMCAgMCAgMDAwMEAwMEBQgFBQQEBQoHBwYIDAoMDAsKCwsNDhIQDQ4RDgsLEBYQERMUFRUVDA8XGBYUGBIUFRT/2wBDAQMEBAUEBQkFBQkUDQsNFBQUFBQUFBQUFBQUFBQUFBQUFBQUFBQUFBQUFBQUFBQUFBQUFBQUFBQUFBQUFBQUFBT/wgARCALQApcDASIAAhEBAxEB/8QAHQABAQADAQEBAQEAAAAAAAAAAAECBwgGBQQDCf/EABsBAQEAAwEBAQAAAAAAAAAAAAABAwQFAgYH/9oADAMBAAIQAxAAAAHqkAAAAhURUFQVKBQBBURUFQUUAAAEBQAABEVBUFQUUSgAAAAhURUFQVLQAAAAAE8n+fmjQ7/t/K4+2531PhmwF86+bAGvmwFngPv/AHPHrvTYvE+/t357bWpts6e2OXpefO2HyPvfGzYb3qa8mw1a7/t778CfW31xVtzY5XQQ6nyQE/l/XT2LY159HV05P3vcl1vsjr/AUZMMPEeMn6tGa+/TzPs/7/x97+nxm1zNjytczYxNc+l9Dtj3p+3546M5o2uL5zrnjbsrzsBu8EACeA/By3p9z3vlP6bA1e9rebRl86vm0VmrptEfL6p8n63c+Wo2NEAAACY5eTx5OeXl+lOP977T6R2vz+j1AAH8P7o5m8H1tx9yPuuy9Yfo/NtcDQnWfJHW+Hr+tHU+NAA511vsPXPG+87Tyxy6/wAGHp8rjzZWpeX9l7j5/SvzPWpzj2Hw1vhn3sOl8j/Pj7pXj3Q+m9J1rr3bWTSo2+MAABOZ+mOZNbreN7N4v7Q8bFG5wQJ+b9Ws8eXmn7fiOvND6/2X766PxYUAAFAAAAATWGz9X4N3nHsnjLs3T+h+sOn8iAAABjxp2XxjofR7O+38H7nj3oDrrkDr6bP7dF9K6cz8bxbVOOp9Ttj5/if1TH8jc+O/s/M/QOj8vPH+u5H1+j4zc2k94aP1HQbRbe+W8nrfpzl/S+k7N+/yz1NvfM6n5i6c5f1Pou1vR+c9HvfJ0ZMYAAE5i6e5e1+p4vtTijtfxsUbfDAaJ3rojBvc6eu8b7nT+twn6pdb88/TE/M/TLPz+u8z0V61Pf5G980FAAAATyPrsfGThvpzQrl/b9iPm/S6vwtHqAAD+MfG4x2TrrmfZ9Efl2pqrY4nPXYPHXYmLqexHR+T0jz13lofQ+j870twZuJl6WYZ73y6X8BrXmD6/wBfm/a+QncNyaPDv1+yv0evF0nvv82xxODeuOZP06X1PUXGnevF+XQ37tziLsfJo/XGzygAAJy51Hy1r9PxPbfEPb0z0bPFAmsdn/l8ZP8AP7sbk772p9T2vfnfR3fkgAAoAAAAAADwfKXdHi9Ttcs7A+V4vU+g2g1TL52vNUw2u1RE2p4j4np18b0b9baWxxmkt26Vzc7nHsfkDsHX7XsBv/LpRzzojvvnLR+jdG8Gb3vjfvPG5uMPWD8PYWmeoplo3OCABqzkz/QXkXT+g2N7PlXtW4OFv39bc7Y+n9z9Wof5T3uJpxZuOacG4/Rc9dX+tLaXLHVHLubn6k2xqCa/0O4Gnlw7gaeG4ehOYev83G1TyN/ohrV75U2P5zxOLr7gmnF8bjacG4mnck6X3l4X3Wx87RkwAAAAAAMckYM0uDMYMxjkWBSVGGVAUAlGDN5smSyUAoABjkjDKgKxZPLFkXFkTDMpjkMGaXBmTBmMcigpjkjBmjFkMWSgoAAAAAAAAAAAAAAAAAAAAAAAAAAAAAAAAAAAAAAAAAAAAAAAAAAAAAAAAAAYRm+V8LHm9i1p8jHtbiaH+X42OjZzH+Hzn6qcjfm85OwXGn8GTtFxXJ67VcU1O1bxV/W+e0XG/wDe4+wbyX+71j6mnNX1PWDoJpT7HvX2m8P93JrfbYZ+8IUAAAAAAAAAAAAAAAAAAAABH4fE4s+xGg/Fa3X6k8rzD/PB1N7+Z1awdH1nwPwse9ZEz2SGUkSyKshLIsskMpisrEWJZZCVjDKSWVIn7fQ+RnrDtb1XPz3o9X+u4hyzc/u1xx7jNzej7q73+fmfSGTAAAAAAAAAAAAAABE8Xjy+1+doHXml9BvvXHhZp/Qfo/hixdOyFIsskMpJZZBZCWRZZIZTFZZBZFlkFkiZTFZYiVJVYxMpImUkqpErFVkiZf1/hL599s/nKZOf3B9jgzZGxxOqmu9g7PE/oPeMAAAAAAAACHyfPr63htTa45/1HsvHYzR+pykecxFhIZSSyyCyEsiyyQymKyyCxLLELJEymKyxEsSqxJZIlSVUiWRZZIZSSypCoQkqsYmUix7HxsuLrHZfAextj57rd5/0G389R6gAAAAAEPG+Mk5t/H+Xjff2Ri6tkhlJLKxFkJZFWSJlMVlkFiWWIWSWZTEliJUlViSyRMpJVSJWKrJEykllSFSJUlVjEykWEhUiVJVYksivp9T8if2987vxrfZG/wDHUesYAAAAH4uSNy8/8r7LKYtT6WyCyEsiyyQymKyyCyEsirJEymKyyEsSqxiZSSypCpErFZZIZSSypCpEqSqxiZSSypCpEqSrISyKskTKYksirIT6nbnB3QuXidBje+XAAAAA5v1dtfU/E/RLIx9GyQymKyyCyLLISyQymKyxEqSqxJZJZlJCpErFZZIZSSypCpEqSspjEykllSGUkSsVViSyKskTKYksiyyCyLLJEykhdm6w2r71Otxv/EgAAAAaz5n7W5d5X1fipGt9TZCWRVkiZTFZZCVJVYxMpImUkqsSVisskMpJZUhUiVJWUxiZSSypCpErFVYkskrKSJlMSWRZZBZFlkiZSQymKyyCySzLqDRvaGThfvG586AAAABrr1mkdn8/uc5eb7U5mxdnwkkwdyxEqSqxiZSRKkqpEsiyyQykllSFSJUlZTGJlIokTKSJWKqxiZSKskTKYksirISyLLJEykhlMVlkFkWWSJlJC/e+71p75X8vN+g559cvrAbfKAAAAA518P7fWvA/SerfScedB9D5Xzuh+3fme8fEs3fp3T+o/FJPO3UiViqyRMpJZUhUISVWMTKSWVIZSRKxVZImUirJEymJLIssgsiyyRMpIZTFZZBZJZlJEqQqSyv2bqutpboLcv3M3B/j8b4XLcn6PQa62Hq/S9djp/CgAAAAc5612TrTg/pVuMx9HaO8uO/1bPz3Z/4dM7e6PyesNRdhPOxwZOztXa/b0C9p43D1MEMpJVYxMpFhIVIlSVZCWRVkiViSyKshLIsshLJCsVlkFkWWSJUhYllmfs2PxLojbPvncn7o3vcvI+X9T52mLr7o0FqL5et9H/X+UmHtZbD11sT1q9ejp/BgAAAAc46z2XrLhfpFSYujUWP7/njzs/avLTY43bf9ON9i7fA6D+X5L2+xyNc+C6Ok2OOfJd5/mxdDgx2V5DHvcxt4+Z8bes56f4Hna/PIvskMpiSyKshLIsshLJCsVlkFkWWSJX6PQMflmz/U+tbQ06n9j61eLvXdo/r96fL+wtvPej8f7H8fEetf32HPGrsXS6h0/pqa/a/d+GTH06kvqpEuxNc7F9avYA6XwgAAAAHN+stmax4f6PlMWPoWQWQlkWWSGX6PyL5977bRbJzuqPXcUZ5+X3HeN/U5uf0+0P6PLo7V/n5D7/vV/n8L2Wd86x+TuRM2h/ndEvOXmb8nUsnvk/8Ah1we+Q8Ovy8f3r8cjf160PPK37OnLfPOX79/Lj0r9jaUuLxH3ftY3FM/n+fj2M1V5jzs78cs+S8bnYvkORP4497onwOtJj6H0fnR43bIvqyRMpiSyKshLsXXGxvWr2EOj8MAAAABzbrHZesuH+jWR46FkiZSSyxCxEqSqxiZSSypCpLKkef2fX83Li959PWE9YNxfR0ZPWDoH9XOb1i6V/Vy+uPqO8tLOpZy1E6i/NzMt6Q/LzxJ73z87Szz72t8rXqZvVfF+cmbLGR7qS2sSWRVkJZIlYqshLISyKshLsbW+xvWr2KOh8QAAAABzzqLqPlnj/dZSTD2qkSpKrElklVIlRYSJWMMpFhIlSVUiViLIsshLIqyRLILIsshLJKykiVJVkJZIZSSypEqRKxVZCWSWZSQqSy7c1D1l6523RvfIgAAAAfn5p3V6XS6fEz2nidD7qsYy5SEISySzKSFkWWQlkhlJLKxFkWWQWJZWMTKYixLLILIsskTKSVUiVjDKSWVIlSJUlViSsYZSLCRKkqyEsnsbj+l2P8AN+Fn+U9sNjQAAAAA5+3BpfzPH+x6j536B+l0PnOFJ1Jz3ofX+fkmPpZTFZZBZCWRZZIZSSyxCpLKxiZSQqSypCyEskrKSJUllYiySzKSJUBJZUiViLIsshLJKymJLIqyEr7vSl0tTdT/AEPy7PzX5ucvjXV7fXQ3/mQAAAAOdNbbJ1pwP0v0nSHJX68mt2X/AA1Vtjq/Dai0n2b/ADx73CU6s1FqfQ6wn6Py4+nlJKqQqRKkqyRMpJZUhUiViqyRKirJErFZZCWQWRZZIlSFYrLISySspIlYiyLLH9k/jNpbn9aHM++N5/3zcX8f68NTe9LYPLHmflaX1V2HrrYfnd68HT+CAAAAA5y1psrWnB/SbJMfRvpfMy4elNicT/f3fmuvLpzZ+781/TW+13vxy7rzuX+eDq8FuxfB4enzrNpeKx9H4K4TPUhUlViSyKskTKSJZFWQliWWQWSJlJLLELEsskKkSpbI+57dg1W6Q2J70eOtkdaf2yc/S20vr3LzZfm6pl3Nrvnfx2t3fceHk1+9UlyXYmutietXr4dL4MAAAADnDWey9ZcL9IqTH0KkLIsv9f4HnYWyOdGbl9l/W4g9VtcXrVoX22xyNi4/O+ll0Pl+S2FJk0n5jpSeNvkfzvbTxtcE/j7++d52OEXafyfOfkGdWfMmTmadF/jmTQE3t+VdJzc8XTM3MNMN2fpvnRLf/wCu+edHTf0ri5RnYX2Li4k/v3b9T1h4Z9H2U9a/LfrN8PWtrT2H3J61pX4PWP8Ae154LHt9AfO5P8Rh6XUOrdUzD1v2fkk8dGpKqQsiy7E1zsX1q9gjo/CgAAAAc3ay2ZrHh/o1kY+hZBZFlkhlMVlkFkWZ/f8AORi2h6vQky6HUfo+OGXQ7j/Rwz9fJp9oTkv7OTV6cnPf1PWDeF0/9H1g2fNe/u9Y/avI/ovj0zz2afefBxPQPM/nX1zxf4p72A1j86e9vtHfJ85uh3MHxfOfrn+HF3xPOx2j5fk2eNronyWo5j3PWeY/i87lkMhJVSJWJLIssgsiy7F1xsa6vYY6Pw4AAAAHNesdq6p4n6JZJj6OUxWWQWIlSVWMTKSWWIlSVWMTKSJlJKqRKxVZImUksqRKhCSqxhlIokTKSJUlViSyKskTKYksirISyLLISyQykll2Nrfal1euR0PiQAAAANW82dtcocv6zycTV+nqSqxiZSSypCpLKkSsYZSSypEqSqxJZFWQhCWSVlMSWRVkJZImUkqsSWRVkiZSRKkqyEsRKxVZImUksqQqSysYZdN6I7cycP8AcNz5wAAAADzX9dU7l0unyD8TszmHX+l8jJMHZqEJLMpiLIsJEykhUllYiyLCEsirJEymIsiyyEsirJEsSrESyRMpJVSJUiVJVYkskTKSVUllYiyEsiy/U+v1x65v8v2/d54ycLo8bOiAAAABzt+T9OtuF+idnTnPobp/GaV0j3J8Lxu8XTb2p9T6f+Mjzs2QlkllYiyLLILEsskTKYixLLILISySypCpLKxFkllSJUiVJVSJZBZFhIlSVWJLIqyEs/pt1g1Jvbdfqs/B/H+r+XOHrSy83rvYel9V10On8UAAAABznrXZWtOB+lX7/nnjd6k9nxTsvofIdF/H/N6He+b0TqPtLDB1ODnXer9ft6Tej83i6hJfdSJZIVJZUhYiWSVlJEqSypCyLLIQgJLKkSpCyLLISySspIlkVZCWPRPHnZvTbPvn8pbj6L/pl5PnvQviZOd9vyemNNa/a9h4qTV+muw9dbE9YevR0/ggAAAAOctZ7K1nwv0myMXQsSv67G1pPWr1P7TiP0O585160fsjc4Hp/O+iuTU034PqC4uhxL57vn5WLocMut/I493nVt/zHjc8NPq/Lmzii0kMpiSyKshLIsskSpCsVlkFklmUkSn03n5c9z6q6+nJ0j7D3qcf/e7X+170+Sth7ze9HyXq8pk0sp5vV3jY3p4/mHyGv2Nyak/LMHcsRsWQl2JrnYvrV6/HS+EAAAAA5v1nszWPD/R6xYuhZFEiVJVSJ9732onvS6Y9rxjdjkdx5ccevz8zphpP1ebn7BnxvrZNPL8P0JZ5T4ex3nLp75G+HnPzl83p9MvKP4evEycdfn7Ok9cV4dsF4mva9OLv79k2+ePP3daHnln6PStuPn77G6HrFrH7ns1w/L+lb6xS4fKPsNe+Sx7W7nMHise92F4XlH+ePobw115OYujnjJ526kqsYZSSypEuxdc7F9avYQ6PwwAAAAHNusdm6x4f6NZHjoWSJlJCsVlkJZFWSJlMVWQl/b+A8eu+9rJ71d0fa58nvV6b+pye96/YX0OLHrB3B/fhjP1j7rvC/wDS+O5Lw7lfPcDh/FO4XDH8nruf83Dv8567b+fxjJ768+VyxJm6P+Loqec21vP+JnnY+r8uTzsWSX3lJEqSypCyLLISyCySzKSJdja32P61uxB0PhwAAAAObdXdA8+cb7/KYsXVsgshLJLMpIVisshLEqyRMpJZZBZCWRZZIZSSypCpEqSqxiZSSypCpErFVkiZSSypCsSWRZZBZFlkiVIVisshLszWPQ/rR6HG/wDHAAAAAfh4/wCzfDanY5Sfo/Lzfuaxi5SSypCpLKkSyRMpJVSJUlWQlklmUgISySspiSyLLILJEqSqxJZFWSJlJEsSrISyLLISyQykllSFSWWSGUn9Hn9vcnhdqbPy1GflgAAAAAeE5i7X+Lqdji5sXXOh9iSTNWMTKSVUiVJVSJZFWQlkJZJWUkSyCyLLJEyklViSyKshLJEymKrESpErFVkJZJZUhUllYiyRKksqbFY/FdXes9RsfNBn5YAAAAAAAGOu9ivGXj/x/d3gNL6LlCbK1xr97+aSZ6xVZCWQliVZImUxFiWWQlklZSRLEqpEskMpJZUiVIlSVYiWSJlIokSpKshLIohLMtkMOtfWdI7Qy8fVG2c5n4lHvGAAAAAAAAAABPj/AGHm6U1f12wdTg3+XcevsHX5dbg8Hh6XmpcJtWJVYiyEskrKSJUllYiySypEqAksqRKxJZFWQlklViSyKslRPR7DutpnLqvZPvn8h7Y3+y83z3oTLzqLAAAAAAAAAAAAAAAAEo+T4zZFx5tC+Q6oY93izzne38/G5wG7e8742eQnT/wvOzz5N1fI85dWTYHzmXyE9D+Oe/kv1/zev4T+ss/k/or+U/Rmn5J9P9jx8Cev+hfHgJtT7Fw6SnQ/3PWHlydi+k9a/DnpO3/0etbkX2PRF96uq/cfbetNT3iCgAAAAAAAAAAAAAAAAAAAAAAAAAAiKMcf6Jf4T9Cz82X9y/yzyRjasCgAAAAAAAAAAAAAAAAAAAAAAAAAAAAAAAAAAAAAAAAAAAAAAAAAAAAAAAAAAP/EADAQAAEDBAACCQQDAQEBAAAAAAUAAwQBAgYHETAQEhQVFyA1NlATFkBgITE0JYAm/9oACAEBAAEFAv2rj+hmsjjBbZ+ZEJlbyUpxdukLt0hdukLt0hdukLt0hUIyrVDyslCqDzGOUu6NgPXsxe3SF26Qu3SF2+Qu3yF2+Qu3yE2VmM1C54+xew/ZJa8rl9rVh/K5RKXiuVPxJ/8AfmOZLEB2Ec6Izbry01yveMpd4yl3jKXeMpd4yl3jKWPMzTZOyyjdmw5LzJjHJr953kZBmEQGiGblJ915SZfXvCSu8JK7wkrvCUu8JS7wlLDoUo2U/rmZMeoFiPv3yHYQ+SRvawQjfT7AnLw/nrw/nrw/nrw/nrw/nq7ACFKEQc0WutwWG5NWdatjf5FAwqYRieHs9eHs9eHk9eHk9eHk9S8FJRm7qVsuwE3VmT5c/Odnj8VxWFHO9B3kyrIbQUKRJclPQoEki4zr0m5b4cEF4cEF4cEF4cEF4cEF4bkFimOdwRFsn1nGfX/PmmUdyxr3LnLhweYWva1sSvp4ZT14ZT14ZT14ZT14ZT14ZT1jQK0AN5d11LbcgKVKkwIe81OhQGR7HIdasesy7HO5n40m+JIGzbSMHZH+NYr6B5thjrIs4Y/WMRp/XSSntjIRCc4RmYiD77I5IHuCEwZa8MRjv2Smei66lluSFrjBYGIcNkBguOJjcnZXrWMe4PNJftisFiThUhi2P35BPhwmR7H4eUTOxA+KwYfSII5RsfaTF3U6t2upn1h2yf8AHxWKe3/NsMo3LnimayiVP66dgHe1Sm27nnMbDWhBmYA++Rdf4rrw9xp0ZZN7Dj/Fa7G0jCuVsv1vF6//AEPm2DNrEx3isHGUHAfxNg39ULxQlr6IzlmW6MltaucJuyv8fFYp7eNXzmol2wyll3iMTXiMTXiMTUzPCktqt1bq69BXOP8ATk5u0GLvcq5dr0F9d7ozwF3YQiyr4cgIVbMjVsi/qguKx1qjIPlbN9bxf3D5tqOVpE4pvLi7Tf3kZX3kZX3mZX3mZX3mZX3mZX3mZWLFjh4tSnCnL2FbxCcUJd+uM5Zp2jxfWbfGbsz/ABLE/byzLEe2Ur/FeKtHS77WgZB+4Frx5xxlmyO10XVpbTLzvfRSlf5g7DjD4vig2vFFtMP0zgJKjuQ5GBn+7CK2VbxBcVjrtHgXK2d65i3uLzbVsr2RNYUYfa+xTS+xDS+xTa+xDa+xDa+xDa+xDawzHe4BfMyuHWaBWBkqTA3KNkLRYu6+t92tof0huzf8XFYl7d6Mzw/tCr/Cw7MKjb7Lrb7fJn5/u4fxXFcVxQkc4XIQYbY+JscBxpx4LCj/AH0LzCHWdjvFa4KUlB+Vs/1zFfcXm2JCrLxvisEK0J4/+JdbS63IxVwcrjxy8FPgz2CUfkOO2s2Zrk9DEiLHvmSBcG0YP2f/AIliPt3pzbDut0YXmVYF1K0up0TJbcGKaKuGSOKA6nSvc8Jd0Ql3RCTMCNGvUmPZLYPiLwhTGTlwIrbdZKYyUTcFMY8ccAkhpOOWjcnaPrmKe4/NJj2S45ka4IJYlkl+OkYU1khH/EyvHaHoT7LkZ4eWlC3GtkEm7fEyevEyevEyevEyevEyevE2er9lkK2lMknl1/awTFawqLaH+LisQ9udP9rNsN+n0YTmfZq0/no2RkHXvpSt1cPA0BivNnuP97DFrfIe0R8wxm3IIL7LkZ0cXliXWNnkm7fFSevFWevFSevFWevFWevFWegGdkzxOi2l66OnXjZ3iqRXiqSXisSXisSXisSXiqSQKTLmDM6xPv2K5Zc1eLPTg17W1CdlviuRXiuRXiwRXiwRXiwRXiwRWJZmUyUjzT+LRD1pLBCkCrg6W1Xsb67G+uxyF2OQuxvrsb6pBk3VgYcWn3Y7gsYRf0bNavdhdjkLEra2Y75K04rNsLrHr2OQsIyeQ0jpSggZIblyn8Axy+YS8/8AazbGXBZYfWaNmi59pODkWIw8htKYCWHXODpbNexyF2OQuxyF2OQuxSF2KQsBx3uYWtnx3XTnYpC7FJXYpK7FJXYpK7DJWDYu4VL9GS4PDyBE8BMDrrx0tuvYZK7DJXYJK7BKXd8pWjZd92H4/bj4jn8KLq0XVourRdWi6tF1aLq08vDiurTkdWi6tFwXVpyuHFdWi4cOnhRdWi6tF1aLq0XVourTp4UqurRdWi6tF1aLq0XVouHDy9Wi6tF1aLq0XVourRcKf+J+K61F1qLr2rr0XWoutRcf0Gt1KJ0pEYTuXCmU7n42xO7HYpVzY7yc2CQuV+clr1dmBe5X5ITvVThC5XE5dyrNfqu1PLtLq7U8u1PLtj9FQlKtVDhC1W5ITtVuYGLE3nZexN7EJWpvZUhN7LaTWxBl6ZzQQ8mTMGQqXUu+RfmsRqScxFx1I2MzapGwZ7ikZUUkJ2bIfXH8xqY/HrHywrGUbYpFpRtms3KNnImQo5CNLp8PImsRLZmcDYymbDk3qVkpKYr3LnK/DW31srEycpBUPZUxtQdhDJKikY0234CWQjwLJ+wIrKnZkSmJ1696745t69m6Bm5WAh2y4zqglohOz8qv8IplsAYiWdTZidevfv8AlG3b2bxewCMBCM4GlFStLqfjGcthikVyqcUr80HywgGqDzuCVVK8afhECUcWwczSSRXH57H83mBqiDcQ3H/AyDJGAbREnIKSP0AeRkC5OK5gyfb52SZBYDiyZLkx/wDQmX74z2HZVafjcyXKshRixNwtO/RBpF4VNFEWysDl7DIfShfo2rSla05ewnK3Gv0bXTv08n5exWK2FP0bW0er2ScvORlZ4n9G1iIrFHcvja65lQG4JP8A0TF8fcyElZY3Db5b5OkLLSgxktENg5AOV+hBg0k5NAAmMfgTS9Hsv5ed3VsOYudtMQiI1gpGyLEpIS/9AxrEJmROhgkUFFyE40BH4XJcl5dy899agznR0kGdYNR7raX2n8AbkqbAkDnvnIkJ+e9jetLW001Yw2YMxwkQ6cfOzcB9z8vPvWlDmvD5GP5awVopw2OSZM65vtUuDIgOfMRIT890Jq995CwsMMysiy6IBsLGZRqSsB9z8vPvW+ileFQebvwVAJxibSlQWJzZTW8Z9EsTJi/lRWIlDCEatjsqCMijG1NnsDmch2Le+nHLnb+jAfc/Lz/1vyRpb0N0TsC61QikUjZ0EcbHFEQ1lbVT8OLQFfZc3X4y2y6+o/DC5FDtUIZiYsSuHDomEI49o1suyxECcko95MA90cvP/W/My+5HvGZ7NiIdmQ0grb7b6dEoZEnUm67FSVM1hJsUvDi8NOsOMV+EaZcfrDwwzOULVU1xQNZCoyhB4Q+nRWtLaE8yFi0V2VLkKXNfnOebAPdHL2B63yYRiYPrB2JJaULNxkxMyWpFvS7HaepKxARLUnWY91SNWyKJ/XhhlP4wVjJ2M8xX8hqM8/VjFi0lR9cGnlG1PJuUXVg5tRcJCxEzEYjW9N7tjVpDNhI9Ednu3ojkZEpytf8Aujl7A9c5jMl2NdEzYrEUTZKi5uKkpghGlU8tbLbk6Hgvp3DQ7qc10GcV+rhtU5qpmqc1S4rtWTVfrAlRV1qYVdcGqLw6NLw8Nrw8NqmujdVTWxqqprMwrdXk6q3VU1N6nvTep2U3qsZam9bhLE1hYVpNBYDCpZbb5n5seNSXnAeIpm0WrVN2CWlqUQkzbuZr/wB08vYPrn4Ft91lY2QEYij5+UZTGzLkxsUa4mMwEvponEfVLqV/H40oniMaOn8uER1I2OJZUjaVFJ2QUeUrKSsxOO3u1/A1/wC6eXsH1z8duY+ymsjJsJrNzDSb2GUsVmy5tFbs9xWbPbVNmxFbsqBVU2OLqvEYSvEUSvEUSvEYSq7IFq7ZY+irs6FRX7RZV20rk5s+ZVO7IKXp3OzDqdygq8nSMp9ceP4+vvdPL2DX/vfo2vvdPL2NG6hD9G1nFq9kHLzIXUoI/Rtbhqjg/LpXjfmeO1FTP0TDMZuyAjTg1Tl94fRyeZDanx8kxl4C/wDoWN4zJyOWLFsB4U8pSmQ8vNX742QhCzZeDJjty2ckwd4fX+v0DFsCkmawB7A2MSIsi4eLknC2bcvPfWgZt0JLgTmiMZHsJiFkWAzArnzgkHNNvY5ryIKVKcFJlNw2Mtym8/JwL3Py8+9aQU7ICviDkYyynmbJDZjXceSiePzxF3zAsBPM3g9XssKNFZhtIoXih42S5XIyB1YD7n5efet9EaW7DeB5y0+rL7XLVfZa5aUwUaRRPX5GGn47sW/5JplyReK10VIIRrgYPTTVjNiuupbTINgRhyIlJJWR0YD7o5ef+t+QVkU0RcJzeFPVt1L6dEqBHnWENdD5Sn66JRlMGyoF3xkQfJn3DtalpiG6uHxlBEwxtnRWvBGc5HiUby+ear5MA90cvP8A1vzDT00VUbsJpxQyUafZ032WuUm4gJnKZrCPepmuikdSgJGEq0rbX4KlOKiAiM5Q9bGJKhanaooODhoCbasat6ZZCPAbK7KiR0WywkY8+Ae6OXsD1vkNPXsXwM4JQ1B2FCfUQrEnU8sgXDl0k4IGkqRq+JcpGrplqf18ZZT2MlI6ciPs/jtsOPJjHSclMa+NvqPqoheo2qI1qi68CRlFCQIapTh5ZRCNBtI7GGxES2KSmKRLel38jX/ujl7A9b5dt9bKwsrJwVD2S5RRM6FyVGJRZdPPVu25PCYUhO4gHeTuABXFfrQTcr9WQaq/VLSrqi5XapkKuq5y8LCK8LSS8LCS8LCSpquerdUSVTUzib1PYrdUwqJvWAm1Na7CNJrDAzKZCD46tZbs5EidHi2zM7ERFN2ip2cF5qdfcfu5ev8A3Ty9g+uc+26ttY2QkYijbCJsqNsuyqYz4S8mMjGSVZIad/LvfbbpIyEbFUjYIdhSdos0UrZRJ1S8pKzVe5c7dz9f+6eXsH1z8Wx69tNHSLCazUw0mtik7E1s1+is2c0rdlwKqzYYm5W54IuVuZB7lTLBNVbkoy5fcA2q79HLv0eqnx1FXJRlqrlgm1VzEPRX52HsV+xBFqu2YOtTm0WKJ3aL1U9solens9Mup7IykhOSXXfxtfe6eXsGv/d/Rtfe6eXsRnqF/wBG1uxV7JeXnw3tgr9G1cJrHg8u6y12mSg7wZD9Ex4G6fJRY7cKPy7J3A6ZDsmoZYTIDS/0IYMkF5mM44xjkGcQo0U5eVzrx2TwZjZCKXDxzMU/jMoE7+gAMamZC/j+NxMejPPWR2gxm45nfLz31rFciqIfbctdsdZsfbP6+4qRHdiO/OMsuSXMb1pe8osRmExWvCmc5b267Avc/Lz31pY3lbgisWW1NZRMJELtGNeSoqeYcjOfMNtXvXg9azp6DY1ABWJ56xhvLc5un9GA+5+Xn3rXQJOSQzoXKIhi3oniYhRsprWlURATxVflBoAgXuEaruqhYCCGs6DeSwgTeQZXLPudGA+5+Xn/AK300urbUPnMqEhh2GWt6LraX0I4YLIohrN+xTscJDvj4GOkilRuqpbqGYEIGKyy1u3oJGYYls5sd+SnXr33OnAPdHLz/wBb8tjlzVwvOpsJDMuHklSvHp/tTcdHEVN1nCdUzW5JhS8fIwVX+PhogEjPULWZaSoOqobSgYqKGqlKW06SmWDRCL7JlylIkuynPLgHujl7A9b5A/IJ4xD9jKDkg4jSlePlkioc1SsBDyVJ1axVSNZkW1Iwg1HT4mbGV1tbfyaUrdVgVNkqPhBuSo2rijqjamaoomuA0ZRAkCAuHln5GOG0JbPasRPLCZXk6/8AdHL2B63y4Z2fAULYstpQ8/GyFFLQ5q48fNw4pyBGeTuKiXk7r4I4nNYjblfqplX6qeTmriNFdrMvarteG7VXATlFdhBq1Vw0zRfZ5lfZ5lUw4zVUwc3cqYCcqrdeG6qzWZm5WasJ1Vmp5Cb1O2mtWDbUzrgI2mcODMJobEYXClPPKJRYVs3YQmIp2z371PykmSVa8a8rX/unl7B9c51K1oop8hDUbYRFlRtlNXKPnIl9MGIMpUvpdT8yt1KKQXhRFJzsPGUraEaxS9lkXlLygpNV1919edr/AN08vYPrn4jU6QwmcsLR0zsIq2mtmSKJvZjFU3sYZcrM7DXpvLRDibPDnVQlFqrZTN669q61FxouNFxXGi69F16Kr7dqqQjWpw3AaV2VCbE5nQVtO7HE2J3aEW1PbRdT2yCrifzIxIT5SXJXH8TX3unl7C9c/N48F9W+i7S7RUnSKLvKXRd6TF3rMVScuqrOkVVZL1VV6+qrdWv52vvdPL2G3W03+ja6bq5k/L2KPq7C/RtVDK8yZEsnRSw1wTP/AEQfBdJzA4xsOO5mUY5YdiyI7kR79CabvfcwnEaAI/OyTFmTrRAbIFyf0CDAfJScRwlkDb+AUERjDB7CpYn5/HcInHqg8ehgI/4ZzCoRZF8VIB6/NB8WInLgGu4IpUpS2n4tadahbCBxNFMCIwE43c1f8pbbVy4Rr8qUQbXgwYrLKN2/lTxMQnYR1pHdRDCisBXt3NXfHW23X1HYSYJIXqpqxDQMARb8BLGRZ9s7XI2SputJzSmY0TgK6lba/Df2oWOEyFYGriT6gavGR1BCwRtPh5QqHNpK1+IkKTq2yqk63KsqRipaKnY7rFfzG2XHqxsWLS1G1oYfUXUyia3DRlECQIK4cPkLm7b6P48Nkp/AQzyd1gNvTuqqJzVs2iv1sXtTmBG7E5h5lpXY6UtV4ma2qw36Ls7tF9FxfSvX0719K9dmdXY36q0ZMvVuPE703iBl1WYEcvVmtDN6b1VPuTWpkzqodamNdhGasYwKipuO2zT5/gurRfTtqvotrs7a7O0voNr6dq6tFwp/4e//xAA6EQAABQEDCQcEAQIHAAAAAAAAAQIDBAURITESExQVIDJBQlEQIjAzNEBSI1BhcWKBkSQ1Q2Cx4fD/2gAIAQMBAT8B+202maV9RzdBnBid07CGnQfkQ06D8iGnQvkQJ2DJ7txio0smSzrOAp18pFodcYYK1ywhp0LqQ06F1IaXCVdaQqVORkZ5ntjsnIcJsgqGybOZsDzSmVm2rh2NtqdUSE4iPT2Iycp28xpcIrrSGmQ+pDTIfUhKnR0tHmrDMUu+SVorBETqbOmxBp+f+o5gDXEjd24hpkTqQ0yJ1IaZE6kJj5Pu2pw2m0ZxZILiJjxQYtjeOBBRmo7T2MBTJOlMmhzEgw1mKgSPyK35Sf3sRLdCLOdO2lx8w3nV4mE1Mzl/ww/7FWjZxGeTw7KO0XedMVKUp500FgWzS/UkKv5qf12tIziyQJj2isWIBmZ3n4UH1KLeorluSjaotucUHP8ANC/9wFaP6Sf2IDjGVkPpGgxfgNHhoO2whUKgk0Zlnsgx9IdvwITs6bWbZLEaBJ+IgvZxBsu7xCZH0d008BSvTh3fO3ZpnqCFW81PbB9QkOm1dnRbE/AtifgWxPwJTsdDZ5BFbttrzayWXATG9NjWo/YMjSdh7NNY0Zo1r4hl3PT8v8iseUnsp8/J+k6KhByvqtdhFbcQjtphMWq/qNcJ+IVV7UmSUhh9TLucEtopbOUnEUp2zKaMVCObbprLA9mneeQqnmF2tLzayUJbeks2pBlZj4cCoaP3F7oMokrvHYY0SJ0GiROhDRInQgTcRjvXEJ1RzpZtrAQTskJFWUSm02dsCf8A6TonxE3utCmskpecVwFTk5Z5pOGxTZNn0lCYnR3ieaDU1qQnJXiNGinwGixeg0WL0EpuMy3akrxAOx8g42y6dqxo0boQ0aN0E3NJPIbIRJua7i8AZR377ho0boNHjdBo8boHzQazyCu8G0Wi3wLfCt2Lf9ipZdXupMJp8lWCAmkyj4AqLIPEyBUN3iohqNfzGoz+Y1GfzGpF/Makd+RA6NILiQOlSi4BUCSnFAUy4jeT7huO69uJtDVGkL3rg3Q2y8xVoRS4qOW0IYab3U+Oplte8kLp0ZfLYF0Zs9xQcpL6N28OMOtb6fYNtLdPJQVoYoji73TsDNNjM8tv7BERXF7C3bMiPEOwGHeWwPUlab2jtC21tHYsvDSk1HYkRKMZ9+R/YNNIZLJbKz2FvirbQ4ViyEml8zIUk0nYfgNtqdUSEYmIUBERNp732GVERJL8hxtTSslW3RoxJRnzxPxbfbVJklozhYlt04y0VFnhW+5lWZlW3R5NhZhf9PsdRfuzRbb8ZSGGpTYg1JLxZDlyvsMqalnupxDDCnUrfXtwEkuGhKsLBPpi455xq9Ii1RxnuuXkGZbT5dw/euyG2d4w/UFuXIuIRIK5B5S8A+gm46kp6bdO9Kjsl0lp/vN3GHoj8U+8QZqb7Vx3hqqsr37gh5Dm6ft1OIRvGHKi0ndvDs91y4rg0w7IPukI9MQ33nLzBXCT5Kv1t0/0qO0yI7jD9KjvXlcYeo76L0XhTTrB94jIInSG8FBFXWW+kIqrJ7xWBM6OrmBOoVgYt8O0G4hOJhUxhPMFVJosAqpq5Uhcx5fMEocdO4rQ1THl71waprLd6rwREkrC7ZPkq/W3T/So2jIlYhynxnMUhyitnuKC6M+ndO0Kp8lHKDacRiRgnHE4GClPlzAp8guYaxkdRrJ8azeGs3hrJ8awf6g50j5A5Tx8wNxasTBNrVgQTCkL5QmlPHvHYEUlHOoNwY6OUERJw2pPkq26f6VHhW9htNqxSDhx1chA6dGPlB0uMfAHSo41TH/I1Sx+RqqOCpkfoCp8YuUFEYLBIJptOCRcXhyfJVt0p4nI5J6fY5zmQyZdduM8uC4SuBhp1DySWg/sK1k2WUoPuqlruwLbVB0uC2pO8RBiS7DXd/YRp7Un8H79+W2zjiHpDkg7wzEzEZa14mW3TvSoE6mtyu8m5QejuxlWLKwMVN5m5V5BmpMO4nYYIyO8vcmdgdnNN8bQ9PccuTcQbacfVYkrREgJY7y71CV5Cv1t070qOxxtDqclZWiTRSO9gw9FeYP6iQ2+61uGG6s6nfK0N1VlW9cESWXN1Qtt9jaFPtoxUF1FpO7eHKk4rdKwLecc3jDbDj24QYpXF4w22horEF2SfJV+tun+lRsGRHcYepsZ7lsP8B2iKK9pQcgSWsUgyNOIS64jdMJnyE8wTVXixIFV+qQVVbPEgVTYGsI58w06P8hprHyGmsfIadH+QOex8gdSYB1NrgQOqdEhVTc4EFTn1cQp1at4xYZhuG+5gkN0lZ+YoNU9hvhaCIiuLYk+Sr9bdP8ASo8BTaF7xBdOjL5QqjMnuqMgqiq5VhVIkFhYDpskuUHDkFyDRni5TGZc+Iza+gza+gzLnxBR3j5TBQ3z5AVPknygqW+eITSFcygmktlvGE0+OjlCW0I3S8CT5Ktunn/hUeyu9jKOxlW3R5RZOYV9jqT5EnNFtusqYS2+jj/yINRTILIXcr7DKmJZKxO8Gm1SMpxXDbisIkQUtr6CXCchrvw6iLVVtd128gzJafK1B+9ceQ1eow/UFLubuIR47kldiQplLEVSE9NunelQHG0upyFlaQl0ZSe+xf8AgGS2VX3GGao83cq8NVRhzeuCXErvSft1LSm9RhyoNIwvDtQdXcm4d5w+piPTFK7ztwbbS0nJQQleSr9bdP8ASo7XozT5WOEH6JxZUHoT7G+kJUpGAbqEhvjaEVc+dIRVGFY3BMxheCgS0ngfimsixCpTKcVBVRZLAKqh8qQuc8viDUpWJhuM87upDVJ4umGo7bJdwu2T5Kv1t0/0qNp2Gw9vpDlFaPcVYF0d9O6doXBkIxQDSpOJC0ywBPupwUCmvlzAqhI6gqm+NaPdCGtHeg1o70Gs3uhA6k8DqD/UHMfPmBvuqxULTMERngExH14JCKU8reuCKSgt9QbiMNbqRhsyfJV+tun+lR4RpSeIVEYViggdMjHyg6QxwMwdGRwUNTfzGpj+Y1Mr5DU6vkNTn8xqf+YKjo4qBUlgsTMFTY5cAmKwnBIJKU4F4UnyVbdMcJcZNnDwLfdzV5DCtunTNGcsVumCMlFaX2G2wTpOeVkpwLwIVRVG7ir0hp9D5ZSD9+44lorVGJU1T3dTh4Tbq2VZSDsDFX4PEGn23itQfu1uobvUYeqXBoOOLcO1Z+KSjTeQaqb7eN4bq7avMKwIlsubqhaR+ztC5DTeKg5UkFuEHJ7y8LgajVefs0POI3VBFRkJ4hNXXzJCas3zJBVKOfEFNYPnGktHzEM6g+Iyy6jKIZRDLIG4guIOQ0XMQOYwXMDqDBcQqpt8CCqorlSFT31cQp1xe8fv7RaYtMW/fv/EACsRAAIBAgQEBgMBAQAAAAAAAAECAAMREhMxUSAhMkEEEBQwQFAiQmEzUv/aAAgBAgEBPwH62v4jB+Ky1SpzmXU2mVU2mXU2mF1lGv8Aq88R/mYAW0mW+0y6m0wPtKNYg4W86j4FvAxviiNjF/JmCi5j1WeYG2mB9pgbaJTYnnK/TPD9+CrVtyWWZpgbaYG2mBtpSTCOfE5wreU0zX5wAAWHBrK1PA3KO2OjeeG6+B+s2g8qz42mT+F+8ovhNj5eIbnhlCnYYjw1+mUO/m5st4i4jBy9qt/mZ4bqPF4ntB/iZ4frlVW1UzG28xMe8pUiTc+VZ8IiWv8AlM5I453EpPiEq9ZidI4a3TKHfzq9PlznOWMVbnjYYltKZy2vAQdOGq2Noy4aVpQ6vKrSt+QlJ8PI+RNucYlzMhpkGOl1tEOAyqOd5Sblh4auko9/NhcWimxvNfbq0sX5CfksxtvMbbzE28uzSnS7tKvRKPV51KduYlN7cjKrfrKS/twVVtzifkMJjIVlzvMRmIxbk2lXSD+S5lzEuecZO48ry8vEHs2EsJYexYS3sWlhLDztLS3BaW++NRB3mfTHeHxKT1Sz1X8nqv5PVfyeq/k9V/J6r+T1I2nqEgrpvMxT3+QaiLqY3il7Q+KbtDWqHvCSff5iCow7wV27weIHeCop0PwGdU1j+K/5jVXfU/JV2XQxa/8A1FYNp7ZIXmZU8T2SEk8z83SLVt1QEH2GYILmVKpqH6FWKxWxcfiXxNh+jpmx46nWfoxqOOsvPF9Gg5346bgu1NpUpFOf0KrijtYhBx1P9DKXiA34vHoA81hUrr80C+kWnvHqBeSxerjqdZ8qddki1UqRqCnSGiw+SEYwUx3hdUjVC3kuo46nWeBazrF8SP2gZHhoqYaGxmU0wnb37GYGMFPeZYl1WGsO0NRjwLqOOp1njFRhoYPEN3g8SO4grpMaGYVMy1mUsyRMkTJG8yRvMobzKEy1mWswrMSiGqszx2EzmhZj34xrx1Os+6GI7zMbeZr7zNeZzzOeZrzNfeY2lye/ujXjqiz/AEai54yuaphBHI/RAYBfjFXLqnaMi1ReNTKa/PAJ0gULzMZ8bcdTrMpVmpxKi1ByjUAdI1Nl+WFJgp7wsqR3LxdeOp1nyBtzETxLDk0Wqr6QorQ0NoaTCWI1+IEYwU94EAjOqxqxOnmuo46nWeFarroYvif+hBXQ95cGYFPaZKzJmSZlNMttpgaYTMJmE7TCdphMwNMtplGZX9mWJhAnIQ1VENbYQux4RqOOp1n2RUcd4PEOIPEbieoWZ6TOTeZibzGu8xrvMa7zGu8zF3mam8zlmeJn/wAmc0xse/sjXjqdZ+jGo46y88X0dMc78dNg5amZUpFD9Cqlo5C2UcbkrUJEp1Vqi0eh3WFSvI/OWnvGcIJe7AnjqdZgNuYlPxPZ5+LiNQB0hpMvyQpMFPecljVuyzWLqOOp1nzDFdIviT+0WsjSwaGivaZB7Q02Ewn37bTA0yjMsSwENRRGrHtLk6+a68dTrPEGZdDB4hxrB4kdxBWQ95iB0lgZgXaZSzKWZImVMmZP9mVMqZQmWswLLAS4ENVRDXENZu0JJ14hqOOp1n2wxHeZjjvM556hp6htp6g7T1H8nqP5M87TPMz2ma8xtvLnv7Y146os5+jXUcdeni5j6Omvc+xUo4uawgjX6Bafc+0yBtY1AjphBGvzBTJ1gUD3SAdYaCnSGiwhUjX4ogQmCmO8AA+GUU9oaImRsZlNMttphO3s2MwGZbTKmWJhA+fYS3lb77//xABIEAABAwECBQ0QAgIDAAIDAAABAAIDBBEhEiIxUXEQEyMwMzRBUmFykZLBBRQgJDJAQlBgYnOBgqGx0VNjQ+GDk6IVgFRwo//aAAgBAQAGPwL/APVtjzhzHJG1HAf3uzMxY1TM7S8rd5OuVu8nXK3eTrlbvJ1yt3k65W7ydcq6plH1lCyoMreLJehFKO95zwE3O1aXAe5mMfJNi3eXrlb4l65W7y9crd5euVu8vXK3xJ1yt8S9cq1lVM3Q8oR12zRfyDKE2SNwex14I8Jz3GxovJT9ZmfDTA2Naw2WpkNVM6Smkuxzbgnw9lOHMckTcqOtOFLHmZl6Va6rnd/yFb5l65W+ZeuVvmbrlb5m65W+ZuuVvmbrlRwCpmwPKecM3BBoyC5RCOV7BrWRrrOEqia6eRwMguLztJjGz1P8bTk0o2T97s4sVyxqud2mQrfMvXK3zL1yt8S9crfMvXK3zL1yt8y9coYc8ve8WM/HN/JtuLYah/kN7U6SRxe915JWBTwukPIsYxs+a3WJbrF91usXSt1i6VusP3W6xK58TvmvGIC1vHF41BRVLtnaMR59IalJzzqR1EckYa8Wi1brF91usP3W6w9K3WFbrD90XtDJrOBhvRa4WOGUFd4SO2OS+PkPhCgiOyS3v5G6usyO8YguPKM/g2tsNTJcxvanSyuL5HXklYFNC6V3IgXGKPS5btCt2h6Vu0PSt2h6Vu0PSt2h6U4PIfUPOM4akXwu1UPxBtGsQHxuUdQZ0XOJc45SVg0sDpeXgVr5IYzmttW+Ifut8Q/db4h+63xD91viH7rfMP3TYLnSm+R44TthJyBSzW4nksHImwi5gve7ME2KBgY0bSWvaHNPAUJoR4tJ/wCTmTJozY9htChqG5JG2qk551KPmeHDUsFmvA4WkKmlGVsgPgy1MvksFqlqZTa+Q2rHHi8WM/l5E+H/ABOxozyKOobkyPGcJksZwmPFoOqScgU01uxg4LByJlPHcMrnZgmw07A0Dh4TtUPwe0qg+KPDklebGMGEVNUyG97ruQLA8mBl8juxNhgjEcbcgHmlU8Gxxbgj56gmIx58b5bXPAcpbi6UQcoU0BO5Pu+apOedSi5nhxU0ZDtYBwiM5VLEMrpAPBFDE7Y4vL5XJrGDCc42AKOH/IcaQ8qcWDxiLGZy8isOVO7myu96K38atXILnFuCPndqOqiNknP2G1w/B7VQfFHhyNGWZwj1ITZsk2yO81aM8g1KVnFjaPttlYwZBK78qsZxmAqk551KLmJ0lBgOlb6DxlRa6OEEcGCf2vIg6p/a8iDqn9ryIOqf2jHhMhB4Y23ok3kr/wCRlbYxl0fKc/gPlt2Z2LGOVFzja43ko90ZW4jLo9OfV76ibZTzm3Q5RzxHBkjOECoqlnpDGGY6jBnlGpQtH8TTtcPwe1UHxR4dCzgLydRrGVrw1osAW/5Fv+Rb/kW/5Fv+Rb/kW/5FHB39LrIxpHcm2tOaQalLJxo2n7bZWPGQyu/KrH8VgCo+edSi5mo6to22Ti97B6av1A5tLM5pyERlWMo5ieYmy90Trcf8TTeU2ONoYxtwaODVtNwTsA+LxYsf7V+RR08NA4RxiwY63i7rreLuupxJTGnjN0bibb86kglGDIw2ELvaV3i892h2ow5pRqULh/C38bXD8HtVB8UeHQv4A8jUbIyltY4Wg4QW8z1gt5nrBbzPWC3mesFvM9YLeZ6wW8//AEEBIB31LjSHs22rYBa4Nwx8tQQ27JBikcnBtdRUOPktu0ouOUqeoI3V9g0BUfPP41KLmar66iZsmWSIely6jaOrdbSnyXH0P9IOabQeEeD3pE7Z58vI3wYaWPK85cwUVPELGRjBCb3ThbkxZbPsdQNefGYcV/LyqsjAtcG4Y+V+oaUnZKd2TkO1w/B7V3P+KPDkc28wuEmpCLdkh2Jw81IOQqaGzEtwmHkTZhfGbntzhNmgeHsObaS97g1o4ShT058Vj4eMVHDGLXvNgUFMzJG2xUfPP41KLmeA+voWY2WWIcPKNRtFWPtpzcx59D/StF41ZJ5TgxxtwiVLVSekbhmCZGRsDMaQ8i3pD1At6Q9QLekPUCwooI43Z2ts1JIZBhMeMEhS0zsgvYc4Uc/+I4sgzhAix8b29IU8BGJbhMOdqjqGXsyPbnCbPTSB7Hfbaofgj8ruf8UeHJC8Wse3BKnpZBfG645xwIPN9NJdK3kzpk1PIJI3ZCPNcS6pjvYc/InRStLJGmwtKwqaZ0fIMisdHDJykLe8H3W94Put7wfdb3g+63vB91veD7q6CBpz2FWVE5wOI24agr6plkzhsbD6Iz6lHzz+NSh5ngvr6FmLllibwco1GUFc/Yskcp9Hk1W9zIXXDGls+wQAvJTA4eMS48h7PD1+JvjNPeOUcI1D3Nmdskd8RPC3MsSxtXHex2fkTopWGORpsLXLXKWd0R5MhVj4oZeUghb1g+63rB91vWD7resH3W9YPut6wfdRUrKWEA3udfijUh+CPyVDVMAc+J2EA5b2pvv+1van6D+1vam+/wC1vam6D+1vam6D+1vam6D+1DPWsZHNIMLAZwBCopx45ELvfGZFj2lrhcQVhUlQ6PO3gPyVjoYJDnsK3tT/AHW9af7retP9/wBretP91vWn+63rT/daz3vDHAwYUkgBu262Qa3OMkrcqJji76j40WXoVj6aVp5WFbjJ1Stxk6q3CTqlbhJ1Stxk6pW4SdVXU8p+goYNK6JvGlxU2ec981IyW+S3Vo8BjnnDPki1bhJ1SqIOFhwMh8J1fQMtjO6RN4OULcJOqUygr2SYGSOVzTdyFS1AbhvAxGjhKfLJFK6R5wicErvuojIhp8gcMrtpc+nic6mnx24I8nOFDUwwyCSN1oxSoahoLcNtpacoKwnjWqgZJW9qOBD31Fxov0rH00rTysK3CTqlbhJ1Stwk6hW4SdQrcJOoVuEnUK16VtlVUXut4BwDUhLI3PGs+iOVbhL1Ct7y9QrcJeoVveXqFbhL1Ct7y9QpslRE5tNBY92EPKPANUyjxer/AJG8OlGymNTHx4b/ALKx1NK08rCt7y9Qre8vUK3vL1Ct7y9Qre0vUKAFNLafcKjiI2d+PKeXzDIsiyLIsiyLIsnhZNoyLJqZNryeDkWRZFkWRZNXIsiyLIsiyLJ4WRZFkWRZFkWT/wClGVZQsoWULKsvsFlWPUxN0uV9W13NFqxRNJoatjpHu5zrFsdIwc5yxWQs+VqulYzmsW/D8mt/SvrZfk5X1k/XKvqZT9ZW7ydZbq/rLdX9Zbq/rLdX9ZbtJ1ldUyj6yrq2cfWVdXTfNyurXfNoV8zH85gWM2F30rHpIzoK2SjeOa5YzZo9LVvoN54IWx1cTvqVxB9Y2yzMjHvOsW+NdP8AWLVsNI9/PdYtjjii+6vq3NGZly2SeSTnOJ892KeSPmuIQwa2RwzPvWyMim0ixbPRvZzHWrdzEf7G2K2GojlHuut9UWzTMjHvFERudUO9wKyngZGM771j1TwMzbla5xcc59T2tJac4Wx1j7MzsZAVNPHMM7cUoCUvpne+LQsKCeOUe671DhTzNiHKUW00Tp3cY3BECXWG5o1hSPc853H1fhMe5hztKA1/X2cWW9BtZA6E8Zl4WFTTsl0G/wA8Ldc16TiR3otgspmcl7lhSPL3Z3H1qHMcWOHC0oNmIq48z8vSg10ne0p9CW77q0G0eblgdr8/EYiDJrMX8cfrsCKbXIv4pLwmxynvWc+i/Ifn5oZaiQMb+U6OntpoOQ4x9ftjkJqabiON40LXaaTC4zeFvmNm6VBGLGjNUPwncA4B7AtnppDHIMy1qSyGsGVnG0bfdjVD/Ib2p0szy+R2Un2DbLE4skabQ4cC1uU4NZGMYcbl22SeQ2MYLSpKiThOKMw9hY6mA2PYelQ1UXkyC3RtkNK07qbXaB7D1NA43DZGdu2MZwNiH59h4hxmOG2Qy8D47Oj2Ha+y6OMnbDKwWyU5wvlw+w8tbILHzmxvNG2SxG+68I4I8WkNsZzcnsK2EWiFt8j8wUELBgMGI1o0bY2F5sjmiDfnenU87bWnhzIxSi1h8iTgd7Btp6Zlp9J3A0JtPCLTle/hcVQUDDaIw5z9Nm2MINhEY/JWC8+MRix4z8qdBUMD2H7IyN2al4Hjg0+wILRrVKPKmd2IQU0eDxncLk6d97zcxucqKaU4Uj8Ik/LbG/CHamzwuwXt+6DmHBlHlx8IRDhaDwFOm7nkQyfxHyT+kYqiJ0TxxvXoip4nTSHgaE2fuocN3/47cnzTWRtDGNuDW5AnT1DrMzeFydPMbG+gzihU2h342xvwh26jZoHlkgTYpiIanNwO0amt1MTZW8qMnc+TCH8Un7Wt1ELonZnD1yI6eJ8zzwMCEndKTWG/xR3uWt0kDYhn4TqFtuu1XBE3tRmqX4R4G8A1KbQ78bY34Q7dW5Niq7Z4eN6QWuU8oePuNQsqImStzOFqLqKU07uI69qOuU5kYPTixh61Gs0zmsP+STFag/uhOZ3fxx3NWt0sDIW+6NQy1ErYmDhcnQ9zQYmfzOynQi57i5xyk6tNod+Nsb8IdvgiSGR0bxwtQjr48IfysWFTztk0G/VOv0zS7jtuKJo6ot9yUdqtNK6VvGixlY5pacxHq2xoLjmCGBRvjbxpcVB1dWfRCO1AwUrcMem/GOqZKiZkLRwuKMfc6PDP8smToWu1MzpXcvB4NNod+Nsb8Idvhh8bzG4cLSg2oAqmZzc5Aa7rEnFkuVrSCOTVsqKeOUe81ExCSmd7jrvuiaaqZJySCxY1G54zx4yskjdGfeFnqWyNjpDmaLVsdC9ozyYv5QNTVRQjMzGQM+uVTvedYPsrKalih5rdW0mxEOn12TiR3lFtHGKZvGN7lrlRK6Z+dx8Om0O/G2N+EO3atgqHx8ltyAqYWzDjNuKAdIYHZpAsKKRsgztPgWSRtePeCxqGNpzx4v4WxSzQ/O1bBWxv5HtsWLHHKPcesehm+TbVZJE+M+82zzmyKJ8hzNbasTufP822flDCiZEPfetnro4+RjMJbNPNN9li0Mbz/ZjflWRQsjGZjbPAte4NGclEd8CZ2aLGRbR0ojHHlNpXjFU9zeIDY3aqXQ78bY34Q7dtwopHRn3St2EwzSi1WVNJ84yr59ZOaQWLYp45Oa7wrwCsekhdpYFfQxjm3K6KRnNkWLUVLfqH6WJXyDnMtWJXtPOYrquE/IrFmgd81/gP1ryIj/yLcY/+xbgz/sC3uz/sC3Fg/wCQLyIR/wAiv1gfWr5YG/NX1kI+RWP3QaOaxY/dCQ81lixqipd82/pXwyP50hV1BGedesSjgb/xhXADwrZZmR85yPjQlOaMWoilpHP5ZDYiGPZTt/rarZ55JT7zttpdDvxtjfhDt8xtaS08iGtVkos4LbUMN0cw95q2ajt5jlsjJotLbVdVtbyOuWx1MT9Dwsvm+VbLURx85yOFWx/TesTXpuaz9o6xRHTI5HWxFCORtq2SulszNOD+Fa97nHlPmNLod+Nsb8IdvnGxzSM5riFiVsw0utW+cLnNCv1p+lqxqaF2i0LGoG/KT/SxqF3yet6TD5hXwyhZJh9K/wA3UWWXqLLL1F/m6iyTH6VdDMfkrqWY9CxKKT5uWL3PHzk/0sSlibpJKxRCzQ1b5Dea1Y1dL8itkqZn855PnFLod+NsHwh2+w9Lod+Nsp5rLnswej2HMtl0UZO2SYAtlhx29vsOaiQWS1Jwvp4Nse1Goib4rKeD0Tm9hQXt8UivkOfkTGiwDIBtjqVxulhBbpvT4Jmh8bhYQVbfJTO8mTsPsGGRjAgbukpyBMpqdmAxv35V3OoWm84Uj+i7bIpYzY9jGkdJTJmeV6bcxTopWh8briCnT0QM1PxPSb7Atnq8Kmo//T9CbBTRiKJvAFJUTuwWNHSo6mXyn4V2YWbY34Q7VrjcaM+WzOmzwuwmO1DJD4tU8ZuQ6Vg1MVjeCRvkn17rdJCX53eiE2arsq6n/wAN1HTTODI23klYEdraSM4jc/KqbQ78bYPhDt1MOI4UZ8qM5CsOF2P6UZyjULJGB7DlDgjJRP73fxD5K8YgcG8cXt9c4NLTPeOPZij5psndGXX3fxMuahHBG2KMZGtFmoZqmQMHAOErB3KlHkxDt1KbQ78bY34Q7dUSwvMbxwhNirtik/kHklBzSHNPCNQhwDhmKLmMNNKfSjydCLoLKuP3bndCwJY3RuzOFnrPAiY6Rx4Gi1B0rBRxHhly9CD5wayX+zyehBkbQxo4GjUtJsCdDR2VNRn9EIzVMpkf9hq02h342xvwh2+DsUlsf8bsiDJ/Fpfe8npVoNo1cGohZM3322omnL6V3JeETCY6pvu3FWVFPJDzm+rcGngkmPuNtQMoZSM/sNp6EDVSPqnZvJasGlpo4R7rfALGv76mHoR/tFrpNZg/ij8Gm0O/G2D4Q7fD2CYhvEN4QbWxa0eOy8LCp52Sj3T4FjgHDMUcOka0548VE01XJHySDCWxa3UD3TYUdeopmWcODcrxZ6juvWwUU0nKGXIa4yOmHvu/SBq61zvdiFiBbSNkdnlxkGsaGNHA0eBh1EzIW+8UW0cZqXcY3NRE0+BEf8cdw8Om0O/G2N+EO3acKN7mOztNiAe8VLM0mXpQFQx9O7PlCtgqGSaD4R16mikt4zUfFdaOeNxC2Gqlj5162GrifyOBCugZLyseEcOhmH02rZIZGc5vm+JG5/NFq2Ohnd9CHiojGd7wtmqYIuba5DX6yR/IwWIW0xmOeR5WwUcMehnhYU87Ih7xREGHVP8AdFgRbBg0jPdvKw5pXSuzuNu002h342xvwh27Za0lpzhYtS57c0mMrKmlDvejNixpHQH3wrYaiOTmu2i9oOlbLSQyc6MFY1BEOaLFdTFnNeVi68361i1c7ehYndB40xq7ukP+n/axa+M6Y7FdVwHpW+afpP6W+KbpP6W+KbpP6W+afpP6V9XAOlX18Q0MKv7pN+UP+1j90HHmx/7V9ZOehYzp3/Ur4HP5zysXufEedetjoadnNjCxWNboG0WzTxxD3nWLfGvHNELURSUf1Su7ER3zrLc0VywpHukdncbdspdDvxtjfhDt8wtBIPItjq5ByE2rZBFMOVthWz0ZbzHLGkfDzmfpYlbETmwrFiSNdoPndrntaOUrZK2Fv1LFmdMfcYUdYo3O5XmxHWo4YBotKOuVklh4G3K17i45yfMKbQ78bY34Q7fNsV7m6CsStmH1rfeHzmhYwif9Ni2SjYea5Y9E8aHq+nnb8h+1eZWaWLd3DS1b9YNK37Gt+w9Zb9g6637B1wt+wf8AYFv2Drhb9h6y39Gt/RrfJdoarnyu+hXQVDtAH7Wx0Uh5zgFsdE1vOcsSOGP5WrfIj5jAseunOh9ix5Hu0nzal0O/G2D4Q7fYem0O/G2RScD4rOj2HY/gjY47YJ2C19ObTo9h5654vmOCzmjbJGOFrTcQnMs2B98buT2FZTR24OV7+KFFBE3BjYMFo2yWlPDEHtToJhzXcLSjBO2w8DuBw9g2U1MzDkd9kImY0zr5JOMVQUgOPKXOs5ANsgqGZWMHzyqOeI2teLUYZ225ncLVjjXKc+TKB7A4EDMGMeVK7yQtbgbbIfLlOVydJI4NY0WklRz5I7HNYMws2xvwh2rWpj4q/L7pzoOacJpyEIskaHsOUFOm7m6dYcfwjHMx0bxla4evRHEwyPdka0Js/dTY2fwNN/zTYYI2xRtyNaNQ0NI/YGnZHj0iqbQ78bY34Q7dQQzWyUp6WpssLw9h4RqYFTCH5ncIRfRO74j4h8pFkrHRvHA4euQyNpe85GtCbJWHvOHNleVZTQgP4ZHXuOo6SRwYxt5JT6SgJZT5HS8L9Sm0O/G2N+EO3VwoXYvDGchQbha1P/G7s1cGpgbLykXovoJ7P65f2vGKZ7W8cC1vT61spaWSQcayxvSg/ujUWf1RftYNLTtjPG9I/PVtnkwpeCJvlFWPOtU4yRN7dWm0O/G2N+EO3wLQbCOEJsdV4xFn9IK2CUF3ENxGrYRaOVEug1p59OK5E0dQ2QcWS5bPSSAcYXj1f4tRyvHGssHSga2pZAOLHjFB2sd8SD05jag1oDQOAauHVTtj5OFOi7nt1hn8jvKRfI4vecrneBTaHfjbG/CHb4Qcxxa4cLUGz+NR8vlIDXdZkPoSXK7wNno4nHjAWHpRNPPJAcxxgjrL4qgchwStmo5WjPg2j1PsFHM8Z8G5DXdapm+8bSgaqqknOZgwQhrNFFhcZwwj91YBZ4BEs4dIP8cd5RZRR96s4xvcjJNI6V59J5t8Km0O/G2N+EO3aRrFQ4N4jrwgKyn+uL9Ia1UswuK64q7wdnpopOc1bgYT/W6xeL1sjOSRtq2KWGX52I+JF4zsIK2Wkmj5zCrwRp85uFq2Kkmk5rCULKB7RnfY1bLJBD87V4xXvdyRtsQwonzn+x6GsUkUdnCG3+Fs9XG08UG0otoqcyHjy3BHXagtZxI8UbTTaHfjbG/CHbtmw1T2jNbaEBUQsmGduKUBJh0594XLYamOTQ7aMeCN2lqxu58HybYrqZzObI5Yks7PnasWuf8ANqxK9nzYsSop3abQstO7Q/8A0twY7RIFvP8A/o1bxd8iFvCRbwlW8JVvCRbxd0hbz/8AbVvdo0yBX97t0yf6WPUUzdBJ7FjV8Y0MK2Svd9LFsk879BAWNA+XnSHsWL3Ph+oYX5Wx00TNDBtFs9RHFznIhkj6g/1tRFLStj96Q2o69VvweKzFCvvO10uh342xvwh27fcbFsVXKBmLrVsgjmHKLFs9I5nMdar5zEffatiq4XnMHhXEHz282LZqqGPnPC3zrh/rFq2CkkkPvHBWwxRQDrFbJWy2ZmnBVrnFx5dvpdDvxtjfhDt812OeRmhyxa15516xjFLzmLZKSM6HLHo3jQ5YzZmfSt8kaWFXV0Q0mxYtZCfqV1RF1wrpWH5rKFlCyrLqZVlWUK+Ro+avqIh9YWNWQj6wr6+HrLflvNY49ixdek0MWx0krtJsWxUTBznrFEEWhqvrXjmWBbLUyv0v81pdDvxtjfhDt8/8o9K3R/Srp5Ost8y9crfU3XK31N1yt9Tdcq+eTrFbq/rLy3dKy+fUuh342xj+B0Q9h4SPRa4no2yGraNyOC7QfYeqr3C7cmdu2SQSC1jxYVLTSeibjnHsLFTQNwpJDYFDSRZIxlznbcXFqY/Id2J0UrCyRtxafYNscbS97rg0LvicW1sgv9wZtvwhZHVNGLJ+0YahhY8ff2BbBTRmWV3AEJ57Jq0+lwM0eY61Uxhw4DwhOkhBqabjNF40+v2yEGmpf5XjLoWt00d58qQ+U7zQyRjvao4zMh0hEyRa5F/LHePXY73gOt/yvuamy1PjlQON5I+SsFw82sN4Rc1ne0p9KL9IuiAq487MvQi17Sxwyh3rUNaC5x4Ag50YpIuNN+k18ze/Jhwy+T0LBaA0DgHneDUwMl5SL0XUc7oTxH3hE976+zjRYywXtLDmI9X2NBccwQLaR0LONNioOr6oyf1xXDpVlLTMiPGsv6fUNlRTxy85qJhw6V3um0fdE080U4zHFKOvUcgGdotH2VhFhzH1RsFFK7lwbAgaiWKmGa3CKBqHy1RzW4I+yspqWOHmtv8AVFk9LFLzmArFidCf63Lxeuc3kkZatjMM/NdYjh0Mtnui1WSRPjOZzbPPbGMc85mi1bHQTfU2z8rHEUA9936VtTX/ACiYseN9Qf7HLYKOCLlawW+sbHNDhyrZKKE/Qt7FnMeQsSeoj+oHsWx15+pixKqF3SFcIXfWt54fNe1X9z5fler+59T/ANRWNSTjTGVfDJ1Styf1V5DuheQ7oXku6F5Duhbk/qrcZOqVi0sx+gq7ufUn/iKxe5031CxbywdL2/tXthZpkWPVQM6VsndDqxrZKmofoIHYt7uk57yVsdBANLbVYyNrB7o9gci8kLyG9C3NvQtzZ1VubeheSOhZP/o//8QALBAAAgEBBQkBAQEBAQEBAAAAAREAECExQVFhIHGBkaGxwdHwMPHhQFCAYP/aAAgBAQABPyH/APOMZxjOMZxjOMZxjOMZxjPZcYziZxjOMZxjOMZxjOMZ/wDGxGM4xnGM4xnGM4xnGM6OMZ/mxGM4xnGM4xnGM4xnGM/2sKJbreOQgyf3X/OFmU1XmfCeZ8Z5nxnmfCeZ8Z5nxnmGWazAvMWTMW3xvg11iFotD4qajJcStZPuPM+w8z7jzPmPM+Y8z5TzPkPMFSS/+qWutYha5zgLxNmCNoJIVjAQHNElWZV7hNuWzlhFnCAgGLRtXTYzbWpyEHGCLfiKOTNffPhvM+G8z6rzPqvM+z8z7vzBHI2Ozb8cbpZDhSFCYCwEBaKiQB6/jhorOoMI6I91243xqIZl+Z9t5n23mffeZ9N5n03mfTeYy2s5RkvYwC5+mT7kwzLQQv8ANtaZmlJLBvMCSTyL9p/dPqf0fSf03qf23qf2vSf2z6j0eyYeITvKrx4iAiBBRFoMcAtA4R1FD+jCOIO2DLHSf3/Sf2vSf1nqf1j6n9L0i7CZ6QDD4DEAiDC15jsm0cRtXOI0G3I41FzgA6/D8NlqbUXUtBCq1bsmaJnGwbzcI7EhphHKf1D6n916n9x6n9x6n916n9F6gHla6rAChcv3Q/w5EObIfg8oQ+LIZJlnzXiEG8myb4kHhQ3x+k+f0qY32+kBM/oEREkBky08E6AbvcMyftzEwWUlYLTv/ELdkQsGWpRih9FlCix5hLu8LkcRCXyWRz7tdsIpYAF6LevSHtXVQhsDsEMVnZnAcYdxwEMBwES26snJxRRjxKeHC6N/IlHjiBKhRsQamCQGTDiIkFYDdzvlttaPHMCVa1LTMn8j5CB7YNrCTQCHeEohyBwECzaelyamDvQgf+Q1qxWtjzRanNircA+1/MQ7KJZBaDzhBJERGsK3C4NP9Awvowo+DXbALNwFZwUDWT1dBQDYtdjsxyOEMVCDXkmIKCPUnf6g2GN+ObiEYwCAKRwl/EGQsMfPnUxvzHL2owzTJGkOr/M+Q7vwAKquEDaegNBcLayttu6L/l0m3Q0AE3dEfmbRBBIIOaHwHkxPuGvuso+jWA5t4vLpaLYUDyJCIOwMXLAaXpU5iTDlEhkm8wjKafuDuC7YEAL3YnjwvhLhpIvJzlukcjOOPgobZegKxdjjjfziPIhZiHHDRk94ocCbueRoEShzhDPf8y5Duh7eBQbRDcB7oCh4IrBgLp9A9T6B6nwD1PkHqfIPU+Qep9g9TBUKVg4XXm6KBes/0+zyNAA13RH5mwS/NQc0Jh/NifUP4sI59+poEf2BrmY1jGAEEFEHCgeCASEEZgqDmthDvAIAW2zfnAQcckqAVKSIDJMO2k5E7DnxeoBLVq1ZQP1Ik9T+a9T+K9S/mGYRwbjHsTOzl3wotGzCPG7lQoW5/kaDCsI4gAfzPku6HtoUILRHeB6jh5Iq/AIYxn2HmfJeZ9B5nwHmfAeZ8B5mo+NZbThK1ZPp+tgidzNrxHCftNstzPHD8xkASrmVgHOWxhCSdYRZFx8Ykw1Qj6tarWNCHkaxiINhF4McwqvR/OECgGYtAdm4oNEDbjnjdz2QFSb9zR4CKKaCX2CBDD5HKAyBBIItBEAOyEDxycUsSTovZelF1rHNA83+Z8l3QtugvFPjK49CTQST66Cu6L/lAkwIiEKh5ETu5XcI6v68xEGXe8rtD+IoDMlQEahP7e7KIr+OXcxfM4niYSnHPv1rfEclDxCz0jhDxebMj8UGyAgYIqxeGiEKYWo/DEMmscNau4+4AgCF9l4n23iWQrSxUBXLlYgiO3JtT3QGiWp/Nl8LmxAi0EEUEM80WjldwjIna/vG+BsI7DboIwP5GvutQtsnCiDoRCPAQOYOIjQFBehqIGJ7L/5buni+poYtSpUQYyfN5LW8QRKM6D0M/ge0+T2n8j2n8T2n872nxe0LgYZjzGRP7IF8DJBk3ASw7cDbnNTQqcfLqdggAjdDnikRxeYRy1kNHedpllCAAgsUzCFK8/J5QTZKQAF8EWQErQTdwbbt4FkLfsPCOWx7zG84PMa7Ylcx6GLcSREGMC94PmC4wfPhjA8jP7fvPj959fvPj958fvPj95Yx5bpvN8sC22HGAi4XAd6n8Sla/hViVJxkrLIxEA1wLJtUOIxZnyeUIIcg0QciIpjOI98VkFw5jATyM/n+8+33ot9vvPt959vvGNbqKGAFt59/s1wTxRzEUQ8R8RW8nCsT3gDxRr+t2Agmv6mCQMYAeiZuJsw4G08oGHbCC00GetRUIOBEspMaYO2BEWnZABBDBwhTJjCZ0mWk+m8Qr5WaWWRhRigMknuuhByS7YnhHr41WXYcBfy/AhFCIAIDkE8C6+ASaxrMbiLIEsAArFA8Y/oZX/cGIhxTXHZ43oYj+wgLxPhvE+m8T7TxPtPE+c8T7zxEiyAr32GgMcAElIvZT7jxPoPE+o8T6DxPqPE+A8QwMQDgMxL7rYABTC1WDs3eMV8zYW33dIf3eEBeJ8h4n2HifMeJ9Z4nwniFjyIDE5QTBe98Nwu/4CbBNJymk5TScppOU0nKaTlNBy2SF4OaDlAFdZtEOaTlNJyiHCaCAAXBfiQvAGaTlAFwKukJoOU0HKaDlNBymg5TQcqm+AZpOU0nKaTlNJymk5TScoAuADZJMHKaTlNJymg5TQcpoOU0nL/4lcesTOaDnP7k/tT+tNPzmi5xMxHH/wC/eADeY/sm8BcFcAN2Tt8/ciWALMHtDDYmoYesze8p0wny5ew9ygn2Z2l8L6znV+9kvInHCf35/cT+in9/BcudnT4h0gPdO5hPeWYXvPcT4kWihCz94eYCQg1xDSEuYT3UOrXxnsTLh+qWiCRaVwVwcwmh/wDQJU1PoKG4sGBeqMwZzAPmMQJwsJj7dGrpkdsM/VmMJG8k7Ljj23HHHV1ccccaj4Tz7YZYQGR3xOB+LC6SwtdCPUCKwcqJG76nAP8A45KIsQiLBmB1zPiETg8Ynysjx40fSEOOZWY446ujjjo49hxxx1cdHHHHHV0ccccFxTcRERZZWOnIzNAjfJGbL+oPMBy1lH/weBNImfUUfOJjPho84XEO8gnrHHHtOOro6uOOPbcce04449hx1BAjcQD0joWwe++fQHvMdYqEysm8X/8AWQBmwRkJ4ljebhFQL+hh4Z7zCescdHV0ccdHtOPYdXHHHtuOOOjjjq49kwfmDARxEVw77Hh9nNUzCE6XDBsIloI/5jZLHAxrt5whcxcRDicY446uOjjjo446uOOOrq4446urjjjjo446uOrq4446E4Bv6DiOEP2Mgy309oBgLGYg/wCHGYIRZlkBDJZrGA6nDcIWLNpMew6OOOjjo6OOOOOjjo4449h0cccew46uOOjjo44446uOOCxuy1B1eIMBJe2GyI/4XgrGz1OQh3Jtw5AYbDo446OOOrjjj2nHHHsOjjjjq446uOro44446uOOrjjhQK3lYRkRiIGJu9sDP1/d3QAjztBDzFewnHHR0dXHHHV1ccce044446uOrjq6uOOPZdXHHR0cfpVqJRPgbDAZf1dSs0NrhNswhRx1dHVxxx1dXHHHV7Djj2HHVx7Tjjjq446uOrjjjjo4Qa+vsDEHQwnFlTNiOB/QqkPzGvaOro6uOOPacccdXVxxxx0dHVx1ew446ujq49lxx0eyx2keTsDt1/Q5jcHEn2jq6OOOOrq4449h0cccew46uOr2HHHsOOrj2HHHHR1cccdCAzYa5Px+n+pyH3Vxxx1dXHHHV1cccdXHHRxx1dXHHHV0dXHV0ccdHHR0cdHHHABY7OTCHf8ASwUrWK2PPCOOOrq4449txx1ccdXHV7Djjq446uOrjjjjo6uOOrjq6XrUn4tL5D9Asqg3Ij/JbmFfRuo6uOOOrjo4449l1ce2446ujq46ujjjo6ujq49lxwHqZazK3mCboXIACs6fpaMDjg6eojwbMR5iGJ3AFh70jjj23HHHHsOrjq9hxx1dHVx1dHHV1ey46ujjjodQa0vEEzGnBGrJgBaP5jQ5d/0KGKwRhAIAA3YG+czGpZg4QSpObFbpHzHRx0ccccdHHHRxx7Tjjjq446uOrjjjjo6uOOrj2HHHHRxwgUywWbsxg7QYtpsyZxxF52jmdiSf6fZzg+ojgGR0gGwFobX1rBxBkQMGHygtPSYwCQAnqDiI4449hx0cce2446ujq449hxx0ey6uOPYccdHHQ3+0Hj/kOj7wXDfx3CBCwgQN0VBCwRtMhMBABNmR/s+Zn/T5OdF2EUjHQ5iLKG9eavEvhsacBtG4zNanIjQe0OwPkORxo446uOr2HHHVxx1cew446urjjo446uOOOPZcuK5OmGca2AmhNw4OZkhC3eG80I0TC2XalgJlFysHkBHC+zH+n0c6HCiJEEWgiAAQrA/9YI4jgHmChqrwcOMFvxGHC+CC/pDYY46urjjjq6Orjjo6OOOjq6Orjq6OOOj2SRf3JDfwi2Fbabom89ICg/Bb350xLxC5QfcgIuUw3wux2WyTqaOF9mP9Pg51OOYyZJTLwko8R6i/vKwbxQ3RiPcDriHsmGhyeo1CPzAt6Q/Gd6Rq449hx1cdXRxx0dXHR0cdXRxx7LgmabgMw+Rzhr1t6RzDXz3qPx3Q+qYEIBCmBDJiZDepbwxcYWYJvZuC4Rx1L5Mf6H9OMOOPYuGVGAiICv8AQF8vBGH3XQTNVxJ1MyFlExiI1ORukUH4GHzDj/WuA6WzT6h+6OOOOjjq44446PYdHRx7Djjj2dU8sukQElygXJM0IDJeBLHWw6WneB6BiEHnEqHAADExYYPmumF9V/5CFpMxZjj2HPuZ/wBPs51OrjjoDkcMLlwNkz10X/KOAWS63QfJtwJ2CsnYBMbE2wPVLeO7g9Y5OSE9YJ7QwULEFvAqW0OM/Fc0Q4YusNkcccdHVxxx0ccdHHHHHL5r+9F0gtqa/ihFnYgs4BxSdeXUSJaZPJgegiAhWL9NiDQ3sAAdNgwF9pCAEaAv7G6ZIQ6AFnWES2/4oQlx1ccccc+Tn/T6OcOjjq49hzXDpx2iwEP/AEgjAlIZ+KYvBC4vqugYRhuSYCDcXsKWZvQR8/N5a7Rm4OLQ+ZHEkd7hbJaydDyEE6wjzAOvQ7mAeINd8d07Zv8AEIcTghpQj3DQ7gP8Q35ek7/k+IX3ohI5wnuYGbJ0fIxJu9QlCzGPgRIyGLd0TPBiGdoNQTIDZJhUHAOwEUCJxXWLI6FwVchHw7C25ly2WTtiOUcdXHHHV0+jn/T4ecOr2XHHHV01AQSlghuEocCxFoA0CeIglg9Sehi0aih0JgMPjgkofDA4GS5gO4/85vgDfOhkiWoRGBN0mKHddwllabwR7igTagcTGTtywOyaoCMaOOOjo46urp9HP+n286nVxx0dXVxxx7AJFxU+lc1nWEO6Ae/J47/Yz5oHGd8iwXdd0fELvgOyeDLw+nWfD/c+F7nwvcOYX3WC3fbrOxCE743tBb1uxAbxwY+Nw3Tq6x7mDkjoiD0vkntBaG5d0MJ3i98ccdHHHsOOOr2XT5Of9LJy7+wcey6uOOPaccdXR1cf4OPYew49px/g6uOfZz/obFRHUv8AY449h1cccdXVxxx1ccdHHHtOOOOrjjo446uOOOOjq6Orj2FME+JFxNg/S2JdliMHLtsOrjjjq6uOOOrjjo446urjjjq446uOrjjjq6ujq46ujjhLopDeA/0Tx/QVkWJ8oTe2RgvzuZVccey6OOOOrjjq49txx7Lq46ujjq6vZcdXRxx0JiBx0od/aAO7nLLF+iqjcMPh2nxbcGMJUJWYu8kce2446ujq49txx7Lq46ujjj2XsuPacewYIRYrHIZnSCnB3i88SzJjqywDcAY8uX6NUStRAiACpluNAv1TsERx/s3vaIbSNhFXHHHV7Lj23HHsurj2nH+Do49px7QTrwGEDRgNTAfYsH1OsA0ZalgBrCRXkaihy/T7GcCDbHhD7gdYnLQw2xRgS1Fvo8iGpGoNwY446uOOjj2HVxxx1ccdHHHVxxxx0dHHHHRxx1dHHV1cGrTotm9Mszy0Ai00GO8wAoBDIQUlW1glsBjLzzz6mf8AT5ucOWjAtn8TrBEEALRTDO1NAZb99t+fqHGTRs4jzHHHRxx1dXHHHsOOjjj2HHHHHHV0dXHsOOOr2RO5Mkm8KEsWbs3m89IB6KRBQaM4trkBCUmSyL9cxjhfZj/T6OcOOXWuzwancgXMyg2YMEYNCBxYQMGbsxEt9yJ4JbbRxeIeh+88usdXVxxx1ccdXHRxxxx1dXHHVx1dHHHR1ccGbiRxHlMziDt281C4iWuwG4PLgVNIKAUIwgXk3CC0VYRv9+PCERa53GQGAo4fyY/0+DnU44JPxzs+GHCPA6xHaOntAAI1xEdDU2YAh8owPpmIzObpn3CY4aZgOdHHHV0dXHsuOOjq6Orjq6OOOjq6Wl7Vom84Rj0vNg7nkiIv17dAW9YBaDQJ3moBZKGswqk1gHW4IXETEIBGpxjjjoXyY/0+bnDj2Qdd1XhH63Z7DfAYwapG8bBSabwMGNRPrOkbE4CBzC8xkUuucDLMBeaeYWRYMWRCjjo46ujjjq6uOOjjj2HHHV0IaAkcAIRCs2M9RsjsQ5ZI4NNZLDDmX2i0VrusA3hAAAbB4DMRiZD/AP6xjnP9F58Y49n7mf8AT5OcOro444HCK0EFFrXAubnmbqeO36m44gvlHsEA3waYoSXHy0/41rpD70YB6wITlfVIcN2D8zRllGF5BB0lsbwR3o46ujq6OPYdHHQtb+r2QMxhxYd5bYlgy4N9JdCfC4R8z8HrLjYD4u+AIHSAwEOU4ALAhsmei+ImQVnmT4ghmWWeqfUMSraSy6x7Do458zP+n2c9g46vYFxRcRGIAOYydbYhD8WXI+4MAIcLPnEMOiY3tKdJk59JBpDPzfKfKY3wTa57xCPQC8Q7oEfIj/VRC6oeRgvUAPiHBqrkmGNFHdCB+IX1heRMEt5IZ5cjuU6d4HxAvNF8TrD6G3uKe8wszOYfidFQEW2XCC8j7o7AIf8ASunRHwHuWiDYfffDE+Wk8jxMcdHRxx1c+Dn/AE+DnDjq49hxxx1DwlcSRi9cMi5GIBiK2OR8RECWbu8vytY+UWA2xM5GDGD0zG/+lzWTQxGQPjBSZwonkKCQN4AhyiccXEELiSukSM8C8hDzO9E9Y449hxx1dXPq5/0+nnQ9lx/g449jqUQihWLg5HIwgLQDAzxCFn6+AwlYeoIcbE0j4EVut6IG29qntO9RECdAI8S6efLi4wCD0LHfF1n2HmXlKvrhCZfHNmPm5+p3sZgK2cgfmnChixfgvnWKT4E7sHylx7qO4MOG3LwQDwEJEldc0dXsOjj/AC+Tn/QBDl34dXHHHV1cce24446ujq46vYccey6uOro449l0cdHHPm5/0PgY5h90ccdXHVxxx1dXHHsOOrj23HHsOOrj2XHHV7Lo446rAW0jWwd/0JzkU3+DHtuOOPZccccdHHHHRxx1dXHHHVxx0ccdXHHHRx7Djo449hxxBcZnxae36CWCsYgiOOJCdjk3iOrjjjq6uOOOjo46OOOrq4446uOOjjjo6OOOro4446OOOro46A0C7uKfUDgEA4AfoM3RFuJB8RXQ3j4gRAotFxAMcew6uOOOro6uOrq4446ujq46OOjjjo6ujq46ujjq4QSTwDEk5RYCqdvoEtdDAzPk/pfq2RkbDlAlEjTSBX4hi0zBhEwxWMdDkaOOjjjjq446uOrq4446ujq446Ojjq6ujq46ujjq6jJRQWP+p0mQ9DbetId44sgBLR4CPBJc7/0+xnDSSXV9L4AeGyGDBbRQbBjxdt7uPgwo17gIjj2HR1cdXsOOPZdXHsuPaew449px7RTFIgSeELGm+Fs72G4QSAkgAgTElAWswT+QuOUNJ9TP+n2c4cYWl1+qNNIAq9hKGxVg2bow4PFbcD7l8EAwERxx1cdXsOOOrjjjo446OOOOOjq4446OOOjo446ujoZ7qIEngIjMlr9BhxgqWPaFAMQZoATBFCs3GQ7xwvsx/p8jOHS2vM21/wC+sEgFWnRO9jVQ1hYG43iPpO++HD2h6NWA4LI46uOrjjj2HHRxx0dHHHRx7Djo449hxx1ew4AYlWZvKyF1O82pO8/AmdXFe8K2p+AQW8HgYbzD5hW+zfmMdPuZ/wBPg5w6ODZxzBEQYpBHZhF54wLxY6KqejGsIBuK1xw/K7pC+CoL8xDJS8HrBwsG2yjjjjq446OOOjjjjjjjjq446uOrjjjq6OogCLF1pCMUN4urYIYB9Si7pBsyQCgKkYjgVpbheYMJnsKiW4YQ2/WQyTvjjjnxM/6fJzhxx1NUxgxBHERNwCzCHHHjE78yBuMALIEaVIAIhiOiQ/4VbMhJIg9YbZyDZ1h4pmEuYIBJEEHWjjo449lx1dXR1cey446Ot90WNVoeOY2R6Mrdm4e5nhADzRsGC7r1oNABkKkgBkoQR6vjsu4xTBbL98DrCsatJI84446/Ez/p8nPbOOEAAcTozqMTy9xYI8fpGAFkCNNhMQYbVCYSecZkZ4dOEanQB1hS3tFY+0tAGzbwb6To3LxCaM5AquOPbdHHHV0ccdFgxZAOEUb+xCORtio4EvpLgXf7RFRzgPqL7RmDcTEHgEJbD7gfVAACGwSALSobKf8AgRbAGBwnQvhAC77b+ccey458zP8Ap9nOHHRxx0ccccIhWx9AbJmJKBaxuvzCBRbFwA+UABYXtELwj2371mOy4byx0g0tTj5RMHFtqPhDWvksxwsDX9zrqvEZdW/PmLs+mvmctxPMvYu9eZ/jPuH/AAhP4Qly9H3LsDvF5mR94vMvf7m4wL1N4KGbB+axCeVEeYvazo+TBFrfBZAdrZj9wgcPLFzui2wLlF0gugA3bRiJBOwBioHhZcyhAwLwY8hFRv8AyBfxhTEiS8kx1cccdXPg5/0+HnDjj23HHHQqyFoYjSsQHIxEN/hzEsYtmIewlk5AMIsGokjsNzBf/aBYAzM6Ei8xhcsCw2GAiMPMaDA1hBxPqPkCybpDogXkmY49lxx7Ln0c/wCnw86nR1cccdXVxxxxXYFzwIY6F74DA1JB6EQEBqphFmtkRiPiQnsZiFyH8QBwTzJ2TIl5rd7J0SRgJ7p/emm5zSRMxEYJo+c/rTrQDOtB7KNx05BjCKISArzCu5EJFDpQW0mBMfEHkDMykjmZ0yXZEJEtr3Wwsc46OOOjjjjjo46uOOfBz/oX147Jxx7bjjj2XHHHsg7hUFwHxQXIXHLhe4/cFwH9ZxX3dZ895l5E+s5e73+6XoXil5E3lLwI74449hx0ccew449tx1c+Tn/QohZA4EvvRxwmPacce044446Ojjq49pxx7Do6uOjq46vZdXHW5M6eef0aOO5cTn3jjq6uOOOrq4446uOOrjq6uOOOrjjq46uOOOr2XVx1dHLgRImePgOf6MnOKDxLuuzCIo6OOOOOro44446OOOrjjo46uOOOrjq446OOOOOjjo4446OOOro45YwFssydBMPSnFjHif1EyghOfq0hryobRHHCY6urjjjq46uOOrq4446uOOjj2XHHV0dHHRxx7DjjqUgQCsknARdQ/OMr5P7m1mxF+miXS9MgzBy2nHHsuOjj/Bx7Ljo49lxx/m49lx7JNsWD6nIaxbdatD2/4DCXjEuYOEMhFbcPR5ENkcccdHHHHRxx1dXHHHV0dXHR0cccdHV0dHHHV0ccdHR0vibvG5x33RDwEFWTU+P+MhhGWtBaqAZiE2XBrlx2XVx7bjjq6Orj2XHV7Lq46ujjjo9lVY77C4m/hDmJAS30xcYMgALAB/zDIAEwM0ndIHfcMX1brHj9HLLPQRBHA0cdXsOOPYcdXHHRxxxx0dXRx0cey449l0PDBAbJOghQ0bS4FaXu0OlLYqwdLvNwFsJACA/69GMsTcZlhkPXvHWE2AfIX9IaA28oEc9hxx7Djq46ujjjo6ujjo449hxx0cdHQbPNwGY9IaXkbekLnMXh5hW9oNJxG2Pu/wDBNBE5BPOOmZ/P9pfZlFPollGX9ZNCsoV4ERsOOjj2nHsuro449hxx7QBIAAkm4CBQBmxuoKEYt7SCfKzrFzPF0trrBPVQOq//AMcgGIC/osjM5qIByLlvaAOoES0QG8dQIIIsMfHmv8UXWrq46uro6uPZcewE4ekl0i8pnEvinXaPQDFok5q9SfEUHHjUeAUFgHLkRccYACwL/wA9Q2ImAOD+LgAekJkwgeJyoJDnFt3Yedx2dBIg/U6L4hOzeeUZfF3R2ky4R85ToyjxLjW/1Q34HFCL35/Uz+0gPcbjgLcTiguRvrKdFH1S0t0emXWNx3kQ/aY5zFXwGQggbgAKNAsziHdzEpP4oj1d4BEmDXJ0wHugqNMAgRVH/tqJlNByhvReEd6k/i5/KQDuDwwDuDGg5RWAi/8Ah3//2gAMAwEAAgADAAAAEPPPNPP/AP8A6849/wD/APzzzzLzzzz/AP8A/uPPPPPNP/8A/jzzzzzy3euq+mm99ojF/wA8dVy8yITwdL2T888Cc2ZYP88888ubr888RY4x484t/wCKarPLODPPPLNvPJlk8ssvPPPPPOYPPPPPKnz+rV17Ne+Suo9/PPPId/PH9dV9UnvPPPPOBNvPPJM2V7BtLlS3zESvytPPNO9fPISKTjnPPPPPPPBAdFB4Qrn/ACwfTb/zzxaQuvnwPv8Ar6U/WZqCd8888888t+++N8u9888+Ne888+tsvOPt++//APnLfzzfPPPPPPPPPPPPPPPPPPPPPPPPPPPNOPPPPPPPPPPPPPPPPPPPPPPPPPPPPPNRtuUY7AG9T7Gw3MfPPPPPPPPPPPPPPPPPPPPOLcsK6eHk+GmXmaFWRhRtGlUINPPPPPPPPPPPPOPPrkgUuXkemmViemWMid5L9xI6HxZQNfPPPPPPPPPNDLSqfkemmXiWlUFjV1Kt5I+X1ZK4LwbRX/PPPPPPK4mXkammFielUMDd5KtxI6H1ZJ8L2dt4K2FdPPPPPPHWeGmVien2EjX1LtZI6X1ZL4pxZp4O2Fi+Gr/PPPPLGWVienW0jdxKtRI6X1ZJ4DlZh6K2Fi+2mX1uHPPPPPOum2sif5LNxK6f1ZJ8B1dp6K3FC+2mX0ievcfPPPPPPNwd5Lt5I+XlZJ4hwJh6L2Fi+GmH1memVxsx9PPPPPJJd+BA6HlZI4L1Zh6P2Fi+WmHxienVZpaX2afPPPPPJADxNsr64ryZp4O2Fq2mmG1rWmVZtcAj5yHA1PPPPPNZqY6d31Lr6dmdi+mmG1qemVKIelvjVct7IvvPPPPPPCemmXiGq+9fnTXp0kQEyud7k34ZEG2FC+milPPPPPAnHkdlxLhZpM9dB3C8vybC6ml5K2GU6Hm2mhXPPPPPLRp5K9JobbuL9I6mW2E+mW3A5GdhJ56OlRpbfPPPPPLorCO3UuW1hauWkBysemVxIblJ55K7kJ4O2bfPPPPPJ6tUiWmmRhVpL9pZu3FpavT4tJ6uW1C2GzpDvPPPPPIiJRelhZp4thZp6P6AqW2mH5qW3Vbn0limYxVPPPPPOVNRIzNbRL55K2Hg+HkWnhVkVJoIrrqLQNpAHPPPPPDpYuW4oME1pYkbt2mWVpRLS/d7YvPXzppYsVPPPPPPIW2iUiWmXoDa1Wq2USvhwu8cut5iUvJq2ymE1PPPPPE3mekwpgd5LNxI6H1JY4b0Nl4K2FC+mmW3kenPPPPODF5LlZpI7hJ5K8Ce3G+GXxK+HU4G06nlZobA3PPPPPBsDqrWuL1paue2EymW2F9EfxJ55K3xpaOyU0/PPPPPHKuuGmhauWkFylWm15palJ55J+kb4K2G3rPi/PPPPPMykX37yhI1pZs3BrYuS6rJ4uW3A2G0mFPRZvFPPPPPGO1A+sBwD44mqdi2mmH4qWnVKttRDTUO4tOUXPPPPPJa2J5J6UZDEpPXrPJsGuTmjQaBXYgJx5bhZ9fPPPPPMkDUqW2H2OSuN+q3AqIjOj5JZU3FpYuWynB+lPPPPOMSWm30qW0Hkfm+XhZp4pxZp6Nzcq22mX4qW2/PPPPPBo7hZpItxJ5G1QK3C+W14K2HU8mmW3lZodBzPPPPPPPGYI71J5I+CW3E+mXxK+GVzNw6GlZoaFpaqPPPPPPPPPKKkZaOW0Nyke3F9AXhJ55M3wL4O2Khxp/PPPPPPPPPPPK3eL19au1hpatZ4pJ6+W0K2GmHgLfPPPPPPPPPPPPPLPPHCHKLZN3R/iYMF3C2WYqDzvPPPPPPPPPPPPPPPPPPPPHPPPPPDrDvbLvTPPPPPHPPPPPPPPPPPPPPPPPPPPPPPPPPPPPPPPPPPPPPPPPPPPPPPPPPPPPP/8QAKhEAAwABAgUDBAMBAQAAAAAAAAERMSFhQVFxgZEgoeEQscHRMPDxQFD/2gAIAQMBAT8Q9MZGR+iMjIyfxQhP4YQn8DMtJhLLf6EKpctL34n+B8H+Qf4gxlufCK9hxrOVmbrYVIJVfwxWkNxVcT/C+D/GE/rrzRSWlNWlhrmvrx7XrsuLGxFSkTmt50Uxq39f0UTWcI0SMt4XRD5Vckf4x/jfBYDOiixeIikXRiESfL0Saq4Vxfwagpyivc/zD/G+D/G+B4RF0XqdkjJeRa0oX7BufW8t+hNtUNaroO8U8ElwmnSVD3+7HoZUc7PLh7Dz9FsVE8eC+Roberw/r2IC9ct1z+mmWq0X5HhcOc3xb9LToMe/2Z+rl3FpE7Sb0W2mRg2Vv+KOiDtHFfx+fU6cuL7jKi5oU/qwaFGnhvg+TEzWBaI5zaGxlujawlyX0nJOM/0Lc29Daci5H9rQ/kpaetWBijLVPYZJ5zZXPV/f0tOkx70Pz9WSrz/BPozhZ7U/vh/fD++FMjaKJab+tmSMn4Eq1nonjA8LjXoSuiG6Lep3gkSOFtOkiHvU/H0eydphN8NmLtWuWlx3X0YyRWx103K2/I3Pk0wW1o7h8xYuu67p5FfXRVP8C+MZX2YnDj3k+K9LzpMe9P8AP1Yn4NMSjXa1XjAxokf8bMttjb4MgHOqm38n+8f7xpJMXFtUQ3My+ey2EMvn+BNNdfx9cDtk39mMthc2l90N05heLIj9Gr3fL0Rt+mV+UNYIm7pwfFdGaUU2U8PoPWT2ZsfJsfPyMCLbRaimG5oxWUm1pk/0ja+RF0k1q2iTPwvkatTPnUbHybXyNXB5NEpNFv8AwVormVzK5jbefq23n0VzK16cDbefpXzK5lfMrZgrmV8yvn9bCvmVlf8A7iTeDODomZN76fcy6rq0YYd3+jgV5Fxk8fJt/HybPx8j4SePkaMe8YRnd/oxqvo/2Zc7a/YywuqY01n/AJ2Ed0LTzgjOV3dfhGqN6FP2a+rbumCl0SEksIpSlKUpSlKUceUYqfZGrumzhrDF11NQZJs4/cYRi7af8FO22RITXktX+ie1TnqEMIilKUpSlKUpSjZfopSlKUQQU20bmtCxA5PPkuAnv/GjKbbwkLUyLkz3I8psilKUpSlKNlKUpfopSlKUpSlKUc1GtyFb2f4GZca4P+BfFZoLmo2Xy2RSlKUpSlKUpSjZSlKUpSlKUpSlKUucLh/hjCuNetzTwFsl+ylKUpSlGylL9FKUpSlKUo2UpSlKUo2UWVczdP8AXrY2HvxKUpSlKUv0UpSlKUpSlKUpSlKUpSlKOl8R+tbHR57uBSlKUbGylKUpSlKUpSlKUpSlKUpSlKLSv1er2XL134WirXBrD/AnPXsP5KUbKUo2UpSlKUo2UpSlKUpSlKUpSixtvtRrOJJxvi/j1owrQ08NDUh5N18CBfm0WybyejXYpSlKUpSlKUbKUpSlKUpSlKUogqk+WWWOucWLFlz8WIqiTJLt628Y9dGPH2fD6os3KYax5RIbPJ58kRI331XkRVbXUpSlGylKUpSlKUpSlKUotqUt2aDbbYKTY2z5NXD5t48jlN2uCESRD+d638KKUUtFTLid5Y8FVqXwzXid17mmMa31NCQ+jn7MqN0q9jEquuhit90QylGylKUpSjRZMZrq0ZBe2ppSt+w/opdWaG2S20IJzd2RXK76vwSUXvjwKiYlwRSj+d638JSlKUWNLVuaylPmtDVHrrqagpPBmHfTX7GL3Zoyqu7MI/mnMHZCVlH2Erl4NlGyhs5eBvwi7DHwRk38mSH3Zm59mYh110+5raPcJasfTQ1VI3zeouixbFKUbKP439vXo6KKUpSlKUv0NJ5MRPqkZjwQyS9mzAMu7GsVdx87yN3yEjNfcTyz7s1RebbMO+DGS6JCWBFKUpRspSlG8L+3rsDXS/wNlKUpRspSlKUpSlKUpSlKNlGylKUpSi7muhfn1tGqlNrmny3RUkn/AHUpSlKUpSlKUpSlKUpSlGyjZSlKUpRtbEhpaRDaWy4+vYSN1yHRadY24wTJJ7L/ABzKUpSlKUpSlKUpSlGyjZSlKUpSlEOq8i/ItrDgkRlrOynrbxoWvrHB9SzzcHw6pkh3Wz5Iq2J48iVMqKUbKUpSlKUpSlKUpSlGylEJWU0qckV+xZ8lgm/uWJ1+IXQa9V628ZR6SR8Ghu5HyeOzIpiXPK8j2tXf8GlKTwzQ1bb6r2Fmi9rr7iTApSlKUpSlKUpSlHGTHy76mnU2yiNEV7mOa99x9GvfgJU7RfliSolsUfzvW/hKUohhUVG9xo9i0i9np7mc2ua1+w2iR7mcV0bMbXVJmiKfsfFsyyvcazV2/QsyOzE7h8M25sxo4fDE8V2Yhht9hLIxf72M4kaBp6JIya+4mdFWZHnN6fc1hCXJasht05v9CFIiKUo/net/CUpSlKUWxbW6Rr7VPZz7GsdYjQrifVGRN0fwc790ZVvuPI8TGvLeGb/wze+GJmG8MwHiZgm8fs5a6tHDi6sfwrojPb6aGtKnu6LIldkaFKUo2Ubwv7etThyKUbKUpRspSlKX6aEXIg05fSlKUpSlKUpSlENvk/W4ztU6t1xRSlKUpSlKUpSlKUpSlKUpSlGylKUpRCZq9Xsvn13+SROrgn7ERq9h7lGylKUpSlKUpSlKUpSjZRspSlKUpRu1uTgtx8/Ujbe/BetCtTTs+aJbXwJj4YiSt7iv2RTe3FdilKUo2UpSlKUpSlKNlGylKUpSi+Jfd9i4vc4kUacW8C0cNXxb9beMZkGZTHjbHNldGRiNHZkvR758kxM33x5F8LWzRSlKUpSlKUpSlKUpRspRDAlzbhoTttsFTQbZN+zux6mxy4v9CIgkuQ3net/CilIJv7ruKri2f7KVZzWq9hpXae2homlur8iei3utDinqVMQ93BDVPoy0pSlKUpSlKhHWS6mBezpmTfRfsc07zZpWhbaD2ub3Znac8Ic52K/ZDIW/F9ylH871t4UUo2UeuSk0t80o/Y1lzb6o1xSeDN3bX7DSOXVCyEMxruzFv31E8q+yEMx9jmeD5Nl7mw9z/If7GcRdhnCLsjMv20MgvuxsaujeJehnPxPuaky9xrzH00RhC83qKYFKNlH871t4EUpSlKNlGxTETW5+LkOVujY/gd/gZyrshpw9nyPgp4Nn4Nv4+RcdPHyLn9nyIZX0S+TIDv8ABm3fVmHfFEmklsUpSlKUo2N4X61NlofX/ClKUo2X6KUpSlKUpSlKUpSlKNlKUpSiWHxUXfT12n8zZ8xIZU8FKUbKNlKUpSlKUpSlKUpSlGylKUpRolYlbvzP+CF+UXQVUmvt1WS/SlKUpSlKUpSlKUo2UbKUpSlKUbVkVNP3v+JYabYx98vyiMb6ZXYpSlKUpSlKUpSlGylKUpSlKLY1/eQhVF3f6KqN/wArqrT2IaZLvnyaQ1ua1Ri1vk3GLEKUpSlKUbGyjZSlKUo0WTHSfK00dje+iNBZJtnyOm1t7/8AHlZd2ZdWt0KYX0c/YxkXQzrLqjDp30FhO7ixlfdFcIb5ujTloyyrujIK7mZXtqYxn0TEs76jOBdXTGIuiM4vv/31zN43iuZX/wC7/8QAKhEAAwABAgYCAgEFAQAAAAAAAAERECExIEFRYZGhcbEwgcFAUNHw8eH/2gAIAQIBAT8Q4aVFReClLw3hpSoq/BSl/A7qeb6CYit/s7z2dx7O89m7aa76j207fZn+j5H0pvsd97F1nsa1W3sVmVP1lDG35CetqLSvPDltIZ6OLohP2b2LrPZ33sS0jS5ixUupt4DG8zExUm/J3h3Hs7j2a1ufFU6UOQubViUiJcDSSMV0j1QyrfS+RY3x/jgVPkaVFjQFshuv3v10Olj+8MaJstREDV7dlw6k+RYsqyEdPbmIkiURUUv4IqXwcSp+Qml3/lCT9P8AAvrpzV+juvJtqfkSFxL3jQVuyavYjkViVyL2NDe63Fv6DkOi4VqfIk8M74lqToJgOUvIlNOK51jUty0YhTa8DaSrE6Gy0RqLfT7Fn6/4xRHTmjs76E01UIRtsiz67HcQq6tCZ+Ww1L8l0XZoW6brhWr8iTK+IQTSVbEJ+Frc3mhVibR3h3Xk7wegbbH1K22Rvfo+vN/K+h+s0+hb0P5LuuW3BROz+x079Yw1WnUS+Y7rO6xlqZoT5Ga3Q7z9nefsVlNxD76BNrnCurK6vyV1fkYlW9/wNJ7nYOwdgSS2w1RJLbg7A0fISnA1RJLZYjodg7AklsNJ7kdCOhHQSmGk9yOhHQi6f3xtLVm6IMhPav8AQ+QmNeXsPp9yhX/Ym/6EnP2Fz2Fzk0MhbJBNPVf0+2yE9rY7sS9m4t9DCt0hCEIQhCEIQhBNlRsTfYnsTGdjXv8AoZEFeCVov7ZuhOi0RCEIQhCEIQhCEITEJiEJgBmyeBNW/GsbIkMfI7jmlZCEIQhBIhCEJiExCYhMQhMQWqofo1LqIanV+B52kWj25IhCEIQhCEIQhCYhMQmIQmITEJhxV/0QlXGyDZfYkQgkQhCEJiExCYhMQmYTEJiEJh61yfGr1OpCEIQhCEIQhMQmIQmITEJiEzCYXyLjfo7NxkIQmIQhCYhMQhMQmITEJmExCYtTZffHshtuDyNV1xCYhMQmITMJiExCExCYhMQg1u3UR1Crxs01dX9inYfXkzlA/Q+iwmITEITEJiExCExCYhMQhBjRKzmeIk530akb6rj99/ZDTXqun+GK5dejNQeG1qrsNNOMmYTEJiEzCYhMQhDsbAp8iWrUUz0jT1ohITzLjXyv7IQhpqdXRj+iT4E8TTNiU+CH8g17K/A17sTWYhMwmITEO1E7ZPwLlINe4Sd9R6epC2i03lxdjTEE8y408rIQhCEN7BfYn6GNxfGozzn6FoambqIvy9nSp3X6O4zuDuDvPR3X6ESRyI8kbepCOzo+YDfskjdWFFiEyuj5XHq+VkIJEIQhCEwrujYm8kdmEnYLr+juejuejvein/A+sx75vJvviExCExCYXR8rjuNbN0hCExCEIQhCExCYhMQmYTEJiEIOTOv1xqUW6bQ0aI0QhCEITEJiExCYhCYhMQhMQmIQgNu2lxuv3N0XFevJodxNOvLEJiExCYhMwmITMJiExCYYxBbTXqMT0TU4187+xjN10NTL1TNe0s3ZadUTEJmExCYhMwmITEJnYULWr0UdBpNl0Nn5XGvlf2JDHpGaSVdTTm16M3xCd38nJr8D2iExCYhCYhMQmIQgtdFqbAvJ1RqaRujNAWDrdZD2lxp5WQhCHQTo9Ru3gOlvkWzaaHuEGzbQa8mPktD6CGn/ANEN0yfJnZfg7rwd8LlpidyF0Bc1oXUEvdti2yG16uHOqNf8xvL/AIJiEPcXGnlf2QhCEIQVTqNhb7NwjGgucmJm9RUJ3IJ/Idh5R2A18nkaeQkGvq/0PkpjbkG3aIe6b6N3WTEJmC6PlcatU6kIQhCEIQhCYhMQhMQmITEJmExBZ8i49t2bn7xCYhMQmIQmITEJiEzCYhMQma02X3x8mFvwVW66kIQhCYhMQmITEJmExCZhMQgwi26iHmmuNrUabLhvzQt8nsMIRkxCYhMQmYTEJiEJiExCYSbcSrGb+JJLfkhPvhtca+d/Yx6Rj9EftfyJ3KNGrPDlV+CawmITMJiEzCYhMQmdmXkTzeDT6It9g61YnmXGvlf2Qg6rxi+i34Njcfca2qTG+gaN1OTUad01+hTEJmExCYhpzEz2UTOQmbuCVu2xbNQ57fgY0WDZrV5TT8rjTyshCEIb5I5QY7uL4OnBbsmPfJMbuQbOQ3c2dxk9T5YEvUnm2LqsSuQkchbRQe+aRzKiGybGeRG7qTEJj3Fx+yyEIQgkQhDU2Jl+xbRvsS936EndIXMQXMTyUK/1/wCH+xj5KR0EvA3bP0N/MN25v9i7EJiEzCG18rjeo+tEiYSJiExCYhMQmYTEJiEzCYhBG1LquNq85eyEIQhCEIQmIQmITEJmZhMQmYR9H4F8s/saxI8QmIQmITEJiEzCYhMQmYQ3cRL8Sji01xqvY0iRkJiExCYhCYhMQmYTEJhKuI1jQvZtq/LoqVGsaDZNTY0JSZhMQmITMJiEwje2pyafIluog0X9Hugb2bQ2QNW0Y0bhp3bwNNb4iJnTqJXYTNk/Am7JiZyn7Ez3YlbtsW2Rt/WQiZ2COhF0I6ES/vv/xAAsEAEAAgAFBAEFAQEBAQEBAQABABEQITFRYUFxgZGhIDCx8PHB0UBQgOFg/9oACAEBAAE/EP8A/OcT3OJ7nE9zie5xPc4nucT3OJ7l39CDVCcT3OB7nE9zie5xPc4nucT3Luj39lQ1Qgjo/Z5j3OJ7nE9zie5xPc4nucT3OJ7wQaod4M5D39rScx7nE9zie5xPc4nucT3OJ7nE9y/uJGi2EK+yvkfAwNFg0c5Za8lRKoZ3+WweGKHFQ88M8ARbMVHqGhKzpR3f6i7mL5yOqXdntcuyyJcPPckDpUS8WkZwrFGNGLlYQQfQUxeTI+YR1kYDbAUd9HvpCzvsxaI/T1jo3t0AWr4Igia4Fq9CtVLQVlDBrb0ZCi5qEugb6Zm0ELE0ZeeN5zpBRaYxPp+QeauOfTRQDgWvYPEfpDbcPBkMHzPyOJsxRkRQpZEKNXVYHLxAkpR2AoiqSy46iCFwYZDnzyRok1p+tam+JDA+mv4UvEMUBNBbOt3siZx6p+ZZqYqcfU7Uy8T3Szoe+trwMEAKDQ+4mvY5wDov6NcxUAbEj+6QLY4KrvlB5YueF32cNNfo/HJSmKgk7ipb5jDpCUU/hHmoxRwBpE6ktz05wHU6l7DcXCgpV7ysz+krSmuH0HMhJbC3wU3rHHALeI97VUJpEcxGPEbY3XYdgFrc5+nWCXhNVDLJoo9DvFMuNjSaZwz6/LY8zRZ3L6w36Y6TM4zP6yyHY7qEb7myB/zYg9g18tSg7pEBGc1zo0yfeN4E/QKlQsTC536So5LoM3lYyo7munf7s2+sUCBrdFfLQb29IzEjZRtVdWMLwojx0O13xB64anHkpP4n/GKBH73/ABF/2fiKQGovUULtwFBwTTP7V9YQhBmgBax7JNTllKd213gdnAF1vT0H/wDIXFVNI6rVXdh1L+vpcRZo6B1EYSkOznq2dxn2JtG2INVI3XZ0eGM/nbqYzORE8T9BaYyrbj+X1tTqrj5QghQRunWrjslnmcnA/RbF5jXSDdVB3iISO2zSLgAO0zxZ02WLn8hvgd5fuszSIas9Vm7G8cbe1KZGi5CchEtoHYCx+cRHMMaAC1ilSuyfSDdCu/EU63eLGnk6B1UgabADdahV+y6SiSWl+ucen09YBRu+iF/EYwk2w1D4oOW3rHApyES+ScDWwLCMPqnldVeqzf8A8S9Jd4UzSLnOQT4ioOga6gCj2q3AZfX0mSQ16aFpqXNCNOeZqBpPcpvAxtDX1BX+vllZnbj+X1XUtUK2wS1jqD5WGydgXQm3sFrwTg4DHpNWxLs6faPldoW4w7UoDywJAgCkxTsaOCEZeAZBnv5DXIS+lSClGoyhLruOor20HOzGrSjDSCsdhviIYXCy5oMgOzZ/Ia/Z/wCSoIpI/rnNvpY5c+RpuT8i8x/VQXRrdFUr2BSMyqXLly5cv7jFFavuQSdkF4AhsH2winRJWyNcFE6qp9zH5z9k6YiO+x/KZ3Rag9RlGwbHTKOpsaA0iORH6CgCoJvEaUdQoO4DzGRsTVFtV6qwLoUdXlI2FD1V2wZd95nDoFaB0bC12rrG9rOqG1PVVi18BctIjqZgdLXqZSgpzGNaUiu64jMPTSPV6CBLp3HROopASqSc8g5w6biPWddIvIOYAtewndD+XQNj8il2fZdJQcW8P3znT6SUFenhRD8pQhDdGqBQcAJ/Pl/Nl/Nl/Bl/Ll/Lkh/zlTiesJrrdRQ65r0gHrQFq1rd+30jmF33gQiN48NhHcftjEXoR0rar1GidRk+7j85+g9OF2nCAZQkBNOAMyOn57y8VgCKNROjGF9iWIWAoiZiRu+aAf2Aih/DvpRZcAr2gCOghCgAxBYkhQBmqxr6AlLVfMy4IO4VFFS9Vc1BM4IVrVazK2ru4/rzIDQYqwAKMh3zIrvpSA1ZuOo7JKhA67TztDU77JYl3lBeVLgI37qO38wurLTYD2Mqj7J0lQXNtG/3YafSRlm3wVB8o59YAsaVmJ4J9GZFGYGcS3b8IAuQJ6B1A+V+4l5xGyQC1OUN0R5jz+YItf1BVo2q9mAcvsleFZpNS5URQXf0Ta+2U3DUUop6g/ROiW3Y77P8sEuOqDtDDNE26nWss9UNrqBSJ0SJqHeVTWbuvPy0gH/OAHRE1MWqlu0EhP6yVZWjWvDsiN4gjC454UIsHN9gF70dYMscjoGa7q2rusRUTycbUlbLZ52R2xCFImiMa4LHKCq+Bm6WMdUABaFQ5RHmPKE4XFOayI2yfE6c/ZdJUU+/9nWHTt9RTTHUKv2PCYCsFzGhLpsuk8TKtJUqVKlfdv1DfPM0RKSN/SqZvdO61z2QGRgb19T2Hk6y8zozCosNRLzGX9h7cjoDVVi/02pRpPaMt2btF3HKaq1bwavBK6F0Tp23KL5n6L0YVb/rNi5MyxmTNd0sr/QDXNM9Wrn0lg4B2tomtnru20MeJKxHRHCs4U1SNi6N10DqsDcsJkWR9jXlXrEuqVugFX3eW9W6Q+VhRaf5g4z+lAotRkNdSwuoZmsMi+9ignzCXs9Ms0x3rJ5GMFkzq1La6uh2rrCqu/0khGPtUYyTkO9lcwDVANAceBqO5Ca8oF3XVA5Iw+w6YDO06/Vh07fUZZqeqB/MTMXjJ2x4ofZ0iPuALW2Q8i8lkPugsnZOiaI5k16/+RYk8MVub0bNO8RXhmI5iP56kt0a2fKZP5hBuZq3pPjB3/D+jZ25f8WYBAaCjsNYGpm7Pf8AkXvKE0IAtV0CJ2RpqMkHQNDUHlmrK5akV9l9A4AUUiWMUerqq1AdNWjneLOIrmjU9oO9or2aaCUQyTRm0fNPMuaqVtq5YKqq+KWgDdYRFpgFdutFrvb9YDjme6+zWwyc06xQolJkiS+gloPQL6vM44ZkgoWGWsx2KeiDvF/kanOYjOtTm0bJ8hZ0g+upQHOR8RhD+lD+5D+lD+tFt/2iwfE4NU6OoF9UgRFYAWqtlAwhZDcrmhYNdmB/RaUGhIQQYDK0BmsWG1FgXcCqLtddLihqUgdZbsc1ynWJ6+ac0ozEekWNyx+WDQzq+YHyKVpugnxgR/kR/gQQ/wCMf4Ef50X6JKCMr1bNL6C6TZdfuGlMOocCAbDpxOeyQrdlCUcot2Q3cKXDww/rn4j++/ifon+R/ZPxH98/E/Vf8ixC0gVgETpkjb/gFFRCEQGi2aHq4oIATRipAUQVzQGP61+IL3QgjQRzPpPuZFZidSZsuuSuZM1OoutdNK5S3MpxhEHkaaPSabTEUDWarzXYY24RRcq+0cB4tLGSjMfaDL6wRAiVTE66oTakZBCcIGkfLBZQMkyzQo2YmUQOkCaRAniXNHHDjoOJz2SNWRZlfS1zdhilIs0PZhwOPHoYYoM0CtDrBdeSjdbo1m5eJrcFb3VNtKHPMxYQHAgAcKAAIyjk2pBRbcCnWCgAAUQciMtcoIoaHRclJv0ipQgRjpen7BvBK1skO1RdpAPTw5sZW24Y5vqlaaDPdKXidQhpdmh2XrOv381Ud0J/HT+On8dP46fx0/joHofhKr6DsruLn89ANAGwV9QBEEdRn8dP46IgQhoJP4hBcjsK+zXZBpZc/jpdUW1orFbVnkMJfzk/nJ/OT+an89AAyKDBS0N0Gfx0/jp/HT+On8dP46X2Ya0V9KVqu6J/HT+On89P5yfx0r/4v/w6OGcuv7Llw7x11ld5WEtQeY//AMdEtfMJ/Az+dm0vhP4SHTTzK7nud0DmMGeoNxJn/wDXsOsHuu6gTOuaRjxdx0qHUfoMXTkDEi46MVeg/KO9h2nwETbYH84QlLHrkYAoO9KXyWjhvu5/lPmFgXvuCjM+9f8Aeag3f/rH9/8AzKNP2+ZRof67xyxdv+saFY0pf7BaINlDI2T9G0JAB/fVlD+yOiAyK1Cz6jfb1s+7h51Uj8A/KCt1BT3viVQ46RRZ6fDXhRghQLEUfUs3/wDmXDKW1AGaRGHtIYfKStLKnOHgD4ZUAmhiN8h/EvLbmCHKtPpEie0gHilnuXpy7/6hjNobrcvmWRbl7sRHlGF5ikvmLUti8xBHlHlO6XL5wXzF5iN53Rh5QasUdxnPqW+wlM0hQXuhX3FgC5lRwqj0yoTKDXW6JOxcuzDVCvuCfMN75V3DTkwEybg1NesdP/hsNNVuTOy3D7Rigv4hObRVason2IH3FiBUuVbUCP0mot3XON+scC+ZZgvmMMqZeDui1LZfMQRl5xi2XziXuxpGG/WKMC8xawXzGHlGWFrBabOEzI4W6Y/SsbE9FpHVSwvgJlh0Z9r0z67gIcIrHKew3L/9tcYdd41p1SuhrRq+CVtKwoN82vQO8VSNyNT0vb5EYvErTTvacKoxbgtS2Lg8pbFqOyXgtwYyRUYtwWW4Lc7orpGLcFqW4mFMYtwWo8sFsWozJhEacoYwxTKSrbT5Kxd3ULHfTLwHdDFPCl8jk8kylx7/APoUKBmq0ERJG5ZLYszhb4iTnUOcOWUeA7sf/tpPyljgXzgWpZiYYtF3wLFJbFixhhal8fQsjCIwwsslxbwUjPhH6Aw7IrLIwxbguFr+DH3EEjVLBZE4c77IVAywLYtQ2LF2hhFExEeon/kJ3iAq0HVnTuuYH6+zN4j7SaQxtqeTXEWtrcbYrMS4iMMXg7sFsuIIz3YLZZgWWREZcazAty4www4F4O7AsUjLCsswLLIww4SxNwBYYOlvlHZlwHBnB4telHvARlzEsSZHp/4hZhkFutfVLk5EtyAZXCNCezVjMii1W1Z3YXzLMC8xEYYXmMd0swXzEEZcYuIsRGWHBfMswLzERlhhbl8xSMMKyyMOBfODwwRGGWPCLzLIwxYbGkzEivrEnlO0rosumUoS4s2xyzRz0ayl5ff6aR6z5zA6DnU8vSMgxoU9BPl6xZfMWsF8xhlTLwd8Ytl8xhl5S36y2XzFiy+cDtjziv1iy+YtR5S+Yww84qKy+cDywK7yyMKi3L5xd2Bl5xX64XzGHlGLYvMYVHlAOWTWK3RJWYxvOhcQzu1N9RyZ4X8fcyZeZ8rdIZh0sO7lF3cdtXY2DoGRLIt4mOEWsF4LcKRhwFvEuJl2RtFwsi3FwMOyOJZHAti1HZG0W8KRZZKcxhjNFwsi4FYtRht9AtykKX6nJojB9aqyPIHZas6Lsko1+4UhQtg0OXSOVpE2G5PY1erbFjDNsvfAuC2LgYYYtxXwSyMOA4FrAt4LUZ8Iwt4LUYYW5ZGGFvBZfBLMDDDCyzAwwtyyMMLeJhhwljshmWkEbBahYy1dnzbovzYePuD3SMc2pDsoYYti74FcFuJhhUtwX6DCopluJbxMMP0BecFsWowqLf0luMMKZbLMC4LYsYYtwWpbGGFMXBbFixYxxCnRkXF3rdX22JQWzsp/BgXmWRi92IIy4FsvnAsXmII84z5RZZLMF8xEZcBblyyOAssjDaWxecCy5ZERlwWSyd8YW5cYYW5fMvbAgjLCm+BWXzgcQpvGsAFeTpfcVGUF6yHJXNsvnAw8sFsvnAsvnAwzb9Ysvn5wXzL5jDDfrhW4vOBwF5jgWi3L5wXzF5mSd0ZttFi84L5wLcXmOCty+cC8xljNL5jDF84L5jDaLWFRGGsdIpA3y+5VSgBmoPEJ6OuFUYtiuC2LviqjFsVlkti7xawqYxbFcFjrGLYtR2RtLYu+C2LLJ3xU8pbiVvGLYsYZtiuC2+BhW8vBbFwd2C2LHBti4LY8kOhmXUncXb7gF2WeJeMzqNoluFpYLtTvbLcrnEssjHfGHBZ9Awx4RhbwWou8dkVlkYYW8FiyyLcRGGFlmBYxbLIwxbiXeMNvoFuWYFjsissjDCyyLcXAw6UR1RdD4A7vSJC4DSAA2D4fcIjZhkDPzn5EzdHHWVybokXESrZ3JHoOuo7I4GHAuFkW8TDDiWRY7MLIwwt/QslkRGGFlmBcFssjgLeJblIwtxcC3iWWS3BhhZZgWIjDCxUggDvumNjVciZNxAVgzR06B0KJZSAmhL8ll7PuJ6V6lCCO9xFJOQTVBbUz2YXEmrK6DUI3IwG18n0AZPo8YF5xFIiMuMUwOAsRGWLYpFlsWsDLLgswMOyLcsjLC3LMDCCMsKYLYpgYYtlkQRthZFuMIjNovOBgEzxoReY8TpkdXpD52ke565eNDQjuhUKWBrLY1XYiPU9ZBaOh0DoQ+3kgR2QNXyA6qH0UDu4N10/1GS0EAdRHWWyeMptafVxSdo0/qug+ByCkaRp1jfrH9XhfMWp3PuMXzHlHlLfrF5l8xZfPzLi/tzujfrFfrF5lxi+YwvMXmMPLBfMWpfPzHnHlFMvmMXL5iy+fmMLzL5lP1lv1jylxbl8x5R5RTL5wPKXzCeCT95rIbrQQIwp7PvKnV4N1hBWiSMgBkAQa1gZtT6vPQzi8CVo3shu79TF9w1VIrY8sbXYOoaJ1GUwmF601p15Z94PQ5MDeVag3DMeRiOd6Ai8J49nrGtdSoPOgORSLvgsdYxbLIw23luK2WSyMsNpbFrB3RhWLGGLYtSyd0QYVuLvgti4O7BbgcG2WYFbxhlTF5lkti4H2tSnmrIOWiHpUF5oPk9kAKQVbe62ndhebpEp7zxVZCy0tc3oREGeak8uiOdXrGKPuOqokt4EitYUjuMriYQJd3Sc58sU/jQE2TMe8q0yhZHpEeLMvEbVZAtmw3T2ywZGUqb5FDuJZhERpEzGMMWv0LMCIyxbLMC7x2S2WRh+gLGHAXAt4l3wKywjDCrFrAu+Bi0XecJbLItzNd5UcZCSMswLGd5G+kWYQYicrRkalnpDM5VJ8lquVWN7QovqltwNV4M4r6WYC66tOWfBEL4fvaqZrFjF09NPtrJwqyMMKYaxKTZ6Jw5Q2pA9g6b3p2hJHMzW7JmPCQdoBVlm0NEun8Rl83LUgqAXBQh3XeUlpbkKgL3hECTWxLwsjDDCxZZO/BbLqOyNpbiW4wwwsYtxeEswKRhi3EsRGFMXeWS3EzPKTbsGcTJ+WU9bqqNkRCpTRAPDf2y8ovW60inUsp7VAAAdAqHaF26208AtrwZwzPRvh8J4ZO3SJzi9BPQMjsThFS3EdNPt1RpjuwLLJfaLXoUG7jMi8TII7FeRe6wBspHVHoZ1771DNvYwThMHtlDKxT8gq/mZ0oIvc+IGyI0FNSXeh8R1g1BoDrSQdwmbvKsD6Edk7o7IxZhYW5ZgeUQRwlI7ItyyLGLIxZER5S2WRbjCIzaKby9otyyfw9gAZURAiW3XMnwMdSjoF7oD7gCSM0M3qXvCiBgNHwiv5gBlE2ah42tWg8sDy/a7nZTJ5Qgy+sGc3BzPDrFUxa5O15BwRwl3lktndFY/c1VOll4FuXzhYYXmIm613dXeVXCg7R5Hqldsplx8ZCK6VvyuoK+7AU3yZrzEsgXfWDmxE6j0pGKAA5tDvSC9xjysWhmXTIXXmCqF6Pd7H0nT1D1QF8Q1CerDJoANJZ4BLKkR5jy+YwwxfMYW5fOD9Zxhi+cLDF4O6MOAWqLXifxZjwWH3nlf+yRk1IOe6x8QbMjNWngXwxIoQsX3GZXmPmEFdnKjbxDHbQcbACUdZUdoa0UEhqqsGyp68ztT/AFLepZkJ0dI+UO0hz9G2UPm4qVbXVWMXzL5wPLCwwr+5SsnCl8xhhWXg74tRbl84B4M3cXvbPzDemlLHc+SZ5XIsjl/wuX2dVAO4Ee51j8jfA3DbAcMdJdTySjtCEelIbZ5ir1zWvOaH9blh4pygHYMPYbPiKpJ0Aj3b5jd6eFvZAVXen+C5boHQC/iX/A3e9wu1HvJ0TtL/AETROy/1gOv2/wCszv2vcdz/AHbS5rnaX+KK5A3szX+O/CmjdzB34h6460vwwW9Qi3t/BFEuahr1b5lz5ALuIPiWPTUEe9s469H615zQid5AgPUyl7S2GWcALWql7ChyveluDg1lfXaij3SFgTSn72PzBLQgrV5dXyVEy1oSdxNHgjCoty+cDyiCO2LcvnBbF1JJp9t1MmLYtThFZfEtxMK6Ri36FaI6t+yJdVh/uTSFLJnX3SH4hImXPLDsZ+4khpmMO1yvEtQCj5SIIacIHxdz431lj1PcCPeZE/dZUrmZy3aXLlzwS5cqVgmcCpXEyNoZYG6CNIkFo/8ALKFrOxu1G4ElbeVL2CEFL0w9gwmGFF3YJr4lIUChqbIA+YuUm1TfdYsdkbfQXKRRFxW/QdlJNPtuJWRcFsXAwwtYr5wLLIww4lkviK2nY1GxdNGg9CZQNtafKVgY5X8RMXuC29EbEo1HZ7YEAx6jfD/qVXNf7gh5edbU+GNHhv8ARDs+2S/iDqIgL/3xXr78D08xAPqCfmLTzX+yfCCP5gpFej+KGXxsSnwF+Yw0nQrPUAPD/wC8xLti791cWsvYfgS2BdFekJrX3FwIwXUYcRal8REYYWWYFixZZgWKEGn21aOS/crcFjCorFuWxaxLUYYUYlqLeC1GGFRbxLcYVi7xhUtlsWpbgtRbjCiLgtYFluDDC3gtS2LGFYLUW8bYtYlqKimL7nI/V+jlZQ9Swz3Rai3LwXcsiIw8sCyzFZGGXlisjCMC7xEYYuWRYssiCIjLCyyMd0YXmUjDCyzAjeMOBeC3EvOBZZGWFlkW5njAAyNT0c3xf3HZhRFpGR3TluIqKJSZIy5fOC+ZeBh5YL7y8F8xecDTrHlFS+YvOB5RTL5jHdLS4vOC+ZcY7oxaXzF5wfrPAvMWMKl84u6Mqi3L5jFxecF8xheYtYi8y8F8xhkWp0aGQ+fQfcf1swa5PUeJkEmS0NjZKvRqdJbFrAyrpFluFmBcDCukYtxPKMWxajsjaW4LLZZLIww2xvvFwKxYwxbitjDC4rcSyyWxYw2lsswKxEZYWaKypDEVdXqrQPVLGO6EoBUBwH3Axr4OTeHdtCkxDb6I9A5iZjCgy6RfSjQenU2jDisi3Fi1GGGFvEv7UdkW5ZGGFuLFwsikRGGFlkWouC2WRhhXEtxhwFi1FvBwWS2LUYYVZZLIssjhLvFqWwmXVV1DuJpytolOu6HNPUZq9tAlb1aQBE5VfcIlFPogeIG0kuQmRNlzHqMW3eyB/vUekcBEbLubQZluZhV3mwqAopEpGLeJhhhbxLcsiyyMMLeFkXCyIjDC4WRbiItxd5SMLeC1FuKRwFlkW8LIssI4jC4WRbikYYti1FvDVAFWOhCMGzJqbHYdZRgFUW9U1V1XNjLDZnQZLqnIIgVzSyIS7UPupmHobuRdS9BnT40ZbaBk5vqHROpBREsgpsPYdTlfYd7jAS1c2uTk8NPEYbYFlkYeUtF3iIytRblmBZZGkYeWKyMIwLvEEZYXmWYHlGXAswLiIwLisLLMCkaRhZZgXmWYKaCBnmvkVrWbsMtSOJ+69RscgQKYygKDxE0vowEs1o0hZUnVzo6DusZ9y1VhlB0StqN+xoPkgMVVQr0TqbJkzpEgYCG2RyibDmgt2OvjZxCQ20t8KO1HA8vmKZfMaTujFxecF8yyMNOsYUy+ZcW534LjSPKKl84L+3HlhVgeXzguLgvnBfMWowpl8xai3O+MMKy8F8xai3L5j3s2z1kdhXiLnKs4vb8bTXXWGM0DF2DAhmOQem1SsWTbqTk3waHzO6XQ00+2qiTsjujLWuoeyaJw5QX3U4t0vd507QYohwHREl5WwQp0IDqI5RuyZtscubxTzEbeBUAzzQvLol4iCsQIJwCNt5bFwWyzAyw2lsswK3wWyyMNt5biPKIIwrvF3wWxcHdgti1GGLZZgvAypi74LYtYFRhhUqXYLNbcKljiwQoQfbsHZPlolJHTDbAZEqBMdVgG6say/QXnHWbeSRvzufSuiy4DbO4rgsjhp9tVh0tRpGAe7WxvqTm5pLmDCA/CPSHXsViJuJC0u4MWKSHyZRC1JM4+4L2ZnrIltBvl+BQUMzA3YpT4YtxhhhVi1gXBbLqMMLeC1FuOyOEsYtxLGLcGGFuWfQOAu+BVi4LYTWAgxOlBXkkyMsUQ4W58dxKhOEbT1LMkHFxq6VV0WvKzSGkQmMtVQQ9hTWidN4yat4mVuY95l55cR3MYcQ6afbdRplhYuFktGS1+ytp4qZdELNnd0PFweVDkcDUHhJrr8SsoFcwDYoADZGdVd7/wz4l2ht4UhYDlimwlnpAn5iWy5rxPyj4v1UjwxGBd4wxbFwLcRGHAtfSIwLvgYthZFuMMNpdxTEFypCFfEBVuhtuSB5Z1Hxe+3+iWa2tuts8nYMZ0JWW8ZPiHzAMY0ACgwFYsDGNt97C2wcAiWyejmUdg/wBhu6Q07Ub8jGGFcFqWxX9xxVg0XeWYF3+hNPcCBNMxml+tHsAC97MMRZSM13zHmhvBNvLyQcrM9QCXdk6S2uY6QGgJyXDDuot3NXHbYsgR2KgmyRkfvuEMpr6W8h+McVctWPTb1C1+M3Da4WhRpQ/YJZGWF3lmBd8CyzAu8cFYu8swXGkYWHBpoXnowsnqyb2CKLoyvuCEN3lBS08RbySyqvix8TbGuvcxi3hLEYdxS4GALoFTxDR6y4uekOsBbVa2Ft8S0yEOYm9djuGU6a2FzPpoZbW2SP8A9UwfKMWxZZgsjLC+566nS3L5i8xwL5i1GL5lsuLjK0ydxMycn4Q82+UBNSCdHaRfCBuDNgHalnmAMldbz6IOspmEZfadZ0jAslOoQqith/Ig/wCrXWLsm6/9MhiWHU/5Ue27omR4YWPBI/mLfg/82Vpl+g/5JKeH/wAKTVHb/wConUnuEPTwezRoeyw+fpB0Sp53/RgynfBXymDEXqfIwIDUagr8oAGzVG/qHL/VDJJdi8D6Ygo30S+yGM63/GEKdAmnEI6YLbFAtYuaqGj2ILfsWCvp5XHr4V/Dn6QlDaIcr0r8ruL7exNuorHlG0vnAtx5Rli+YvMYeRf3JVRphTLYpgYtlsWMM98YtwzE5KB2TOMlaEVfzYMXL+pvIIIESDmQh2AsoDRlHX3p9ykuchj3oTzOZvE/DACxE4lkuBLlYZ3MsbJRjYzKXzhnFdp+6SnDxEBm1ODqQ9rFQytfjAVWGIeafjkh8MHJnOwci35hg1ehwHtG+jDv4Qj5tqpd1XgYVLYtS2MMMWxYxbiVxk0+4iswLFqW4mFYtS3BcLIwwwuK4qmjS+mGno+r5E+I8OmA/mgvlhdPaiWgO3Va/IwFvq/8XA4PNVA8l/iDHbH5AxMCz1/PQs5jo9D9OvdH5IHlv1M5oCeH/YaTDjoHKeT/AGftcOIlRezfwQFWj0LYWQodf8ojtEdH+aRhCOiEfYjza158Qm0XQ/GwVXbw/KhtStpwpFMvcEoPiIjWa2vtizhFuWRhX6TDFuC1FvBcFqKsUJNPt5w7S+cItxZSMsMW4lxMMLFwWot4mWGFvEt4FuWEYYW8SyyWbRhhhcFqLeC2LGGLcS3KRwFi1LcSxGBYww4yafba+gO9r8Yu0cBi2WYikXaMMOBYS9sCxYww8pbLix3VHZLZZGkbS2WRdosUi7REaRwWS9owjpLZZGkbRblxYu8QYy7yzBZF2i71LMCkaRwLCLcMbadgjO4z/cy4ZYZpBXevQM/Wctl8xYsvmLURHn8x5Ri+YtRbl84GHnHl8xi+cCP1jyjF8yk7oxfMXBfMWpT9Y848oxfMX9uMd0YvmII8o2l8xaiP1jyjg3zHlGL5wWPLBfMQRhi+YtRbndGLafsZlto7K+v22Vd0JYAI+LgUMVZI63lB8PXBfMsjDHdgvmLWC+ZZGGXlgvAtxwF3iIwqXgwssjDDDF8yzB3Ri92UjKouC2MMMXziWOA8sC7xhlTF5lmBYx5S2XH0CZGli5W3QdVIBc6aAZfjN3+5Z1GOqVviDwqJGhyT8nUjr0I7nMusNzUcmMMLFln0jDD9ApiWo4i4FlkYYcSzAuBblkYYXEUwP0BbxLGFuWRwFlmBcDCyzBWyZpXbMAzVglhZAo6G1iB51YRFRTMet4Q+5YknVoUk4UkKS+htTquRse0CkNjtr0XJo9YnqFdU6DnldHJ6LFxFwMKjC3FwO7EtRhi2LgWLWBhhwLWBYxbFIw2wLWBbjDCsv9rBbF4wLgti1GGLZZgXAwrFwWxagcChQ9c9joz0uruE6NE7LdXpsGR3thHAIBFqrFGsKL6WUq7/AHFUGVET1WMqG2zs9Mz74KBSxEjvsFwPRGUkisUC60unCVyEe+wSd2dTkyiIwvMW8S7x2RZZgeUW4uKyLEdYwwssixY7ItyyNIwt4XtF3iOkZvtFixbxLLIt4GkbRZZFiyyM2ixdpbgsO/x870Bmxceolxh2DyZ6kFWY8A4NWFmMpKANVYod5JBdbqXV6ptr9za6kTD29e7Lrbr1PcmeTdC8cnZ2TqMc5VhFAt7jmdtHqRDtNursdPcdMmNfevHM4GGFWLzKRhbi84rlkRGWFi8xh/VxhheZSMMLzGGHlHAXmMLcvnAw8sF7sRHbGF5wL+3HlEYL5i1GL5wLcu54E+wCsZEYo0NjT3q+IHfq9xvMOCjiaxuXRo2qrD2bbFS8zrXfXgatm1zeZd9w11hsth9dswLk6cGfeVQ+rUdVKDe2e5DBdUqCFvUfgZYilA0cDmeD3gWkoP5mYL2aeI0yqKlsu+uJfMsjDDgXzLJbHAXeMMql84LY8oyr6BYstjgLzgYtL5i1LZ3RhTLYtYF5i1LY8oletWtH0XVpd8QNpoDyDIG3yELLhTnzAu11Okq3iK5osl0u2TsEYKwu5byT5ko6GC+Yr+56qwyLGC9AQAaImYwylcJOAdKeXMqp8XWuovNrcsnaXAF2hAHUSO5yWW3dGbypcAlqU7UI+jxFXWQb+lAoChpHJJcYYeUYtlmDvwW4GGLxHlGFYO+MW4u7BcWowplsswd8QRhWLzgvBbLbq841laKFledJ7lBmCgXCqHtfdj6UCWImiZT4tywArBoDoBkTxOmcPly1W9htOxC4GlhOV5xl65vZlg0yd+VmxpGFRLHDT7bqJMMMLgLNiljRKEZlDMl1OCfB5hBmQtEu1noYIatFXcyrSWxwBOjncL1py/G/KXI20Ins015jwnciE5CnhTN0C6aOuYB3ioYaQUjFuNIxbKRhwLUWou8YYW4uBbi4FwXFIwxbLItxcDhLgti1AXQV2C4/X2g0bgCOzHFEFXJbC58IlSnM8LxmvmLL2Iwu5cOxRDBcoEAOAl5y6ioAaq1D6olxcdRk8hCjuQwTc6nbyiblLBd18RhwFqLeH00+2qhV8xblkWoty4wxTAmshHS1gdqjNaOiVd1PwoOCltfepkXW5ZBqVoqyEJppEoJY9GDCtipeKWeGXFEoJLe1nsjWQSma+hoTwwNHdFQeURldK/dgugmw7qz3yxS+dUL0xai3HZG2BSLUW8F2ixEW8DSOyLFrAsRHEDM+ik+CIjDUjBH5Z2kUK9vGiqoJEVZvjw+WEtcXuAD4INS6qW8i/mUIA2CpdEu4d4qQG7kRN3g92vXqVKylQO4c3ZTxHXOuYBnlQ2M3Uxa2trvGFvBaix2RhZP3MePRfMRGGF5wfrPAIRFEzEY9vl5k93wlEfyUofJfiAprh1LrTuXKES2upnyz+JcBHRGyOcEiwZfEOyHuXLgrqLvlIuw03TzRgDvNh2BfEvzWlMeE/mFJvoGPSS/dGAX2Su1PS9kEvEnv0x1KvrmfYmoD9BlKX6BdJ1BO1oF+p8zM0f23i3yAfmP0GredNzP3GUQvf0WQ0q3oyoCx1Awind0+WI/EMd2VD5IPOp0V8XgcAdYPgHxCBfQn2JQQ9fnOxINAw0AGGpBxQa5d4oFdTRwXb4iiBVnl2b5IuWFJDzlHi2JbsYMu6pPYseKFoKu6sYtl84O6MMKsvnA/uEqJIjyjC8xal8xeZbL5iCPKPKd8XmGwDMUE9RkEABGbFgHaVw6rXq4Sr8MrFihKN1FIWK1dT9wSMJwuy9LshxA0GPZLnmXNWVtLZSdZcv8AbmcqUTxPEriVxKJ2mcv9uXK5mvSUQeIk8y+Y3ENUAPcMvJbpH0wUBsp+bUD4YUfnNyeBHqWXBtADbIGEgxLeC9QytcXGbVa6O6ucQR5RecF5i8x5R5Rt1l8yyLcvnAr+4Q0mVsWoxfOC4sYY7sC84r5lmBnuloounhbwNQg1VAIfRYbKNVL5J8RsGau3w3+Y8dhF8CEeCrqkHsfiBBZ7G85fmBlB6pegShLTT/uSAGb6WIrs833+wWxzcEE0Twn8tNj3kt/7R1geYhqPhEy2jshqlm0/LFkcNan5gZyHW2/DC2qmoPQZxItNkfJSJSl0omQq6Kfh84oFGoR3AXGHHTy6U+JkxPQpfQxJLpJO4uoiKqW1XNwLvGHAXnEeUYVFuOAvOLuwLWkmn2wTEsRNpLFuWxajDDC1LcFwWowwowWxai3iYYVFvBai3ErdcNTo37B/sznthf7PhhMfCFEaIsE2+WpY+adRmPfU/wBnyfr/AGZh3leBxFqXzGHZFuUjDgWpcYdkYVixaluCx3R2S5ZGHcpNPtpgF3dH+CWRhj9KwLxgsWWRhhhYssi3FvA0jDDC8YFqIjsixSOAtyyLFuWRhEYWLLMCkdkW5ZGGF4wLUWMNot4OyLeCxd47ItyyMMLcsmv9xXS1PY+2xkLyGfRLgAQwxbLMVmBhxLMVxEYYYWWYHlgWWRhhblmKyMMMKYsswd+C2KETGFlmB5RBGFuKb4LZZFi84LZZKxwWYFiCDHbZHTmnBrb06fcKk2ReSanI5naX4l0C32iuzZiWIjDDgXzLMF8xh5Rxi4GGLZZgfqCyMMOBfMswMWy4w4C84GHlGWFxFweEYYXmIjDF8xawLUZYXoQAUD0GgWrsQCBJXBGb11RfuaS1OgFFy19yHZz3iqu0hD8myZMYZTfBfMWsF8xajDKsF8xajDCxeYiKipfMXBfMWowyojF8xajDDF8xhhbl8xai3HlHBXmLgvnAseWC+YiMMXzFqLc7oxaLzFqKJmg8oA1YEzDmkKbd9NxKMjP72X0B5CZhmux1LyjbSbJfTaJW5gtS+cFqMNo7pfOC1LjgLGFaS5bFqXzhZF5jDC4XwxYwwu+B3S+cFqXGHZG0ti1F2lsWXzFqLF3i1FEcFkWLGG0ti1FwKTouKLqzQOqyIMWfAU0zF69FlvSjX/wM+i0iqnLUu8RmvGbyDXI6tSyRETUSMMOAuI4CxhwFv6FkYYcJblmBTAu8WP0C2IjDgLWBbxLUYX6AtyzAsYcBawLgtdCLjCJ4N520+jk6QZUYQY116zaGRbUP/EThY6jNlnsP6HuU99Is+mox1Bn4ju4rUXEtRUYtwXFbjDD9Au+C2LUYVgstwYYW8VuCxcFxQjCmWyzAsdkcRi4tS2Wy5CBy73NRwV7GcqiQJUbPmX1t2ICgQCgNg/8AImU76Q8aUmImyM1I01Gb/MUPMczcrInLn7Qv5bK+zQkswMWxecVksndGW2FyyMMLcuMPLBeB5Rh5YF5wLcvAuBi+YwxbLlkW4iMsXzLIrLwLzDqqUOaAZrwRtylkV1HM10acytCVA7jUccEHUQPAdAMiMeMv/Rm9JVDggGbs5nhjDuFsp2BXcfCOJ+0+Y3r/AKR8RIsxqILwvmWR/Vz95xRFl8yyPKMKxeYgioty+cC3GHAXmMWy+cC8/MYbS+cDDaXzLItxhi0vmMMXzgXmZbVEm7BnHc0uvI3MxvlR3ikKGwuLCOxGVQoE/KtdrqXR/wCzSViMfquocUs9zWygFs3zk7AIoMLKM6GYp8hLJ/1sYEffVII2RzMFqWxwFwO6LeC1LYsVG0uLUtxLFqOzEw7MLJbGGG0ti1FwWo/ZqBavBGltRxPNZ5YOGQk3QhA9lENTK1+j8HEp52lw3t2vcCiBx8xyYf8AwxKQTZi/MRFwXqLYeSXQ8dSHrkPEuXuaDXjIPTLywWr6OT1BYyIaal7XV9RKfaj3gDFTJi4FuKRhhbl/SKYFlkYcFkW5cYYVZZLYldZJDsBYAlaqyQWFMDdv2FwqUoIiHYdfpDTKUhJvEPIAqYaXS1ysIADoBRK/+VeFeZpgHuFJwnIkYl42o3kDFi56EHYuo4ydH5APuLHwVfY/zC6O0WPwkapTTOPhhkEDqQ+lgbWEqWVcdbD3F9lusI9S+wo+eYf8mrF3/wCES1L9No/vX4mT9iT/ACfBsv8AkYp7hIeBZyBtwcD3RQQIZlEgUWdHD0n4l4Kdc5PCfmJijqjPIEdXBC8I/iGE/R4msI18nIHcCHxCi8Oqn5TQoMRdgIA6R0hpg0/+ZX3KlSjqRXUPiK9bwnyiF/yOoXv/AMorq/7bT94/yfAgX+T4NAf5Kf8AmhoC7EoaBKlf/hv/2Q==;" parent="1" vertex="1">
          <mxGeometry x="920" y="695" width="147.33" height="160" as="geometry" />
        </mxCell>
        <mxCell id="PyQvktIJ5xe1rFf7hKC--71" value="&lt;span style=&quot;forced-color-adjust: none; color: rgb(0, 0, 0); font-family: Helvetica; font-size: 16px; font-style: normal; font-variant-ligatures: normal; font-variant-caps: normal; letter-spacing: normal; orphans: 2; text-align: center; text-indent: 0px; text-transform: none; widows: 2; word-spacing: 0px; -webkit-text-stroke-width: 0px; white-space: normal; background-color: rgb(236, 236, 236); text-decoration-thickness: initial; text-decoration-style: initial; text-decoration-color: initial; font-weight: 700;&quot;&gt;DCM Oracle Instance&lt;/span&gt;&lt;br style=&quot;forced-color-adjust: none; color: rgb(0, 0, 0); font-family: Helvetica; font-size: 16px; font-style: normal; font-variant-ligatures: normal; font-variant-caps: normal; letter-spacing: normal; orphans: 2; text-align: center; text-indent: 0px; text-transform: none; widows: 2; word-spacing: 0px; -webkit-text-stroke-width: 0px; white-space: normal; background-color: rgb(236, 236, 236); text-decoration-thickness: initial; text-decoration-style: initial; text-decoration-color: initial; font-weight: 700;&quot;&gt;" style="text;html=1;align=center;verticalAlign=middle;whiteSpace=wrap;rounded=0;" parent="1" vertex="1">
          <mxGeometry x="930.49" y="860" width="126.34" height="30" as="geometry" />
        </mxCell>
        <mxCell id="PyQvktIJ5xe1rFf7hKC--72" value="" style="shape=image;verticalLabelPosition=bottom;labelBackgroundColor=default;verticalAlign=top;aspect=fixed;imageAspect=0;image=data:image/jpeg,/9j/4QC8RXhpZgAASUkqAAgAAAAGABIBAwABAAAAAQAAABoBBQABAAAAVgAAABsBBQABAAAAXgAAACgBAwABAAAAAgAAABMCAwABAAAAAQAAAGmHBAABAAAAZgAAAAAAAABIAAAAAQAAAEgAAAABAAAABgAAkAcABAAAADAyMTABkQcABAAAAAECAwAAoAcABAAAADAxMDABoAMAAQAAAP//AAACoAQAAQAAACADAAADoAQAAQAAAMMBAAAAAAAA/9sAQwAGBgYGBwYHCAgHCgsKCwoPDgwMDg8WEBEQERAWIhUZFRUZFSIeJB4cHiQeNiomJio2PjQyND5MRERMX1pffHyn/9sAQwEGBgYGBwYHCAgHCgsKCwoPDgwMDg8WEBEQERAWIhUZFRUZFSIeJB4cHiQeNiomJio2PjQyND5MRERMX1pffHyn/8AAEQgBwwMgAwEiAAIRAQMRAf/EAB0AAQABBAMBAAAAAAAAAAAAAAAHAQUGCAIDBAn/xABIEAACAQMCAgYFBwgJBAMBAAAAAQIDBAUGESExBxJBUWFxExQigZEyNUJScqGxCBUjM1Ric5IWFyRDU4LB0fA0RFWTRcLhov/EABsBAQACAwEBAAAAAAAAAAAAAAABAgMFBgcE/8QAPxEBAAIBAgMEBwUGBQMFAAAAAAECAwQRBSExEkFRcQYTImFykbEyM0KBoRQVIzRSwRZTVKLRJGKSZHOC4fD/2gAMAwEAAhEDEQA/ANqQAAAAAAAAAAAAAAAAAAAAAAAAAAAAAAAAAAAAAAAAAAAAAAAAAAAAAAAAAAAAAAAAAAAAAAAAAAAAAAAAAAAAAAAAAAAAAAAAAAAAAAAAAAAAAAAAAAAAAAAAAAAAAAAAAAAAAAAAAAAAAAAAAAAAAAAAAAAAAAAAAAAAAAAAAAAAAAAAAAAAAAAAAAAAAAAAAAAAAAAAAAAAAAAAAAAAAAAAAAAAAAAAAAAAAAAAAAAAAAAAAAAAAAAAAAAAAAAAAAAAAAAAAAAAAAAAAAAAAAAAAAAAAAAAAAAAAAAAAAAAAAAAAAAAAAAAAAAAAAAAAAAAAAAAAAAAAAAAAAAAAAAAAAAAAAAAAAAAAAAAAAAAAAAAAAAAAAAAAAAAAAAAAAAAAAAAAAAAAAAAAAAAAAAAAAAAAAAAAAAAAAAAAAAAAAAAAAAAAAAAAAAAAAAAAAAAAAAAAAAAAAAAAAAAAAAAAAAAAAAAAAAAAAAAAAAAAAAAAAAAAAAAAAAAAAAAAAAAAAAAAAAAAAAAAAAAAAAAAAAAAAAAAAAAAAAAAAAAAAAAAAAAAAAAAAAAAAAAAAAAAAAAAAAAAAAAAAAAAAAAAAAAAAAAAAAAAAAAAAAAAAAAAAAAAAAUMA1LrD1GrK0slGddbdeT+THf/UyXP5FY/F3NdPaai1DxkyAXOc5SqTbc5veTfjxNFxjiF8EVxYp2vbnM+EOg4Hw3HqZtmzRvSs7RHdM+9enqXPOp1/X5793DYzTT+tZVqsLXIqMZS4QqLk33PxIxKNb+DWzT7n/uc/p+I6rDli3rLWjviZmYn5uk1HDNHnxzT1Na/wBNoiImPk2Y4NFTC9HZx5Cy9BXl/aKPB97j2MzQ7bT56Z8VclZ5WcDqdPk0+a+K8c6z8/eqADOwgAAAAAAAAAAAAAAAAAAAAAAAAAAAAAAAAAAAAAAAAAAAAAAAAAAAAAAAAAAAAAAAAAAAAAAAAAAAAAAAAAAAAAAAAAAAAAAAAAAAAAAAAAAAAAAAAAAAAAAAAAAjfpCuera2lunxnPrPyiRcZrr24VXLW9Jf3VN7+8wo4Xi2Tt67Lz5Ry+UPQeD4vV8Owcudt5+cnAFxxuMr5H1qNF+1RpddL6xbV278Gm00/A+Ccd4pW0xytvtPk2MZKWvekW5127UeG/N7sZkauMvqN3T39l+3Hvi/9TYGzu6V5bUq9J7xqRTXvNcDPdEZt21w8fXltTqPek2+T7jc8F13qsvqbz7F+nulo+O6D1+H19I9vHHte+qXQAdg4kAAFCp5q11bUFvVrQgv3mkY9eawwlq2ncdd90F1vwMOTUYMUb3y1r5yzYtNnyztjxWt5QykEa1ekSipP0VhOUe9y2LnjNcY28qwpVoyoTlwXW5b+Z8tOJ6K9+zGau/yfXfhPEKU7dsFto8pn5M4BRNNJriipsGuAAAAAAAAAAAAAAAAAAAAAAAAAAAAAAAAAAAAAAAAAAAAAAAAAAAAAAAAAAAAAAAAAAAAAAAAAAAAAAAAAAAAAAAAAAAAAAAAAAAAAAAAAAAAAAoVPPcVY0qFSo+UYtv3EWmIiZkiJmYiO9A+o7n1nOXtRPdKSS93AsxyqzdSvXn9arJ/FnB8n7zznPeb5slvG0z85eoYccY8OKkdK1iPlCSuju360b64f1/R/As+ssI7C99bpL9DXl7W30ZGa6ItfQ4WnPtqScmZFk7CjkLKtb1YpqcXt4PvOqpoK5uFY6bbX7Pajznm5C/ErYOM5sm+9Jt2bR7o5NdwnKMozg9pQknF9zR33dpXsrqra1l7dN7b967zoOTmLUtMTG0x/Z2NbVvSLRO9bdPfCb9PagoX2LjWr1IwnT9mp1ntxXbx7zleatwlr8q5677oe0Qdx2a60kntuk+D8yijFcom6jjmojFSsUr2ojaZnvaK3o7pbZr3nJbszO8Ujlt7t0l3XSGm2rSzbXZKT2+4xi71bnrpOPrEacH2RWz+KMcB8OXiWty775piPCOX0ffh4VoMO3ZwVmfGec/q51q1eu961epU+1Lc61GMeSSK78wfFa1rTva28thFa1jasbQHCovYl/z/AIzme/FYytlL6la01wbTqS7FFf6k46XvetKxvM8oVvkpjpa952rXnM+6E26dq1auGspVPlejSL4ee2oQt6FKjD5MIqK9x6D0TDWaYsdZneYrEPMc163zZLVjaJtMx+aoAMrGAAAAAAAAAAAAAAAAAAAAAAAAAAAAAAAAAAAAAAAAAAAAAAAAAAAAAAAAAAAAAAAAAAAAAAAAAAAAAAAAAAAAAAAAAAAAAAAAAAAAAABxbSTbaQHIFpvM3jLJf2i7pxfdvuYfe9INpBSjaW86kuyT4RPkza7S4d+3mrE+HWf0fZg4frM/3eG0x49I/VIpjupb2jb4i8bqJSlTcYrfjuyL73WGbu90qsaEe6HF/eY3UqVqsnOrVnOT5ts02q45itS9MVLTvWY3nl1bzSej2aL48mbJWOzaJ7Mc+nvdcfkryKTe0fel8eBzPRZW/rN9a0H9OpHf3cTmqRNr1jxnZ1drVrW1p6RG/wAk+4e29VxlrR+rTRczhCPVhFdySOw9Fx1imOlY6RWIeX5LTfJe09ZtM/NHut8H6xbev0Ib1qS9pL6Uf/widNNbo2WnGM4uMlumtn7yP59H9nO7rVXdVFTnPrRpx4KO/YaDinCsmbNGTBEb2+1HTn4uk4RxjFgwTi1FrRFfsTtvy8EUOUVzZ6KFtdXL2oW9SfktibbPSeEtdmrWM5L6UuJkEKNKmkoU4x27lsYMXAMk88uWI90c30ZvSTFG8YsE298zt+kITs9G5252cqUaMf3+f3GR0dA2tKm6t7ey6sVvJLhHZd+5Jraim3wSIf1bqV31SVjaVP7PFtVZr6TXYvA+jUaHh2hxdu8Te34Ymes+UPm03EOKcRzxjx2jHX8UxHSPOWNZWrj5XDpY+gqdCm2lLfdza7ePYW0JJL3HKnTqVasKVKPWqTaUYr/nI5m1py5JmI5zbpEfpDq6VrixxWbbxH4pneffMy7LW1uLy5p29vDrVJvZeC735E54DB0MRaKnH2qkuNSfa2ePTGnaWJt+vNb3NRL0ku7wXgZWdbwrhsaekZckfxJ/2w4zjHFZ1N5w4p/hV7/6p/4VABu2hAAAAAAAAAAAAAAAAAAAAAAAAAAAAAAAAAAAAAAAAAAAAAAAAAAAAAAAAAAAAAAAAAAAAAAAAAAAAAAAAAAAAAAAAAAAAAAAAAAAAAFDxX2QtLCi61zVjTgu1nqnNQhKT5Jbv3Gv2by1fLX1WrVk/Rwk404b8Elw395reI6+NHjiYje9vsx3ectnwvhttdltE27NK/anv590M0yHSA+s4WNtuk/lz5Py2MPvdQ5q9UlVu5Rg+cY8F5FnByWbiOrzTPby228I5R+jstPw3RaeI7GGu8d885/VRrd7ybb729/xKlYwqTe0ISk+6K3/AALzZaczV7s6do4wf05cPuZ89MWbLbalLWn3Ru+vJmw4q73vWke+dllOPWW+2+77kSVZdHrbTvLttfVprYy+y0vhbOMepaQlJfTkt5fE2mDgmsyc7dmke/r8oajPx/Q4uVJtkn3RtHzlC1pisney2t7OpPxa6q+8zrT2jr62vre8upwioPf0a4vfxJNjCMUlGKS7kjmbnTcE0+K1b2tN7Rz8I38mj1XHtTmrelKVpW0bT3zsqADdNEAACgBgGrdT+pwlZWkt6801KSfyE/8AU+fU6jHpsU5Lzyj5zPhD6NLpcuqzVxY45z8ojxlbtYanbc8dZz48qtRdn7vmRslstkFvx3bbb3bfbv3+IbSRw2r1eTVZpvb/AOMeEeD0LR6TFo8EY6R8Vu+Z8VeLaUU3JtKKXbuS/pPTKsKSu7qCdzNcF9RPs8+8tuj9MuHVyF5D22t6VN/RXf5klm+4RwzsxGfLHtfgjw98ub41xXtzOnwW9n8do7/dCoAOjcyAAAAAAAAAAAAAAAAAAAAAAAAAAAAAAAAAAAAAAAAAAAAAAAAAAAAAAAAAAAAAAAAAo2ki31sti6EurVv7eD7pVIr8QLiDw2+Tx1y9qF5RqPujNP8AA9wAAAAAAAAAAAAAAAAAAAAAAAAAAAAAAAAAAAee4p+loVYfWi18Ua4VaNShXr0ZxalCpJNPu3NljA9U6U/ODd3abRuEvajyU0uxml4xosmoxVvjje1N+XjEt7wPX49NlvjyztW+3PwmPFEYOdejXtqjp3FKdOae20lsvd4HA461ZrPZtXaXbRMWiLVtvEvVZX13Y1lWtppS4b7rdNLvM8x/SBKPVhfW3DtqQ5fAjkH1abXajTfd32jw6w+TVaDS6r73HvP9XSfm2Asc5jL6CdC5g2+xvZ8fBl4TRrNFdWSnBuMk+Ek9mZHj9W5mwUY+m9NT3+TPjL4m903Honlnx7e+v/DntT6OXjecGXf3W5fqnVFSx4PKXGStfTVrKdv3Rl2+JfDoceSuSkXr0n8nN5MdsWS1Lfajrz3+ioALqAAA6K8ZzpVIwl1ZOLSfczXa+t7i2vrqlcb+lVR9Zv6Sfb7zY/iRrrzDudOGRox9qnwqpdsX2+40vG9LbNp4yV64+e3ub3gGrrh1M478oyct/fCMS6YOpZ08vZyu4dal19uPJPvZa1xW6fccWt0chiv6vJW22+1onm7TLjjJjvTfbtVmN46xu2Yi4uK25bcDkYdo3Mev45Uakv01D2Zb82u8zE9C0+WmbDTJXpaP/wBDzTU4L4M+THfrW23/ANqgAzsIAAAAAAAAAAAAAAAAAAAAAAAAAAAAAHiyFSdKyuKkHtKNNtPxR7DwZT5vuv4UvwMeWZjHeY/plkxRE5ccT/VH1Qx/S/UW7/tceb+iV/pdqL9rj/KjG+2X2mVOCnW6vtT/ANRf5y9GjQ6PaP8Ap8X/AIwyL+l2ov2uP8qH9LtRftcf5UY6B+3av/Pv85P2HR/6fF/4wyRaw1FF/wDVQfnA99rrvM0n+np06y37F1TDATXiGtrO8ai/5zv9VL8O0F456any2+iX8drrGXMo07hOhN9/yfiZrTqQqwjOElKLW6a5GtTSa4rfzMjwGo7rEV4xnOU7aT9uLe7j4xNxouOW7UU1Ecv647vNpdd6P07Fr6abRaPwTz38pTuDzW1zSuaFOtSkpQmk012pnpOmi0TETHSXJzExMxMbTAACyAAAAAAAAAAAADprVqVGlUq1ZqMIRcpSb4JLjuByqVIU4SnOSjGKbbfBLYgTWfTljMbUrWWDpeu3MW4yqvhSg+XB9rRGPSb0pXmormtjMVWnRxlOW06kW1OtJeK5RIbjFRW0Vsisz4LRHizDMa/1nmpN3mXqRi9/Yo/o0vgYlUqXFZ9ard3FR98qjZxBCdnOjcXlu96F7c03w4wqNfgSJpzpY1lgqlKMrr121i950avyn5SZHAG8mzfbROvsJq+ydSzqOFeml6a3nwnB+HejOj5v4nLZHCZKhkcfWlTr0pJ7J8JpfRl5m9mhtY2OrsHQv6Hs1V7Nek+cJrg/c+wtEqzGzNAASgAAAAAAAAAAAAAAAAAAAAAAAAAAAAAAABb73G2N9BwuKEZrv24+4wDJ9H8fanjq3V7qc+W/nzJODPj1Oh02oj+Jjrv49JfZpdfq9NP8LLaI8J5x8mut9i8jj5ONzbSilw66W8fieBNNbo2Uq0adWLjUhGS7mtzFLvROFubiNb0Thx3lGL4SNDqOAXid8OTePCeU/N0em9I8do21GKaz415xP5Ilx2MvslVVO0ouS3Sc38mPn4kq4PRtjYdWtcbVrjbm1wXkj15fOac0jjHWvK9K3pRi+pBfKnt2RXazVvW3THms+6lriuvZWLbXX5Vai8e42Oi4Rg0+1snt3/SPJq9fxrUanemP+Hj93WfOU5a46W9P6ZhO2tpxu7/baNGm94xe+3ttciSMLc3F3irK5uEo1atGM5Jck5Lc+ddjbu5yVlQ4zlXuYRbb3k23vx8T6P2VJUrK2ppbdSlCO3ktjcQ0sw9QAJQA8tS7tqVejQnWhGrV39HBvjLbi9vIsWY1PZ4i5pUrmnU2qL2ZRW695iy5aYq9q9uzXxlkxYcma/Yx17VvCGTHRcUKdxRqUqi3jOLi14MtlpqHEXaj6K7p7v6Lez+8vKlGS4NMVyYstZ7N62ifCdy2PNhvHapasxPfGzXfLY6pjMhXtZ8k94Pvi+P3HgJe1vh/W7FXdKC9NQ4t98O1EQJ7pHD8R0s6XU2rH2Z5x5PQOGayNXpa3n7VeV/PxXfB5SWLydK43fUk1Gql2p8ifqdSFSEZxacZLdNeJrW1utiWNDZh3FpKxqy3qUfk79sOw2fA9Z2bzp7Tytzr5+DV+kGi7eOuppHOvK/l3SkEAHVOPAAAAAAAAAAAAAAAAAAAAAAAAAAAAAAt+V+b7r+FL8C4FvyvzfdfwpfgY8v3WT4Z+jJh++x/FH1a6rnL7TAXOX2mVPOJ6vUI6Q9djY3N/cK3oJObTfEvn9Dc/wD4UPic9GfPtP7DJuN/wzhmn1WnnJebb9qY5S5zivFtTo9TGPHFZjsxPOEC1tL56im3Zue31SxTjOnOVOpCUZxfGLRsuYnqfA2+QsqlSMFGvTi5Qkub247GbVcCpXHa2G9pmOe097Do/SG18taZ6ViJ5dqO7zQmUC3+ktmt014oqcy6lJOgcpNutjpvdRXXp+C7iTyA9M3EqGds5L6cuq/JknZbV1pirz1atb1XLq9ZNcmjr+Fa3HXQ75b7RS3Z3lxnGNBktxDbDj3m9O1tHyll44kf/wBYWN/Zq3wKf1hY39mrfA+396aD/Pr+rX/uniP+mt+iQBsWvE5WhlLONzRTUW9tnzWxdT7aXresWrO9Z5xL4L0tjvalo2tHKYAAXVAWTNZu2xFvGtWjKXWkoqMebZjP9YON/Zq3wPky67S4b9jJmrW3g+vDoNZnp28WG1q+KQAYB/WDjf2at9xesHqS3zNSvCjQqRVNJuUuT3Ixa/SZbxSmWJtPctl4drcOOb5MFq1jrM7MmNfunXV9bHYy2wlpU6ta93dWSfGNOPZ/mNgTRHpWyc8hrzJyb9mio0oru6vA+uZ2h8cRvKPYxUYpLgkijaim3wSRU9+Iha1M1iqd29reV3BVd+XV37fAqukPRvRJqDU1CF5Wn6lZTS6k5L9JPjziu4ka6/J1tY28na6gunW24KpGPVb8djZC1hRhbUYUUlTUIqCXLbbgegvtCm8vnpqnSOd0peq3ydDaE3tSuIfq5+X+pjR9DdU6bx+pMNc468pqUakX1JNcYS7GjWLS/QZm73I1lnJu2sqFWUUov266XJrwfaVmExKL9NaWzmqL5WuKtpSimvS12tqdNN9rNy+j/o8x2jbKpGlVnWuq2zr1ZPnt2JeBl+HwuMwtlSs8fbQo0YRSSiue3a32suxMRsiZ3AASgBTkY1mNYaZwkU8jlrehu9tnLd/duBk2wIZvunPRNtNxo1a1wl9KnHh95b49P2k29naXiXf1UN4NpTsCL8Z0waDv1FPLQoVG0lCqmnx8tyR7a7trunGrb14VINbqUJJrZ+QHpAAAAAAAAALFl9S4HDUnVyOSoUIp7bylx+C3AvoIfyHTfoa1l1aN1O68aUeH37FoXT/pPf8A6S8279kRubSncEUY3pn0Je8KmSVtLflVTX4bkkWGTsMhRjWs7qnWpyW6lCW5I94AAAAAAUbSW7eyAqCy3eocHZPa5yVvTfc5ot39ONJf+atf5gMrBjVtq/TN1Xp0KGWt6lWb2hBS4syGrUjSpzqS5Qi2/JcQNCOknIVclrfMTqVZThSqejhFveMerw4IwouOYrq5zuZrp7qpfVmn5vctxWeq8Mp0Lb+s6405S23XrsJS8kfQfsNIehmyV3r62lJNqhbyqLzRu8THRFuoYxqrVOL0xia1/fVUlFP0dP6VSX1Ynq1DqHG6exdfIX9aMKVOL2TfGT7EvFmi2stYZLV2Wle3bcaEG1bW+/CEe9+LEyiI3ZjprXeSzPSjisvkZOMJynSp0U/Zpxkmklv5mxPSJRbo2NbbhCck/eaS2Fw7XJY+v/h3NN/Bm9uqurf6XVxHjvCnUW3jxPh4jScmhz1/7d/lzbDhd4xa/T28bbfPkh7qpcuD8OB7rTKZOzlvb3lSPm+t+J4IyjJbppnI4WuS9J3re0T7uT0G+Ol4mL0rMeExuzK21zlKcOpcUKdaL5t8H9xiVxKjK4qzoRlGnKTai+G2/H4HUDLl1WfNWtcl+1Fem/X5sOHS6fBe1sVOzNuu3SfyD2Y6+njr+3u4P9W/aXfF8HueMpJJxa8GYaXml4vWdpjnDNelb0vS0b1mu0+UtkbW5p3NtSr03vGcVJPwZ6DEtFVJzwVDrfRlKK8kZaeh6bJ63Biyf1ViXmepxRh1GXHE7xW0x8pVABnYQAAAAAAAAAAAAAAAAAAAAAAAAAAC35X5vuv4UvwLgW/K/N91/Cl+Bjy/dZPhn6MuH77H8UfVrqucvtMqUXOX2mVPOLdZenx0hlWjPn2n9hk3EI6M+faf2GTcdjwL+Tn45cT6Q/ztf/bhU4yScWn3HI8l7cQtrWtWk9lCEpP3cTcWmIraZ6Q0VImbViOsy17v4qGQvIrkq0jynZWrenr1q3+JOUl7zrPOMkxOS8x0m0vUMcTGOkT1isfR7cW2srYNf4qJE17jvSW1C+jH2qXsyf7r7zAsHS9LmrCO2/6VMnPKWUL3HXFtLlOGxvuGaf1+g1VJ755ecRu57i2p/Z+JaK8T0r7XlM7NeODBWdOVKpOlP5UJNNeRQ5+YmJ2l0kTExWY6JH6Pr5qV3Zyly2nBd+/MlI1/09e+pZm0qvlKXUfv4E/nZcEzes0fYnrSdvyno4fj+D1Wt7cRyyV3/OOUqgHCclGLk+CS3NzLRxzRDr299LkqFtGXs0oNzX7z5GDcNz3ZO7le5G7uH9Ko0vKPDgeI891ub12qy37pty8o5PStBg9RpMOPvivPznmpJpRb8CadFWHquHp1Gvare2/JkQWNrK8vra2jznNb+S4mxNvShRo06UFtGMUkvI3HAMHayXzTHKsbR5z1aX0j1PZw4sEdbTvbyh3mhXSfYVLHXmXhP+8cakX4S4m+prf086Sq3Fta6gtKXWlb7wuUlxcHyk/Bdp1MxvDkI6tXzjKKlHby/wCLxKpppNcU+0qVXbS9EHSar2lR0/mK211SjtbV5PZVYr6L3+kjYs+aCcoyhOE5RnBqUZp7NNcd0bZ9FXSrDMQp4bM1Iwv4RSpVW9lWS8+0tEqTCfAASgAAAxHVetcFpWzdfI3MVJ/q6MXvOb7kjH+kfpGstH2ChBKtkK6at6KfL9+XgjSrKZPI5i+q3+SuZV7ibbcm91Fd0fBETKYjdJGq+mHVOdnOlZVJY604rqwf6SSf1iKanWq1HUrTlUm225Te+795U4ynCPypJeBEzutEbK9WK7F7kV2R207a+qrejj7uou+NKTX3CpbXtFb1rC6prvnSlFfeQl0OEJc4r4F+wWp9Q6erxq4vI1aSUk5UnLeE0uySe/AsUZRl8lp8ewqDq3L6POlvHancLC+jG1ySXyG/Yq+MNyZT5oRlUp1KdWlUlTq05KVOpF7Si1x3Rul0Ta+eqMRK2vGo5CzShV4/rF9dL8S0TurMbJdABKoY/qHUuH07YTvMldwpU0uCb9qT7ku3ctGudb43SGJnd3L69ae8begn7U5/7LtNINQ6iy+pcjO/yldzm37FJP2Ka7ooiZTEbpN1d02agy850MMpWFru0qn97JcvgyGrirXu6sq11XqV6kt3KU5b7nE4ylGK3k0vPvImd1ojZVRivor3Irw7kc6dC7rfqbK5qrvhScl9x2Ts8lTjvUxt5Bd7oySIS8zhF84p+4ueJzOZwldV8XkK1tNbfJl7Ml3PfsLYpJvbfiua7TkBtl0e9M1vmKtLGZyEba9lwhWXCnU+PJk+pprdcj5nyW65tNNNNc012o2y6GekOpl7eWCyVTe8toL0NVv9bT7vOPaWiVJhP4B57m4o21vVr1pqNOnBynJ9iXElCxao1TiNL4ypf5GsowXCEF8qcuxRXeaf6r6WNVahq1IW9zOwsmmlSp/KnF/XZZde6uudWaguLuc5eqUZuna0W/Zio8N/NmHcSJlaIcZxdWTnUnUnJvi3Jv3nD0NPufxZ2NxS3bSXicPS0v8AEh8SqyReiXH07nX2LWz2pqc3x7UjdPUt16rp/LV99upaVX//ACasdANnG51Xk7lNNW1rFr/Pw4E+dLF+7HQuWqJ7daCp/wA/AtHKFJ6tFIy6/XqfXk5vzZyOFKPVpwj3I7Cq6evyfbOVXO5e86vClSVPf7XE2gzOZx+Fx9e/v68aVClFuUn+C8Wa9dBNzZ4jTGo8rfVo0qHrMZOpLsUYvdeZFHSD0gX2ssi0utSxlGX9noN/Ka4deXi+wtE8lJjeXl13rnIaxynp6vWpWVJ7W1vvw2+tLxZhQMq0bo7KavyysrNOFGGzublr2YR7l4srzlflEK6O0Zk9YZWFnaRcLeElK4udvZgl3eL7DfCyxVvbYq2x0m6tKlQjS3nxclFbcTyab03itN4ujj8dRUKcF7T+lOX1peLMgJ2iYmJ71N5id45MLvND4avu6UJUH+49kYjeaDyVHd29aNWO/wAl8/vJiBr8/CtFm5zj7M+NeTZYOMa/D0y9qPC3NrpdYvJ2ctrizqR8Vx/At/Wjy32fczZiUIyTUop+ZYrzTOGu93O0gpP6UVszU5uAWjecWbf3TH94bnB6SU6Z8G3vrP8AaUC7o9NlZXGRuIW1tBylLg2uUV3slqOhMLGbk/StfVb4GTWOMsMfDq2tvCmnz2XFmPBwHPN49bata+7nMsuo9ItPGOfU47Wv3bxtEebjirCOPsLe1j9CCTfe+8uQ3B1NKVpSK1jaI5OQve172tad5md5/NUAF1QAAAAAAAAAAAAAAAAAAAAAAAAAAC35X5vuv4UvwLgW/K/N91/Cl+Bjy/dZPhn6MmH77H8UfVrqucvtMqUXOX2mVPOJ6vUI6QybSFWlSzUJ1ZxhHqPjJ7L7yY/znjv2yj/OjXRxi1s1ucfRU/qI2+i4rbSYfVxii3Pfffbq0/EODU1ueMs5pr7MRtEb9E/XepcNaJupdwe3ZF7/AIEY6i1TVy29ChF07ZPjvznsYioRXJHIrq+L6nUVmkRFKz1iOs/mnR8F0ulvF/aveOkz0j37AByp06tarClSj1qk3tFef+hqoibTtHVt5mIjeekMx0LZSr5apcOO8KUNk/3mTKY/pzDxxWNp0Xt6SXtVH3tmQHd8N006bS0rb7U85857nnnFdXGq1l71+zHKvlCENY4/1PNVKkVtC4XX38TFewmPXOP9ZxSrxXtW8ut7nwIcWzXM5bi2n9TrL7Ryt7Ufm6/g+o/aNDj3n2qezP5dBtxakucWmvcbB4S8jeYy1rKW7cEpPxRr6Sn0fXvXs69o+dKXWXlLifTwLP2NTOOZ5Xr+sPl9IMHrNJGSI547fpPJIxjmqb5WeGuZ77SnHqR82ZGRb0hX27tLJPm+vJeR0XEc3qdHmt39naPOeTmOGYPX63DTbl2t58o5o3jvt4lQUb2XuOB6vRmc6DsPT5GrdyjvGjHaL/efMmAxPR2P9Tw1JtbSrP0kveZYd3wzB6jR442525z+bzzi+p9frss7+zX2a+UKnnubahd29a3rwU6VWDhOL5OMuDTPQDYta0T6SNBXOkMtOdKnKWLuJN0Kn1G+PUl/oR2fRjNYTG5zGV8dkKCq29VbSi+a8U+xrsNHNdaEyWjcl6KsnUsKsn6rcJbrb6s+5orMd60SworGU4ThUpzlCpBqUJp7OLXaigIWbadFXSpDM06eHzFRQv6cUqdWT2VZLz7SfD5oxlUhUp1aU3CpTmpU5p8YyXE3Q6J+kD+lGKlbXs4rJWvCrFfTjyU14vtLRO6kxsl4x/U2obPTmFu8ndv2KMXtHfbrSfKK8zIDUrp61NO6zFtp+lUfobeEateK5SlLjH4CZREbyhbNZm+zuVusneTlKpWm3FN/Ih2RXkW0FwxGKvc1lLPGWcd61xUUV+6nzb8Cq/RcdMaWzOqclGyxtFuO69LcNfo6S8fHwNr9KdDWl8JCFS8pK+uur7U6q3hv+7F8jONJaWxml8PRx9jS6qSTqy5ynN822ZQWiNlZmXmtrO1tKap29CnSguUYRSX3HG6sbO8punc29OrB84zjuvvPWCUII1v0KYfK0qt3hIxsr1LdQX6qe3Y12bmpt3aXVjd3Fnd0ZUq9Co4VIST5rhw8H2H0pNYOnzS1OHqeobeCUlJUrnb6W/yW/IiYTEtbjK9C5+rp/VuLvoz6tKVRUrhfWpy7DFeB1Vt1TbXNbP3riR0WmN30wp1I1KcJxe6lFNPwfE8eTyNrjLC5vrqooUaEHOcm9uX+5ZNEZF5LSeGu293Uto8fs8P9CGen3U86NpZ6foTadztUuEu2knsl8SyiBdX6qvNV524yVdyVLdxtaTfCFNP8WY0OSXkjto0K9zcUba2h1q1apGFOPi+HwKLxGz34XCZXO5GlYY22lVrTa6zS9mCfbJ9iNqtI9COAxUKdxl/7fd7e0pfqlv3R8DMuj3RFlpLC06MKad3WjGV1U5uU+5eC7CQC0QrNp7nhssdYWNP0dpa0qMe6EUvwPTVo0q0HCrTjOL5xkt1952glCJdY9EWms/bzna28LK9UX6OrTW0W/wB9Lmad5jEZDCZS6xl/ScK9CWze3Ca+tHwZ9HjXXp+03Tr4uzzlGl+mtp9StNdtJ8l8SJhMT3NWS44fK3GHzOPyVCbjK3rRctnzhv7W/mi389vccKketTnHvTKrvpJjr2jkLC1vKT9ivSjUj5SW5H/S9k54/QuTcOdePofdPg9jj0PZGd/oPGVJy3dNype6HAw78oO+9HpyxtFLaVa6jLbvUS89FIjns1Nprq04R7oo5Sl1YtvsK/7lPRupKnSXOVSC+LRRdsj0adEGLyOJtszm+vVdxHrUrflGEeXtd7JX/ql0J/4imZngrZWuGx1BfQt4L7i7FtoUmZYtp/RuntO1bipi7KNCVaKjUa7UuJG3T7eqlor1btr3NP4Re5ORrJ+UReezgbPsnOpN+4SRznm1r4FOwAquutXNZCphLbDKfUsqU3OUI8PSSfHeXkWruBSSbi9uewGUaQ0jlNXZWFlZQlGimvWLlr2ace77TN59MaZxmmsTQx1hSUYQS60tvanLtlLxZHXQplsBd6XVrj6EaFxby2uqbftSn9d96ZM5aI2Ume4ABKAAAAAAAAAAAAAAAAAAAAAAAAAAAAAAAAAAAAAAAAAt+V+b7r+FL8C4FvyvzfdfwpfgY8v3WT4Z+jLh++x/FH1a6rnL7TKnFc5ebOR5xb7UvT46QAvGBxtLJ5GNtVm4xcW90Z//AFe479pqn3afhup1NO3jisxvt12a/VcU0mlyery2tFtt+UTKJyjlFc2S7T6P8VF+3VqSLxa6Twls1KNqm12ye/LzPspwLV2n2ppWPPd8V/SHQ1j2IvafLb6obx+JyOSnGNrQck/pvhH4kt6e0rbYpKtUaqXDXGTXCPkZTSo0qUVGnCMV3RWyO03ei4Tg00xe09u8d89I8mh1/GtRqqzSsdjHPdHWfOVQAbZpnnuaMa9CrSkk1KLXHxNdbu1lZ3dxbS505te42RIf15j3RyNK7itoVY9WX2lx3NDx3T9vT1yx1pPPyl0Po9qexqL4ZnleN484YOZLpG99UzlJN7QqxcWvF8jGisKsqFSnWj8qnNTXZyOX0+WcWfHkj8Nol1uoxRnwZcc/irMNl2QDqO79czd3UT3imox93BkvXWTUNPzvVJbu3TXH6TRAyk57zlzm3J+b4nQcd1ETjwY6z19r/hzfo7pZrk1GW0fZ9n8+9U9mOs3e5C1tl9Oa38lxPGZ5oGw9Le3F5OO8acVCHhLwNJocPr9Vix9025+Uc2/12ojT6TNk74ry855QlinBU4RilskkkvI7QD0CI2jaHm0zvO8gAJAtGawuOzeOr2F/QjVoVYtSTXFb9q7mi7gDQnXugsjo3I9We9TH1pbWtf8A+s/FGCn0Vz2Cx+exVzj76jGpSqwa4rjF967mjQHUGEudP5u+xVw95UKjUJfWj2MrMLRK0GTaMztXT+qcXkKcmo+lVKqt9lKNT2ePkYycKjaUZLmpJr3ELdX0sVxTdv6dS3h1Ovv4bbnzy1RkJ5LU2ZvJzcnO6nFNv6MXsjd2hczpdH8bib9qOIc35qnuaCQqOr16r51Jyl72TKsQ5GwP5P8AhYVsplcvNJuhFUIbr63Fs1/7zaj8nqtTeFzNJfLjdxcvehHVM9Gw4ALKAAAET9NEactB33X24VKbXnxJYNd/ygM9GjiLDDQ41Lqr6SWz5Rp9/mRPRMdWq0N+pH7KOFbb0U/I7OB2Ubapd3Nta01vOvWhCKXiyq7e7ovpTo6DwEJrZq24+9tmpXSjlJ5LXeWm5txt5KjBPsS4m72Ks1Y4eztorb0VvGO3ikfPzUk5T1NnZy5u7lvuWnorHOVnJe6EcLHI6yd3UgpQsqLkk1uutNbL3oiE2F/J5rU1k89SbXXdGm0vIiOqZ6NqwAWUAAAI/wCk+3jcaGzcJL+53+DJAI/6ULhW+hc3Nvb9Cl8WkBoZTfWpxfemcm0k/I401tCK8GUq8KNTyZRkbpdBdOdPo+s1Jbb3FZ+5sjb8oispZTTlBT32pVpSj+DJv6NLFWWicNTX0qCn/NxNaOm+7dxrl0d+FvbwS/zItPKFPxIiLvp60d7qPC2qW/pruC28uJaDOejC0nddIOB6vKhW9LLyXAiFpb50oKFKnD6sUvhwOwAsoGm/T1eyraytbTfhQtIz/nNyDRHpYvfXekHKz7KcI0v5SJ6Jjqj07KNP01xb0eTq1Iw38ZcDrL/pS19b1Vg6G26leU90VXcdS6dv9N5aWPvF7XUjUpTS4Ti1vw8ixG7XSnoOlqbAOdvDa/s4udu0uMtvoPwZpLtUjKUKkHGpBuM4vmpLgTMIid190zqO+0zmrbK2kpexJKtTT4VKfan5G/OAzlhnsVa5KyqdajXgpLvTfY/FHzpJV6KNez0vmFZXk5Sxt5NRe74Uaj+kvMRPcTHe3bBwhOE4xnGScWt012pnMsoAAAAAAAAAAAAAAAAAAAAAAAAAAAAAAAAAAAAAAAAFvyvzfdfwpfgXAt+V+b7r+FL8DHl+6yfDP0ZcP32P4o+rXVc5faZUoucvtMqecW+1L0+OkeTKtGfPtP7LJuIR0Z8+0/sMm47HgX8nPxy4n0h/nq/BCoAN00IAAAAAoYvq3HO+w1xGC3qQ9qD7tuZlJwnCM4yi+KaafvMWbHGXFfHPS1ZhlwZbYc2PJXrW0T8mtCe6DSa28C55mynY5W7oNbR67lD7LLbwPO8uOceS9Lda2mPk9Mx5K5MdL16WrEx+bMbrIN6NtKPW9qVXb3JmG/7HoncSna29v9Gk5Pz3Ogy6nNOW2OZ/DStflDFpsEYK5IiPtXtb5yo+C934k56SsHZYW2jKO1ScevNeLIcxNpK9ylnb7bqVT2vBLibDQiowjFckkvgbzgGD2smae72Y/u0HpJqdqYcEd/tW+kOwtuTy+NxVtK5v7ylb0orjKb2PNqKtkqGFyFXHKLuoUZSpKXLdcT5/5nP5zP3Dr5a+q15qTSg3tGG3Ykjp5lycRu2E1d0804SqWunLZVXxTuqnCPnDvOnob6QMhfZvIY7NX8qtW52qW8p8OK5xXn2GtiWy4cF3HbQr17W5oXNvVdOvRmqlKa5xlHiRutMQ+lYIH0T01YTI2lG2zlVWd7CKUpy/V1GuG8dt+ZJ1bW+k6FH01TNWqhtvv1v9id1NpZUaPdMd9a3uvLn1eUX6CiqVRr6/PYlDXHTjZRoVrHTe9atJdV3bX6OCfbHxNYXKc5zqVJynUnJynNvjJvjuxMrRHioerH2lS9yVhawW8qtxTWy8zzE09CGlK2U1E81Vh/ZbFNU21wnUktvuKxzTM7J919W/M3R3f04vbqWkaK/zLqmidFbUoLt6qNyOnm9VDRMqKltKtcQSXf1Xuae7JFpRHRQlbod1VR0/qh293V9HaX0eo5PkqvY2RSUlFSWz+K713FYnZMxu+l6kpJNPdPin5nLY1L0F01V8XSpY7UKqV6Mdo07uK9qEVw9vwRsXi9aaWytNTs8vbVE19bZ/fsW3U2llILRc57C2tNzr5G2hFdrqJ/gRdqXpt0pioShYVJX9xs0o0vkxf7ze3AbiTNQagxmn8ZXyGQrxp0qae274yl2Rj4vsNCdUakvdTZy6yl02uvLajT+pTXBf/p6NVawzurLz1jJ1v0cW/RW0f1cPLxMZImVojYJZ6GdL1M1qynkZwfquNfXctuDrdkSMLGwvMnfW1hY0nUua8lGEV49r8Eb5aF0jaaUwFvYUlvVaUrip2zqPnv5ExCZnkzNpNbHz91/YTsNb56jJbKVw5w8n/ofQM1W6fdNVaV7Y6gow/Ryj6CvsuXapMT0VrO0teDNejvUsdNatsr2tPa2qN0rjuSlwTfkYVwKNKSakt0yq76V0a1GvRp1qU4zpzipQknwafHc7jTHo+6Xb/TUIY/KQqXWPWypyXy6S/wBkbN4fX+kcxTjKzy9CTa+TJ9Vrwe+xbdSYlmYLXWzOJo03OpkLeMe/0kf9COtQ9MejcPTkqV167XX91Q4v3tko2lKFxdW9rSdWvVjTgmk5Sey4kPdOmQ9BoipRX/c1YxXu4kP4/XWc1z0gact739FY+tdZWsG+r7Kb3l4mcflE3MY4zAWsXs5XcpNeCWxG+8JiOfNrAuS8isYOpVt6SW7qVoQ283sC64C3ldaiwlGK33vaTa8FLcqtL6C4K39Vw2NobbejtqcdvKJov0h33r+uM3W626VRU1/l4G/M5wo0ZzfCMItvyR84cpVVfM5isnup31Zp+DluWlEdXiJn6B7P02srm4a3VGzfxbIZNj/yd7JSln73b5NSNLfz4kR1TPRtAACyjjKSjGUnySb+B87NUXXrmp85XfHe8qJPwTPoHmajo4jJVFzha1ZLzUGz5vQqzrupWn8qrOU372RK1XMkboisfXekDGx5qjSnWf8AlI5Js6A7J1dXXt5/gWsqf8xEdUz0biGpvTZoN2N3LUthS3o1ppXkIr5Evr8OzvNsjxZCwtcjZV7S6pKpRrQcZwfJpllI5Pm4mmufcUlFSWz7v+bGV610nd6Sz9bHVt5UJ71LWo/pQb5eaMVKLxO7aHoU1/O6pLTmSuN7ikm7SpJ8akFx6vmjY8+adGvcWtxRubWq6dejJTpzXNNf6G8vRtrm21ZhKc5TSvreKhdU3z6y4dbyZaJVmEjgAlAAAAAAAAAAAAAAAAAAAAAAAAAAAAAAAAAAAAAAFvyvzfdfwpfgXAt+V+b7r+FL8DHl+6yfDP0ZcP32P4o+rXVc5faZUoucvtMqecW+1L0+OkeTKdF/PtP7DJwIQ0X8+0/sMm87DgX8nPxy4n0i/nq/BAADdtCAAAAAAAAi3pAsGna3sI9rjUfh2EcM2AztjG+xd1Qa3bg3HzXFGvyUo7xlwlFtSXkcbxzT+r1XrI6Xjf8AOHccA1PrdH6uftY52/KecKgHGT2j/wA7TSt4kPo/sVUr3V5JfI9iPv4krox/TOPVhh7am17Tj1pPxfEyA77h2D1GkxU79t585edcU1H7Rrc14n2YttXyjkpKMZRcWt01s15mjnSto6tprU1e4hDaxv6kqlFpcITfFw93YbymN6o0zjNTYmvj76kpRkn1J9sJfWR9sw+GJ2fPMGb6v6PdRaUuZRr287m03/R3VKO6a/eS5NGCqpBvbrLfu34ldtlondylGMvlLc4ehp9z+LO0o2lze3mEiSXBLYFKbdWahRhOrJ/Rprrv7iWdIdD2pM/OnWv4uwst025cak1+73E7ImYhhGltLZTVWVp4+wpvq7r09fb2ace3fxN79NacxunMRb42xpqNKmuL7ZyfOUvFnHTemMPprHU7HG28acIr2pfSm++T7WZETEbKzO7Wf8oq5at9P2yfCpVqSa+ykazk49Pt5KtqnHWu+8aFv1tvtkHET1WjoAy3QunKOptS0cVWlONKdKUnOD4xa7fIvWrOivVWnKlWcLd3tmn7Nakt5JPsce9DZO+yOOZw9HBPePWi/BtfgJS6kurUjKnLumuq/vKqcHynH4kBKHW+VOpLzmysYxjyWxxdSmuc4r3nbRp17mahbW1atJ7bKnBy4vyA4nqx9je5O9o2Vhbzr16slGMYrdLf623IlHS/QzqrNyhVv0sfavZ+1xnJeG3I2l0nojA6VtPQ4+3SqSS9JXlxqT272WiFZlivRp0Z2mkrb1q66lfKVYv0lZLhCL+hDf7yWgCVQtGdw1nm8Vd468gpUa9Nxkn8U/cXcAfPHVmlclpPL1cfewbp7t29fb2akOzbxMdPodqXS+H1Ljp2WRt41INPqS29qDfbF95qRq7od1NgJ1K1jB5CyW8t4/rILua7WVmPBaJ8UUHB0ob78U+9Pb8NjnV69GThWpVKUlzVSLg/vOKqU3ynF+8hZWUXJbSqVGu5zZSMIx5Io6lNc5xXvOdPr1pKNGlUqyfZTj1/wAlboVsfWtd0qjjureg579z5F+6f7tVdTY213/VWqqbeb2Mk6C9KZqwvr/KX9lO3pVKKp0uvwk3vvyIy6YLqvea+v+rb1pRt4KjuoNrhx4bFtuSu/NGhnvRbZRvdfYiD4qHXn/LxMD6lx+y3H/rZNPQTjrirq+5upUKkYULd8ZRa+Vw7SsdVp6NptU3Hq2nMvW326lpUa+B87oy6/Wn2zk5P3m9HSzeTtNDZSUIylKpGNNKK3ft8Ow0Wp07mNOEfVbjgl/dstKsdHL/Y23/J+sZUNKXdy1/1V05/yrY1IlC42f8AZbjt/u2by9EdjKy0FiKc4yjKUJTaa2ftMQT0SWACVWEdI2QeP0bmK6ez9A4cP3uBoFRi40oLuRul04XVSjoe4o04SlKvVhFKKbfB+Bpiqddf9rcf+tkStHQNmfyeLRegzt248ZVYRT92/A1n6lf9luP/AFyNxugnHytdD0q04SjOvXqOSa2e0XsuZERzJnkmkAFlUd9JGiaGrMBWoRUY3lFOdrVa+TJdnvNFqtGvb161vcU3CvRm4VIPmpLgfS01h6btBS639JcbbuUt1G9pwXNdk0l295EwmJ2a2mQ6U1PfaWzdvk7VtwUkrikuVSn2+9dhj/Vr/stx/wCtjqXH7Lcf+tlecLTzfRjCZmxzeMtshZ1FOjWgpLwbXJ+KLuaW9EeuLzTmVWNvKVx+bLmS23hL9FUb23Xg+03PhOM4xlF7qS3T8GWUmNnMAEgAAAAAAAAAAAAAAAAAAAAAAAAAAAAAAAAAAB57mgrihUpN7KcWt/M9AImImJiekpiZiYmOsI6/q8seP9qqcW/vH9Xlj+1VCRQfB+69B/kQ2P734j/qLfowzEaQtsZexuYVpyaW2zMyAPqw4MOCvZx17MdXx59Rm1F+3lv2rbbbqgAzMIAAAAAAADrnJKMm+CSbZrtkalOpkbydNbRdaWxMerMvDHYyok16WsnCC8+DIOitl3nLcfz1tfHijrXnP5uu9G9PauPNmnpbaI9+3WXIumEsXf5a1t0t4qXWn9lFr4EjdH9gpTub6S/cg/B8TU8Pwev1eKkxy7W8+Uc254jqP2fR5skTz7O0ec8koRioxjFLZJJL3HMA77pDzjqAAkddSlTqwlTqQjKMls4tbp+e5HWZ6KNEZd9arjI0ZPfeVB+jbb79tySQBBsvyf8AQ7fszv0u703/AOHpt+gbQdGcZuF5UafKdbdfgTSAbyxjEaP0zhuq7DFW9Ka+morrfEycAAAUbSW4Gi3S5eK76QMk4y3jTpQp++JHJfdVV3car1BW3b3vqqT8EyxFZ6rwmzoFtHW1deXO3Chayjv4yNxDWX8nWhF0dR3Lhx9NShGXhs2bNEx0VnqxjJaO0xlHKV5iLapKXOTgt/uMNuOhXQVebl6jUhv2QnsiWQSjeUX2XQ/oS0l1ljFV/ivrGcY3A4bFraxx9Chw23hBJl4AN5AAAAAAAAAABj+T0tp7Ktu+xdvWbXypQTfxMIu+hjQdzNyePnT37IT6qJXAEV2nQ1oO1n1ljpVPCpLrIzbG6Y0/imnY4u2oNLhKEEn8S/AG8h4Z42wqTlOdpRlJvdycU2/M9wAt/wCacZ+xUP5Ed1CztLdylRoU6blzcYpb7d+x6gB01qFGvDqVacZx+rJbrh5nl/NOM/YqH8iLgALf+acY/wDsqH8iPbCEKcFGEVGK5JLZfccwAAAHRXtre4io1qUKi7pLf8TzfmnGfsVD+RFwAFv/ADTjP2Kh/Ij1UaFGhTVOlTjCC5Ritlx8juAAAADhOEKkXGcVKLXFNbo5gC3/AJpxi/7Kh/Ih+acZ+xUP5EXAAW54jFyWzsaH8iPdGMYxUUtkkkl5HMAAAAAAAAAAAAAAAAAAAAAAAAAAAAAAAAAAAAAAAAAAAAAAAAAAABQ891cU7ahUrVH7MFuz0lpzvzTe/wAJmPLaa472jrFZlkxVi+XHWek2iP1WyhrDBVo7q6UftLY8d/rfE28JKjJ1qm3BRXDfxZC8Yxcfkrt7DmklyWxyduO6qazEVpE+Ozs6+juii8TNrzHhvH9lwyeTu8pdSuLiX2Yb8ILu8zwAo2km33GmyZL5Lza07zPWW6x46Y6RSkbVjlEQrGEqk4U4Lec5KMV3tk/4HGxxuLtrZc4x3l5viYDovT86lZZG5ptRi16GLXP94lc6rgmjtipOa8bTblHl4uR4/rq5b10+Od6052+LwVABv3OAAAAAAAAAAAFuy1dW+Mvqze3o7epLfyiy4nRcW9G5oVaFaKlTqRcZRfamB81a13TrXV3WlUW9WtOb951+no/4iN910Y6HX/wtEr/Vjoj/AMLRI2W7TC+gSyVHRjr7ca9xJ79/V4E4luxeLsMVZ07SxoRpUIb9WEeS3LiFZneQAEgAAAAAAAAAAAAAAAAAAAAAAAAAAAAAAAAAAAAAAAAAAAAAAAAAAAAAAAAAAAAAAAAAAAAAAAAAAAAAAAAAAAAAAAAAAAAAAAAAABaM2m8TeJJt+ifIu5xaTWzKZK9ulq+NZj5r479jJS22+1on5NaYUq3V/Uz7fos5eirf4M/5WbI+go/4cfginoKP+HH4I53/AA9/6j/a6j/EvL+W/wBzXKna3dapGnSt6kpvlFIz/A6IqSnC4yaXVWzjRX/2JPVKmuKhFPwR2H06bgmDFaLZLesmOkbbQ+PV+kGozUmmKvq4nrO+8/k4U6cKcIwhFKKWyS8DsAN3EbRtDQTO87yAAkAAAAAAAAAAAAAAAAAAAAAAAAAAAAAAAAAAAAAAAAAAAAAAAAAAAAAAAAAAAAAAAAAAAAAAAAAAAAAAAAAAAAAAAAAAAAAAAAAAAAAAAAAAAAAAAAAAAAAAAAAAAAAAAAAAAAAAAAAAAAAAAAAAAAAAAAAAAAAAAAAAAAAAAAAAAAAAAAAAAAAAAAAAAAAAAAAAAAAAAAAAAAAAAAAAAAAAAAAAAAAAAAAAAAAAAAAAAAAAAAAAAAAAAAAAAAAAAAAAAAAAAAAAAAAAAAAAAAAAAAAAAAAAAAAAAAAAAAAAAAAAAAAAAAAAAAAAAAAAAAAAAAAAAAAAAAAAAAAAAAAAAAAAAAAAAAAAAAAAAAAAAAAAAAAAAAAAAAAAAAAAAAAAAAAAAAAAAAAAAAAAAAAAAAAAAAAAAAAAAAAAAAAAAAAAAAAAAAAAAAAAAAAAAAAAAAAAAAAAAAAAAAAAAAAAAAAAAAAAAAAAAAAAAAAAAAAAAAAAAAAAAAAAAAAAAAAAAAAAAAAAAAAAAAAAAAAAAAAAAAAAAAAAAAAAAAAAAAAAAAAAAAAAAAAAAAAAAAAAAAAAAAAAAAAAAAAAAAAAAAAAAAAAAAAAAAAAAAAAAAAAAAAAAAAAAAAAAAAAAAAAAAAAAAAAAAAAAAAAAAAAAAAAAAAAAAAAAAAAAAAAAAAAAAAAAAAAAAAAAAAAAAAAAAAAAAAAAAAAAAAAAAAAAAAAAAAAAAAAAAAAAAAAAAAAAAAAAAAAAAAAAAAAAAAAAAAAAAAAAAAAAAAAAAAAAAAAAAAAAAAAAAAAAAAAAAAAAAAAAAAAAAAAAAAAAAAAAAAAAAAAAAAAAAAAAAAAAAAAAAAAAAAAAAAAAAAAAAAAAAAAAAAAAAAAAAAAAAAAAAAAAAAAAAAAAAAAAAAAAAAAAAAAAAAAAAAAAAAAAAAAAAAAAAAAAAAAAAAAAAAAAAAAAAAAAAAAAAAAAAAAAAAAAAAAAAAAAAAAAAAAAAAAAAAAAAAAAAAAAAAAAAAAAAAAAAAAAAAAAAAAAAAAAAAAAAAAAAAAAAAAAAAAAAAAAAAAAAAAAAAAAAAAAAAAAAAAAAAAAAAAAAAAAAAAAAAAAAAAAAAAAAAAAAAAAAAAAAAAAAAAAAAAAAAAAAAAAAAAAAAAAAAAAAAAAAAAAAAAAAAAAAAAAAAAAAAAAAAAAAAAAAAAAAAAAAAAAAAAAAAAAAAAAAAAAAAAAAAAAAAAAAAAAAAAAAAAAAAAAAAAAAAAAAAAAAAAAAAAAAAAAAAAAAAAAAAH/9k=;imageBorder=default;" parent="1" vertex="1">
          <mxGeometry x="640" y="755.3400000000001" width="150.17" height="84.66" as="geometry" />
        </mxCell>
      </root>
    </mxGraphModel>
  </diagram>
</mxfile>
